<?xml version="1.0" encoding="utf-8" standalone="no"?>
<!DOCTYPE svg PUBLIC "-//W3C//DTD SVG 1.1//EN"
  "http://www.w3.org/Graphics/SVG/1.1/DTD/svg11.dtd">
<svg xmlns:xlink="http://www.w3.org/1999/xlink" width="241.389812pt" height="291.6pt" viewBox="0 0 241.389812 291.6" xmlns="http://www.w3.org/2000/svg" version="1.1">
 <metadata>
  <rdf:RDF xmlns:dc="http://purl.org/dc/elements/1.1/" xmlns:cc="http://creativecommons.org/ns#" xmlns:rdf="http://www.w3.org/1999/02/22-rdf-syntax-ns#">
   <cc:Work>
    <dc:type rdf:resource="http://purl.org/dc/dcmitype/StillImage"/>
    <dc:date>2023-07-11T13:44:35.593144</dc:date>
    <dc:format>image/svg+xml</dc:format>
    <dc:creator>
     <cc:Agent>
      <dc:title>Matplotlib v3.6.3, https://matplotlib.org/</dc:title>
     </cc:Agent>
    </dc:creator>
   </cc:Work>
  </rdf:RDF>
 </metadata>
 <defs>
  <style type="text/css">*{stroke-linejoin: round; stroke-linecap: butt}</style>
 </defs>
 <g id="figure_1">
  <g id="patch_1">
   <path d="M 0 291.6 
L 241.389812 291.6 
L 241.389812 0 
L 0 0 
L 0 291.6 
z
" style="fill: none"/>
  </g>
  <g id="axes_1">
   <g id="LineCollection_1">
    <path d="M 181.704134 138.541748 
L 181.738097 138.873156 
L 181.86783 139.287873 
L 182.035024 139.702908 
L 182.271011 140.352493 
L 182.440588 141.158694 
L 182.504432 141.292938 
L 182.925816 141.292229 
L 182.90823 141.330804 
L 182.768654 141.266438 
L 182.542849 141.434192 
L 182.884703 142.10629 
L 183.038381 142.275324 
L 183.192541 142.57242 
L 183.902243 142.358373 
L 184.162572 141.780123 
L 183.92348 142.411764 
L 183.198215 142.70518 
L 183.376257 144.12338 
L 183.712731 144.686689 
L 183.984369 145.121013 
L 183.760274 145.484954 
L 183.941777 146.031379 
L 184.218894 146.275043 
L 184.793954 146.591307 
L 184.896592 146.833487 
L 184.775241 147.436496 
L 180.963756 147.534146 
L 179.97612 152.391393 
L 171.868362 152.530752 
L 171.85077 147.769491 
L 171.854728 147.674812 
L 171.780682 147.676201 
L 171.572052 147.618434 
L 171.373756 137.974268 
L 171.462173 137.973815 
L 177.472381 137.855514 
L 178.084293 137.986778 
L 178.320465 138.27565 
L 181.587208 138.234897 
L 181.704134 138.541748 
L 181.704134 138.541748 
" clip-path="url(#p696fd57a73)" style="fill: none; stroke: #1f77b4; stroke-width: 1.5"/>
    <path d="M 190.131417 157.02629 
L 188.187558 157.090549 
L 182.910953 157.10324 
L 182.836016 152.874159 
L 183.045349 152.780697 
L 182.751978 152.346689 
L 179.97612 152.391393 
L 180.781465 148.473152 
L 180.963756 147.534146 
L 184.91415 147.506953 
L 185.127339 147.971921 
L 185.841169 149.049077 
L 186.444871 149.882494 
L 187.439907 150.953553 
L 187.45842 151.510269 
L 187.39837 152.186961 
L 187.630097 153.272823 
L 187.705781 153.431389 
L 187.813566 153.682193 
L 188.271302 154.38307 
L 188.762989 155.128848 
L 188.9966 155.302048 
L 190.117168 156.580052 
L 190.131417 157.02629 
L 190.131417 157.02629 
" clip-path="url(#p696fd57a73)" style="fill: none; stroke: #1f77b4; stroke-width: 1.5"/>
    <path d="M 171.952675 167.037376 
L 172.036967 171.894608 
L 168.649204 171.975561 
L 168.647524 171.902285 
L 168.257061 161.03331 
L 168.191778 161.035007 
L 168.302468 159.862346 
L 168.336132 157.413332 
L 168.521096 157.410229 
L 168.339625 154.800492 
L 168.360517 152.593316 
L 171.675725 152.534103 
L 171.676995 152.60116 
L 171.952675 167.037376 
L 171.952675 167.037376 
" clip-path="url(#p696fd57a73)" style="fill: none; stroke: #1f77b4; stroke-width: 1.5"/>
    <path d="M 182.910953 157.10324 
L 183.060231 166.798937 
L 178.029244 166.901025 
L 171.952675 167.037376 
L 171.675725 152.534103 
L 182.829134 152.342127 
L 183.045349 152.780697 
L 182.836016 152.874159 
L 182.910953 157.10324 
L 182.910953 157.10324 
" clip-path="url(#p696fd57a73)" style="fill: none; stroke: #1f77b4; stroke-width: 1.5"/>
    <path d="M 190.131417 157.02629 
L 190.2297 157.467355 
L 190.55352 157.850933 
L 190.892231 158.500672 
L 191.014002 158.64534 
L 191.246012 159.385511 
L 192.0426 160.280783 
L 192.542606 160.525844 
L 192.686169 160.998127 
L 192.687353 161.395646 
L 192.865117 161.830552 
L 193.122802 162.457823 
L 193.168266 162.614256 
L 194.273495 164.196779 
L 195.042258 164.89112 
L 195.810945 165.497479 
L 195.995305 165.603557 
L 196.147798 165.787705 
L 196.065497 166.063696 
L 195.993726 166.474296 
L 195.973265 166.616602 
L 195.64011 166.54406 
L 195.342613 166.67711 
L 194.152941 166.616551 
L 183.060231 166.798937 
L 182.910953 157.10324 
L 187.993035 157.040683 
L 188.127504 157.090488 
L 190.131417 157.02629 
L 190.131417 157.02629 
" clip-path="url(#p696fd57a73)" style="fill: none; stroke: #1f77b4; stroke-width: 1.5"/>
    <path d="M 149.327181 51.049161 
L 149.540943 60.755085 
L 142.122171 60.898971 
L 139.220248 60.861168 
L 138.282145 58.915902 
L 136.923664 57.101886 
L 135.419457 55.052753 
L 135.034745 54.286566 
L 134.750356 53.206681 
L 134.486703 52.185307 
L 134.005261 49.871198 
L 133.692279 48.547343 
L 133.473176 47.636768 
L 133.207727 46.403875 
L 133.263775 46.403331 
L 141.865884 46.345805 
L 141.754654 41.463993 
L 149.179407 41.288577 
L 149.327181 51.049161 
L 149.327181 51.049161 
" clip-path="url(#p696fd57a73)" style="fill: none; stroke: #1f77b4; stroke-width: 1.5"/>
    <path d="M 183.243635 177.702709 
L 178.420802 177.819324 
L 178.488869 181.45441 
L 173.650921 181.57482 
L 173.636427 179.476443 
L 172.218394 179.509516 
L 172.226137 179.445682 
L 171.999547 167.035667 
L 179.258278 166.881044 
L 183.060231 166.798937 
L 183.243635 177.702709 
L 183.243635 177.702709 
" clip-path="url(#p696fd57a73)" style="fill: none; stroke: #1f77b4; stroke-width: 1.5"/>
    <path d="M 195.973265 166.616602 
L 195.913392 167.562913 
L 196.105514 168.88513 
L 196.55089 169.837014 
L 197.158172 170.335327 
L 197.613889 170.356892 
L 198.094446 170.279519 
L 198.402111 170.467644 
L 198.533334 170.697504 
L 198.47853 171.088082 
L 198.317772 171.371115 
L 197.411375 171.613637 
L 196.937444 171.860125 
L 196.637011 172.244925 
L 196.384691 173.703208 
L 197.059904 175.039308 
L 197.822061 175.790044 
L 197.986913 175.950462 
L 197.277429 176.151408 
L 197.575467 176.197872 
L 197.510992 176.248864 
L 197.42372 177.550649 
L 196.632467 177.596166 
L 194.151978 177.662767 
L 193.685666 177.721701 
L 193.584481 177.670474 
L 193.338628 177.412437 
L 192.885358 177.35723 
L 192.888314 177.52398 
L 183.243635 177.702709 
L 183.168051 172.855243 
L 183.153132 166.795002 
L 193.871933 166.62067 
L 195.973265 166.616602 
L 195.973265 166.616602 
" clip-path="url(#p696fd57a73)" style="fill: none; stroke: #1f77b4; stroke-width: 1.5"/>
    <path d="M 197.576594 177.521384 
L 198.05207 179.058617 
L 198.235872 179.296674 
L 199.283375 180.019268 
L 200.154921 180.460333 
L 201.239598 180.754099 
L 201.611665 180.644956 
L 201.916093 180.54276 
L 202.289622 178.536321 
L 201.961375 180.589065 
L 199.934208 181.298351 
L 199.593111 181.446813 
L 199.620254 181.751819 
L 198.857375 182.092935 
L 198.613852 182.568389 
L 198.490324 183.33944 
L 198.639915 183.826051 
L 198.790825 184.286363 
L 198.746729 184.295989 
L 198.60133 184.322505 
L 198.679081 184.419484 
L 199.0201 184.5621 
L 199.140193 184.596419 
L 199.711038 184.537902 
L 200.185678 184.293633 
L 200.241372 183.834787 
L 200.127906 183.626216 
L 199.905286 183.338473 
L 199.808094 183.388038 
L 199.473596 182.668832 
L 199.484394 182.227128 
L 199.624979 182.12423 
L 200.010526 182.127656 
L 200.087794 182.33346 
L 200.250689 182.571592 
L 200.40084 182.715292 
L 201.046732 183.458994 
L 201.454518 183.765762 
L 201.835786 184.1769 
L 202.882766 185.747487 
L 202.702871 185.90203 
L 191.543596 186.071625 
L 183.376948 186.1804 
L 183.46703 191.022252 
L 178.570604 186.119222 
L 178.512976 177.815992 
L 190.604526 177.553066 
L 192.888314 177.52398 
L 192.886171 177.430358 
L 192.885358 177.35723 
L 193.409285 177.442672 
L 193.685666 177.721701 
L 194.648096 177.662773 
L 195.987421 177.596196 
L 197.576594 177.521384 
L 197.576594 177.521384 
" clip-path="url(#p696fd57a73)" style="fill: none; stroke: #1f77b4; stroke-width: 1.5"/>
    <path d="M 159.17503 36.359918 
L 152.400862 36.40026 
L 148.089198 36.400055 
L 145.021949 26.934489 
L 144.409928 24.02129 
L 144.244665 22.166108 
L 149.967045 22.232141 
L 149.873694 22.130156 
L 148.184687 20.124796 
L 148.013338 19.8 
L 148.05836 19.800413 
L 153.93131 19.860598 
L 153.887035 19.945439 
L 153.902714 20.154193 
L 154.32021 20.920965 
L 154.515958 21.09952 
L 154.54383 21.706249 
L 154.486348 21.705434 
L 154.54719 22.357877 
L 154.517323 22.360311 
L 154.493345 22.382322 
L 154.499827 22.438281 
L 154.740837 22.74041 
L 154.831102 22.824568 
L 154.821167 23.05425 
L 154.802237 23.054902 
L 154.781834 23.055605 
L 155.97701 26.93537 
L 157.598987 29.371757 
L 158.655882 30.570598 
L 158.770822 30.672209 
L 158.92384 30.545344 
L 158.53583 30.93958 
L 157.758169 31.010144 
L 157.807814 31.762227 
L 158.106069 32.331721 
L 158.049471 32.332957 
L 157.820274 32.334488 
L 157.905951 32.766645 
L 159.041201 36.135532 
L 159.17503 36.359918 
L 159.17503 36.359918 
" clip-path="url(#p696fd57a73)" style="fill: none; stroke: #1f77b4; stroke-width: 1.5"/>
    <path d="M 110.520738 56.46602 
L 106.495046 56.526097 
L 106.194987 56.714055 
L 103.153659 56.373372 
L 103.144352 55.98522 
L 92.970496 56.170966 
L 92.970493 56.170545 
L 93.051901 50.473034 
L 93.199949 46.525816 
L 97.918829 46.520796 
L 97.92609 39.164798 
L 95.522276 37.619819 
L 95.531097 36.869815 
L 96.944372 36.949988 
L 97.088324 37.279985 
L 97.328008 37.327502 
L 97.623194 37.177137 
L 97.811029 37.04297 
L 98.748665 37.131502 
L 99.046881 37.35876 
L 100.598022 37.184 
L 101.112956 37.447755 
L 101.284426 37.723508 
L 101.32061 38.241793 
L 101.106503 38.741844 
L 100.607436 39.210099 
L 100.065405 39.619906 
L 100.193309 40.198243 
L 100.537246 40.645717 
L 101.114244 40.771843 
L 101.468877 40.893938 
L 101.437724 41.111465 
L 101.09557 41.446896 
L 101.075387 41.823067 
L 101.440152 42.316032 
L 102.072571 42.465411 
L 103.040355 42.520071 
L 103.087985 42.251076 
L 103.106567 42.034362 
L 103.602949 41.747802 
L 104.049527 41.71941 
L 104.606034 42.067163 
L 104.843864 42.216647 
L 104.965223 42.049638 
L 105.130862 41.963426 
L 105.484553 41.829009 
L 105.760988 41.683336 
L 105.850205 41.833313 
L 105.893714 41.985616 
L 106.040536 42.740538 
L 105.822916 42.894659 
L 105.717925 43.08887 
L 105.828807 43.273158 
L 106.065283 43.33938 
L 106.532417 43.145985 
L 109.317894 50.261261 
L 109.269933 50.221379 
L 109.183845 50.150517 
L 109.182005 50.288113 
L 109.251247 53.44511 
L 110.437804 53.488591 
L 110.520738 56.46602 
L 110.520738 56.46602 
" clip-path="url(#p696fd57a73)" style="fill: none; stroke: #1f77b4; stroke-width: 1.5"/>
    <path d="M 102.310648 31.883795 
L 102.536853 32.035544 
L 103.992485 32.925025 
L 104.0332 32.848956 
L 104.113072 32.625269 
L 103.1251 32.006033 
L 103.165583 29.598447 
L 106.04132 29.684113 
L 105.803661 33.775059 
L 105.741057 34.015599 
L 109.044241 36.077135 
L 110.615243 36.936815 
L 123.525381 36.970754 
L 121.50457 40.520897 
L 120.790776 41.735023 
L 120.327809 41.741874 
L 119.555382 43.019946 
L 117.579132 44.246891 
L 117.580374 46.650841 
L 113.294451 46.555082 
L 113.103437 46.166495 
L 112.691068 46.00678 
L 113.033332 55.917625 
L 113.030465 56.249494 
L 112.891175 56.426945 
L 110.520738 56.46602 
L 110.454424 54.034753 
L 110.275548 53.427599 
L 109.248685 53.347563 
L 109.183845 50.150517 
L 109.269933 50.221379 
L 109.317894 50.261261 
L 106.532417 43.145985 
L 106.472202 43.192428 
L 106.242972 43.31192 
L 105.806003 43.24781 
L 105.725389 43.006446 
L 105.911983 42.85864 
L 106.062698 42.689839 
L 106.035727 42.361626 
L 105.702749 41.649256 
L 105.575712 41.632513 
L 105.293525 41.954443 
L 104.965223 42.049638 
L 104.777763 42.223442 
L 104.592472 42.050791 
L 104.313554 41.867585 
L 103.803438 41.697552 
L 103.278607 41.884602 
L 103.073925 42.208284 
L 103.057807 42.485801 
L 102.872945 42.618467 
L 102.332557 42.509952 
L 101.309278 42.210883 
L 101.044019 41.665188 
L 101.191587 41.213241 
L 101.468877 40.893938 
L 101.313825 40.785286 
L 100.537246 40.645717 
L 100.406829 40.53659 
L 100.099692 39.882845 
L 100.088987 39.47923 
L 100.299129 39.324171 
L 100.960728 38.914988 
L 101.258187 38.446819 
L 101.327258 37.943239 
L 101.167201 37.499551 
L 100.868839 37.296369 
L 100.254719 37.110258 
L 99.691051 37.145798 
L 98.937264 37.337984 
L 98.432679 37.026564 
L 98.419315 37.044327 
L 98.223515 37.137294 
L 97.645508 37.141233 
L 97.501445 37.292585 
L 97.088324 37.279985 
L 96.960185 37.046198 
L 96.915476 36.15367 
L 96.873825 35.133457 
L 96.812447 34.322025 
L 96.709404 33.704979 
L 96.53557 33.298996 
L 96.399474 33.210692 
L 96.048931 33.251987 
L 95.853102 33.637058 
L 95.267379 35.1235 
L 94.682076 35.039879 
L 94.477164 35.201887 
L 94.122595 35.32486 
L 93.358323 35.288128 
L 92.921231 35.362149 
L 91.888836 34.730742 
L 91.910309 34.71712 
L 95.952078 32.144397 
L 95.864039 32.067501 
L 95.406619 31.528653 
L 92.618667 27.151611 
L 97.312959 27.054674 
L 97.49963 24.859095 
L 98.447094 24.931863 
L 98.407573 27.16119 
L 98.468486 27.161695 
L 100.244917 27.1772 
L 101.561502 30.589425 
L 101.728161 31.014967 
L 101.799713 30.978352 
L 101.931975 30.894097 
L 101.971453 30.997285 
L 102.310648 31.883795 
L 102.310648 31.883795 
" clip-path="url(#p696fd57a73)" style="fill: none; stroke: #1f77b4; stroke-width: 1.5"/>
    <path d="M 133.207727 46.403875 
L 133.470381 47.619774 
L 133.829617 49.124426 
L 134.173236 50.633133 
L 134.576707 52.559477 
L 134.628506 52.748149 
L 133.952996 52.383188 
L 133.371688 52.185252 
L 132.532775 51.985681 
L 131.987854 52.085773 
L 131.136187 52.505028 
L 131.010768 52.692718 
L 130.60309 53.426706 
L 130.264864 53.596982 
L 129.573941 53.807973 
L 128.712898 53.79561 
L 126.171021 52.379628 
L 125.389164 52.115526 
L 124.867659 51.669874 
L 124.353825 51.180304 
L 123.750571 51.040704 
L 123.359967 51.163196 
L 122.964836 51.424376 
L 122.625719 51.429594 
L 122.676127 53.858371 
L 120.840913 53.884559 
L 120.739445 52.6739 
L 120.203102 52.68202 
L 120.17612 51.464311 
L 112.823568 51.556903 
L 112.691068 46.00678 
L 112.96119 46.074204 
L 113.206134 46.308487 
L 113.322528 46.702999 
L 117.628958 46.648798 
L 117.644922 44.208305 
L 119.651107 42.954586 
L 119.789897 42.71391 
L 120.327809 41.741874 
L 120.825577 41.734388 
L 123.525381 36.970754 
L 131.343114 36.98602 
L 131.709328 39.721652 
L 132.04154 41.19333 
L 133.207727 46.403875 
L 133.207727 46.403875 
" clip-path="url(#p696fd57a73)" style="fill: none; stroke: #1f77b4; stroke-width: 1.5"/>
    <path d="M 134.628506 52.748149 
L 135.290122 54.834396 
L 135.788665 55.537004 
L 137.902068 58.404746 
L 138.590709 59.319499 
L 139.220248 60.861168 
L 139.237974 60.922872 
L 121.901416 61.153597 
L 117.854517 57.41626 
L 117.767728 56.35636 
L 112.958073 56.425236 
L 113.01354 56.318496 
L 113.013229 55.856353 
L 112.887944 55.153514 
L 112.823568 51.556903 
L 120.17612 51.464311 
L 120.268668 52.68193 
L 120.817331 52.774334 
L 120.947272 53.882912 
L 122.676127 53.858371 
L 122.625719 51.429594 
L 123.084762 51.422685 
L 123.457026 51.108561 
L 123.892903 51.054102 
L 124.620867 51.325119 
L 125.389164 52.115526 
L 126.0753 52.359302 
L 126.900412 52.599403 
L 128.217785 53.437112 
L 128.860148 53.834037 
L 129.859256 53.759301 
L 130.60309 53.426706 
L 130.939078 52.863247 
L 131.195659 52.453857 
L 131.751799 52.179681 
L 132.454133 51.987646 
L 133.052257 52.081986 
L 134.380622 52.568304 
L 134.628506 52.748149 
L 134.628506 52.748149 
" clip-path="url(#p696fd57a73)" style="fill: none; stroke: #1f77b4; stroke-width: 1.5"/>
    <path d="M 110.520738 56.46602 
L 112.958073 56.425236 
L 113.054281 59.045835 
L 113.226261 59.512783 
L 112.865584 59.45264 
L 113.268823 59.618737 
L 113.311118 59.911273 
L 113.231751 60.016268 
L 113.98186 60.819412 
L 114.586381 61.267366 
L 114.399404 61.267971 
L 113.572297 61.280813 
L 115.55433 66.449431 
L 115.612878 73.399157 
L 115.565321 73.399473 
L 115.320199 73.401105 
L 115.352383 74.624503 
L 115.718993 74.617405 
L 115.742777 75.824532 
L 115.696522 75.82533 
L 98.823586 76.119805 
L 98.5457 66.393888 
L 94.271733 66.477223 
L 93.691786 66.48686 
L 93.570323 59.475378 
L 93.587996 59.278038 
L 93.658189 56.158914 
L 103.14593 56.043442 
L 103.158231 56.589075 
L 105.283343 56.643195 
L 106.31961 56.634365 
L 106.677689 56.529878 
L 110.520738 56.46602 
L 110.520738 56.46602 
" clip-path="url(#p696fd57a73)" style="fill: none; stroke: #1f77b4; stroke-width: 1.5"/>
    <path d="M 139.237974 60.922872 
L 139.270071 61.524367 
L 139.379342 64.918068 
L 139.286892 65.97754 
L 138.205188 68.246312 
L 138.204964 68.63336 
L 138.457017 70.123723 
L 138.514354 70.628454 
L 138.429217 70.629051 
L 123.038604 70.843373 
L 123.145614 75.689044 
L 115.742777 75.824532 
L 115.718993 74.617405 
L 115.695511 74.618384 
L 115.352383 74.624503 
L 115.320199 73.401105 
L 115.672827 73.395575 
L 115.433069 66.115858 
L 113.572297 61.280813 
L 113.610395 61.280245 
L 114.586381 61.267366 
L 114.507444 61.209225 
L 113.423011 60.291433 
L 113.251425 59.990543 
L 113.325552 59.778409 
L 113.158409 59.57546 
L 112.865584 59.45264 
L 113.226261 59.512783 
L 113.000832 58.763259 
L 112.958073 56.425236 
L 113.001295 56.424131 
L 117.829251 56.355189 
L 117.898327 57.456292 
L 121.901416 61.153597 
L 139.237974 60.922872 
L 139.237974 60.922872 
" clip-path="url(#p696fd57a73)" style="fill: none; stroke: #1f77b4; stroke-width: 1.5"/>
    <path d="M 98.823586 76.119805 
L 83.67744 76.420611 
L 83.73858 78.741011 
L 83.623077 78.741725 
L 78.888672 78.664454 
L 78.829851 76.458948 
L 78.770119 76.462077 
L 69.756001 76.700194 
L 69.763532 76.586977 
L 69.573398 71.895482 
L 68.950987 71.916925 
L 68.825163 64.430608 
L 68.928004 62.194049 
L 70.813789 62.144787 
L 71.236364 65.195477 
L 71.252721 66.987992 
L 83.415216 66.491108 
L 83.407679 65.854856 
L 89.984355 61.729875 
L 93.569804 61.62622 
L 93.572523 61.728037 
L 93.691786 66.48686 
L 98.548618 66.495991 
L 98.823586 76.119805 
L 98.823586 76.119805 
" clip-path="url(#p696fd57a73)" style="fill: none; stroke: #1f77b4; stroke-width: 1.5"/>
    <path d="M 92.275201 90.060233 
L 90.062821 89.076466 
L 83.927844 86.010841 
L 83.67744 76.420611 
L 83.805473 76.418846 
L 91.603483 76.25931 
L 91.604967 76.344778 
L 92.01721 89.730601 
L 92.275201 90.060233 
L 92.275201 90.060233 
" clip-path="url(#p696fd57a73)" style="fill: none; stroke: #1f77b4; stroke-width: 1.5"/>
    <path d="M 116.126158 92.465408 
L 109.122265 91.404399 
L 108.316759 91.288198 
L 106.732581 90.924243 
L 104.274864 90.594734 
L 101.648887 90.625568 
L 93.653486 90.670789 
L 92.897245 90.393497 
L 92.1657 89.956278 
L 91.946996 89.592667 
L 91.852928 88.866713 
L 91.603483 76.25931 
L 115.709692 75.825103 
L 116.126158 92.465408 
L 116.126158 92.465408 
" clip-path="url(#p696fd57a73)" style="fill: none; stroke: #1f77b4; stroke-width: 1.5"/>
    <path d="M 144.244665 22.166108 
L 144.547203 25.129822 
L 146.106653 30.623166 
L 148.195059 36.496131 
L 149.031119 36.581505 
L 149.107761 41.289841 
L 149.047871 41.290898 
L 141.754654 41.463993 
L 141.865884 46.345805 
L 133.180451 46.282846 
L 132.614106 43.855349 
L 132.42007 42.924026 
L 132.137383 41.596167 
L 131.837387 40.344903 
L 131.416804 37.915767 
L 131.337973 36.892876 
L 131.941526 36.816865 
L 132.010197 28.121233 
L 132.099136 25.867176 
L 132.159678 22.401576 
L 137.526631 22.250276 
L 144.244665 22.166108 
L 144.244665 22.166108 
" clip-path="url(#p696fd57a73)" style="fill: none; stroke: #1f77b4; stroke-width: 1.5"/>
    <path d="M 121.025021 80.590062 
L 122.905404 85.424124 
L 123.352366 85.41708 
L 123.439234 86.426741 
L 123.514536 86.635801 
L 123.446347 86.640433 
L 123.200315 86.6414 
L 123.391936 87.257732 
L 123.428556 89.07251 
L 124.291301 89.05739 
L 124.772617 90.267843 
L 124.716377 90.268422 
L 124.616776 90.294894 
L 124.626393 90.354928 
L 124.680656 90.717389 
L 124.752224 91.482154 
L 125.158765 91.494162 
L 125.545517 92.640174 
L 117.082675 92.646525 
L 116.126158 92.465408 
L 115.709692 75.825103 
L 115.742777 75.824532 
L 119.158849 75.761571 
L 121.025021 80.590062 
L 121.025021 80.590062 
" clip-path="url(#p696fd57a73)" style="fill: none; stroke: #1f77b4; stroke-width: 1.5"/>
    <path d="M 142.590915 77.680563 
L 142.642554 80.293681 
L 138.095702 80.348959 
L 128.375736 80.467871 
L 121.025021 80.590062 
L 119.158849 75.761571 
L 119.176942 75.761251 
L 123.145614 75.689044 
L 123.038604 70.843373 
L 138.51617 70.657488 
L 138.821821 72.416506 
L 139.156594 73.634744 
L 140.103764 75.271929 
L 140.648433 75.751874 
L 140.870329 75.92512 
L 141.632584 77.345302 
L 142.364906 77.4856 
L 142.590915 77.680563 
L 142.590915 77.680563 
" clip-path="url(#p696fd57a73)" style="fill: none; stroke: #1f77b4; stroke-width: 1.5"/>
    <path d="M 145.144011 80.260667 
L 145.143251 80.311321 
L 145.516963 80.831632 
L 146.204342 81.464639 
L 146.699183 82.767055 
L 148.277522 83.348153 
L 149.063911 83.969652 
L 149.274943 84.43945 
L 149.320965 85.320114 
L 149.64499 85.742073 
L 150.695102 86.704197 
L 151.299105 86.818607 
L 152.324191 86.957346 
L 152.458135 87.051075 
L 153.039615 88.087522 
L 153.466012 88.78302 
L 154.014919 89.63301 
L 154.269262 90.030746 
L 154.540857 91.423961 
L 152.998445 92.185071 
L 152.003921 92.228357 
L 149.721489 92.241038 
L 147.770687 92.283509 
L 147.770015 92.243914 
L 147.765778 91.920713 
L 145.339114 91.985004 
L 145.352684 92.675379 
L 144.9879 92.358239 
L 138.073139 92.459455 
L 138.071647 92.394765 
L 135.476543 92.44887 
L 135.477089 92.475912 
L 135.408689 92.519395 
L 125.545517 92.640174 
L 125.152336 91.475111 
L 124.696427 91.483003 
L 124.695373 91.423392 
L 124.566251 89.772589 
L 124.253394 89.058046 
L 123.428556 89.07251 
L 123.302625 86.907978 
L 123.200315 86.6414 
L 123.272472 86.64238 
L 123.514536 86.635801 
L 123.50743 86.616073 
L 123.367511 86.198577 
L 123.352366 85.41708 
L 122.889246 85.424343 
L 121.025021 80.590062 
L 142.642554 80.293681 
L 142.594449 77.939589 
L 142.590915 77.680563 
L 142.689274 77.762456 
L 143.097686 78.296327 
L 143.83365 79.216163 
L 144.435377 79.336401 
L 144.875977 79.555562 
L 145.144011 80.260667 
L 145.144011 80.260667 
" clip-path="url(#p696fd57a73)" style="fill: none; stroke: #1f77b4; stroke-width: 1.5"/>
    <path d="M 140.81338 109.577625 
L 134.712531 109.598537 
L 134.711175 109.503746 
L 124.403481 109.67811 
L 124.40569 109.816528 
L 123.128407 109.711538 
L 122.43457 109.735634 
L 116.49078 109.73835 
L 116.271603 105.054429 
L 116.215539 104.265647 
L 116.251027 103.477728 
L 116.126158 92.465408 
L 116.8103 92.602528 
L 118.413783 92.753079 
L 135.477935 92.517834 
L 135.476543 92.44887 
L 135.650335 92.504607 
L 135.705835 94.945198 
L 135.666916 94.94527 
L 133.162809 95.053398 
L 133.195161 96.899475 
L 133.388228 102.252856 
L 135.663602 102.225447 
L 135.698453 104.103091 
L 135.523436 104.009329 
L 135.621774 104.650187 
L 138.267231 104.612211 
L 138.386673 105.546972 
L 140.764878 106.823405 
L 140.776035 107.203256 
L 140.81338 109.577625 
L 140.81338 109.577625 
" clip-path="url(#p696fd57a73)" style="fill: none; stroke: #1f77b4; stroke-width: 1.5"/>
    <path d="M 158.031635 94.538088 
L 157.993916 94.713164 
L 156.995329 95.159768 
L 156.856949 95.679466 
L 157.721705 95.66607 
L 157.705923 95.740939 
L 157.571826 96.316474 
L 157.388493 98.704828 
L 157.793782 99.455273 
L 158.223322 99.972631 
L 158.514314 100.940334 
L 158.8745 101.224757 
L 159.992925 101.600412 
L 160.770486 101.897144 
L 162.035378 102.991495 
L 164.107071 103.450243 
L 164.197398 103.554571 
L 164.316048 104.425665 
L 164.422955 105.698677 
L 164.596513 105.95174 
L 164.80071 106.128368 
L 165.405282 106.741846 
L 166.712797 108.98863 
L 165.422288 109.005329 
L 164.245861 109.019731 
L 164.247519 109.108957 
L 164.251649 109.320251 
L 162.642601 109.330021 
L 162.528269 109.010713 
L 143.267371 109.367982 
L 143.196056 109.436377 
L 142.48125 109.551799 
L 142.251243 109.591634 
L 140.81338 109.577625 
L 140.764878 106.823405 
L 138.282866 105.491222 
L 138.267231 104.612211 
L 135.535154 104.513411 
L 135.523436 104.009329 
L 135.698453 104.103091 
L 135.663602 102.225447 
L 133.318451 102.176173 
L 133.178612 94.983625 
L 135.705835 94.945198 
L 135.705 94.908027 
L 135.649027 92.449685 
L 143.268085 92.392764 
L 145.047893 92.411302 
L 145.352684 92.675379 
L 145.339114 91.985004 
L 147.765778 91.920713 
L 147.770687 92.283509 
L 153.209388 92.134352 
L 153.932987 91.778918 
L 154.678361 91.321987 
L 155.139537 91.34422 
L 155.407238 91.153635 
L 155.815123 90.946392 
L 156.042986 91.016863 
L 156.538932 91.430964 
L 156.89652 91.677555 
L 157.428199 92.325289 
L 157.607701 92.779904 
L 157.818669 93.708952 
L 158.031635 94.538088 
L 158.031635 94.538088 
" clip-path="url(#p696fd57a73)" style="fill: none; stroke: #1f77b4; stroke-width: 1.5"/>
    <path d="M 92.275201 90.060233 
L 92.950853 90.418733 
L 93.863265 90.715066 
L 94.766772 90.762877 
L 104.975093 90.648721 
L 107.364487 91.038684 
L 109.304209 91.417961 
L 116.126679 92.555168 
L 116.110498 95.699714 
L 116.123826 96.44412 
L 116.410599 106.500171 
L 116.438514 107.770885 
L 116.625403 114.825666 
L 116.683537 117.093289 
L 117.029464 117.092118 
L 117.09131 119.517932 
L 116.746649 119.527207 
L 116.748374 119.590261 
L 116.904483 124.380515 
L 116.795741 124.382552 
L 99.853321 124.715439 
L 99.853321 124.71468 
L 99.742478 120.448231 
L 99.479505 110.07567 
L 99.128831 95.557388 
L 84.174203 95.833163 
L 83.933911 86.159914 
L 86.042333 87.049267 
L 92.275201 90.060233 
L 92.275201 90.060233 
" clip-path="url(#p696fd57a73)" style="fill: none; stroke: #1f77b4; stroke-width: 1.5"/>
    <path d="M 126.591329 121.779331 
L 126.612808 122.632864 
L 126.522123 122.634186 
L 124.094428 122.649288 
L 124.093414 122.57627 
L 124.08727 122.298853 
L 120.467404 122.240379 
L 120.423408 121.041804 
L 120.345327 121.069515 
L 116.8411 122.382576 
L 116.837386 122.323114 
L 116.746649 119.527207 
L 116.746685 119.527206 
L 117.090046 119.418624 
L 117.029464 117.092118 
L 116.680839 116.991946 
L 116.493139 109.825611 
L 126.225516 109.825823 
L 126.591329 121.779331 
L 126.591329 121.779331 
" clip-path="url(#p696fd57a73)" style="fill: none; stroke: #1f77b4; stroke-width: 1.5"/>
    <path d="M 140.81338 109.577625 
L 142.251243 109.591634 
L 141.944198 109.694143 
L 141.020846 110.309793 
L 140.818184 110.735129 
L 140.807887 111.261029 
L 140.736578 112.088047 
L 140.461375 112.101773 
L 140.519577 114.297875 
L 140.847315 114.371509 
L 141.000517 122.161782 
L 140.944219 122.16214 
L 133.772788 122.159049 
L 133.734634 121.655952 
L 131.698087 121.684256 
L 126.591329 121.779331 
L 126.222281 109.663232 
L 132.722305 109.547171 
L 134.711175 109.503746 
L 134.712531 109.598537 
L 140.81338 109.577625 
L 140.81338 109.577625 
" clip-path="url(#p696fd57a73)" style="fill: none; stroke: #1f77b4; stroke-width: 1.5"/>
    <path d="M 167.592132 110.883578 
L 167.485167 111.533521 
L 167.250005 114.787612 
L 167.456115 116.075968 
L 167.851101 117.675464 
L 168.375966 118.730522 
L 168.847664 121.808274 
L 169.056458 125.514447 
L 169.09239 128.872485 
L 168.829995 129.548789 
L 168.797698 129.866724 
L 166.923756 129.904421 
L 166.885091 128.338106 
L 148.514358 128.736615 
L 147.26198 128.987624 
L 144.160872 129.277586 
L 143.670264 129.405236 
L 143.658913 128.772289 
L 142.4906 128.737684 
L 142.477739 128.678472 
L 142.494073 126.314891 
L 142.196048 125.834644 
L 141.21826 123.979597 
L 141.330379 123.97796 
L 141.35669 123.977454 
L 141.040753 123.055362 
L 140.965457 121.490109 
L 141.001228 120.34614 
L 140.734642 114.295113 
L 140.519577 114.297875 
L 140.475814 112.580585 
L 140.461375 112.101773 
L 140.80074 112.005747 
L 140.878827 110.573429 
L 141.146795 110.154979 
L 141.534486 109.867839 
L 142.795515 109.461444 
L 144.165355 109.314482 
L 156.05523 109.105743 
L 156.31218 109.099981 
L 162.634277 109.009116 
L 162.642601 109.330021 
L 164.251649 109.320251 
L 164.245861 109.019731 
L 166.733096 109.067884 
L 167.193236 110.55577 
L 167.592132 110.883578 
L 167.592132 110.883578 
" clip-path="url(#p696fd57a73)" style="fill: none; stroke: #1f77b4; stroke-width: 1.5"/>
    <path d="M 126.591329 121.779331 
L 130.867513 121.698074 
L 133.759336 121.656943 
L 133.776017 122.269356 
L 141.001867 122.225107 
L 141.120884 123.49375 
L 141.302243 123.860567 
L 141.35669 123.977454 
L 141.330379 123.97796 
L 141.21826 123.979597 
L 142.494073 126.314891 
L 142.496112 130.388903 
L 138.834597 131.489471 
L 138.833696 131.451956 
L 138.742598 131.307799 
L 135.178565 131.378829 
L 135.204172 132.476918 
L 134.539906 132.609316 
L 131.076559 132.725085 
L 131.103806 133.682361 
L 130.173432 133.885451 
L 125.578412 133.955002 
L 125.581317 134.04477 
L 125.605489 135.433595 
L 117.124432 137.942299 
L 116.8411 122.382576 
L 118.422727 121.786653 
L 120.423408 121.041804 
L 120.433656 121.078284 
L 120.470662 122.35867 
L 124.08727 122.298853 
L 124.156956 122.672868 
L 126.612808 122.632864 
L 126.609588 122.52812 
L 126.591329 121.779331 
L 126.591329 121.779331 
" clip-path="url(#p696fd57a73)" style="fill: none; stroke: #1f77b4; stroke-width: 1.5"/>
    <path d="M 165.887671 65.230972 
L 162.081756 65.379778 
L 155.358224 65.513735 
L 154.018503 62.399153 
L 153.420947 60.683979 
L 149.539084 60.680171 
L 149.327181 51.049161 
L 149.381371 51.048246 
L 161.191491 50.712825 
L 162.00054 50.424151 
L 162.902997 50.004551 
L 163.138817 50.082593 
L 163.347459 49.894987 
L 163.141864 50.225735 
L 163.240486 50.556678 
L 163.391239 53.370794 
L 163.901809 54.580913 
L 165.034504 56.263513 
L 164.90135 56.115213 
L 164.772687 56.240755 
L 165.005585 56.413885 
L 165.126955 56.247122 
L 166.08303 57.108607 
L 166.338535 57.223464 
L 167.672524 57.752417 
L 168.97174 58.100674 
L 170.307307 58.374224 
L 170.36697 58.396213 
L 170.443037 57.313383 
L 170.758431 56.436015 
L 170.846028 56.03001 
L 170.6542 55.917692 
L 170.46231 56.009388 
L 170.430916 56.234451 
L 170.453654 56.347039 
L 170.434927 55.973191 
L 170.662726 55.873167 
L 170.887079 56.006741 
L 170.904776 56.253724 
L 170.511853 57.217503 
L 170.40039 58.13697 
L 170.534463 59.090469 
L 170.850861 59.556071 
L 170.82384 59.883042 
L 170.551486 60.191741 
L 169.976495 60.466746 
L 168.95006 61.162721 
L 168.293317 61.912233 
L 167.869839 62.144888 
L 167.305034 62.203477 
L 166.346811 61.990234 
L 166.212871 62.298978 
L 166.26821 61.957065 
L 165.970045 61.728474 
L 165.946481 61.390569 
L 166.148292 61.182585 
L 166.335431 61.216583 
L 166.98037 61.5793 
L 167.456287 61.531168 
L 167.998796 61.28752 
L 168.464522 60.848926 
L 168.714338 60.342658 
L 168.611152 60.016563 
L 168.327257 59.85886 
L 167.908945 59.863968 
L 165.522162 60.334082 
L 165.29454 60.661776 
L 165.274216 61.031482 
L 165.428846 61.319345 
L 165.640881 61.71019 
L 165.599536 62.178428 
L 165.887004 62.238617 
L 165.582546 62.238438 
L 165.593119 63.205558 
L 165.887671 65.230972 
L 165.887671 65.230972 
" clip-path="url(#p696fd57a73)" style="fill: none; stroke: #1f77b4; stroke-width: 1.5"/>
    <path d="M 142.882261 145.127463 
L 138.438262 146.996001 
L 138.31087 146.862829 
L 136.441381 147.713519 
L 134.348251 148.553497 
L 134.360621 148.9128 
L 129.503276 150.960097 
L 129.500759 150.773304 
L 117.504675 155.843309 
L 117.492043 155.747212 
L 117.124432 137.942299 
L 118.907335 137.445906 
L 125.605489 135.433595 
L 125.641477 133.953998 
L 130.802538 133.772441 
L 131.09913 133.626381 
L 131.074058 132.643984 
L 131.124829 132.649556 
L 134.905068 132.568693 
L 135.201241 132.378156 
L 135.178565 131.378829 
L 135.223565 131.378099 
L 138.829711 131.311767 
L 138.834597 131.489471 
L 138.886443 131.473639 
L 142.567571 130.367621 
L 142.575318 130.420105 
L 142.882261 145.127463 
L 142.882261 145.127463 
" clip-path="url(#p696fd57a73)" style="fill: none; stroke: #1f77b4; stroke-width: 1.5"/>
    <path d="M 168.797698 129.866724 
L 168.631228 130.388517 
L 167.894512 131.230721 
L 167.169499 131.756511 
L 166.696428 132.15514 
L 165.08615 134.992184 
L 164.41209 135.337457 
L 163.02252 135.532939 
L 161.558661 136.080771 
L 160.497428 136.257767 
L 157.712258 136.89484 
L 157.166568 136.829098 
L 156.117032 137.860252 
L 156.088123 137.780503 
L 154.516671 139.058812 
L 154.195386 140.121017 
L 154.02494 140.652773 
L 154.209064 141.744396 
L 154.184362 142.415339 
L 153.00993 143.223775 
L 152.001291 143.52838 
L 151.23529 143.572708 
L 151.234826 143.432292 
L 146.720888 143.595436 
L 145.839702 143.875963 
L 142.882261 145.127463 
L 142.853279 145.052814 
L 142.548145 128.79058 
L 143.660573 128.857664 
L 143.670264 129.405236 
L 144.160872 129.277586 
L 151.015777 128.651766 
L 166.885091 128.338106 
L 166.923756 129.904421 
L 168.797698 129.866724 
L 168.797698 129.866724 
" clip-path="url(#p696fd57a73)" style="fill: none; stroke: #1f77b4; stroke-width: 1.5"/>
    <path d="M 181.704134 138.541748 
L 181.572542 138.159581 
L 178.741712 138.265864 
L 178.172763 138.183093 
L 177.973525 137.907997 
L 171.769155 137.966433 
L 171.679102 133.089393 
L 171.326106 133.092458 
L 171.261519 130.794101 
L 171.244201 129.828737 
L 168.797698 129.866724 
L 168.976805 129.096257 
L 169.119929 128.760069 
L 169.145695 123.478167 
L 175.901182 123.351937 
L 176.893482 123.256765 
L 177.040802 123.030492 
L 179.869389 122.793443 
L 180.079459 123.065039 
L 180.101728 123.433223 
L 179.944585 123.853942 
L 182.445737 123.718917 
L 182.771742 123.538097 
L 183.124245 123.584703 
L 183.387818 123.836708 
L 183.450178 124.196612 
L 183.286807 124.523078 
L 183.236891 124.56782 
L 183.239716 125.158547 
L 183.117104 125.164064 
L 183.11512 125.064744 
L 182.927737 124.866263 
L 182.676442 125.028582 
L 182.488022 125.418714 
L 182.511486 125.812226 
L 182.89639 126.893791 
L 183.252328 127.033793 
L 183.279797 128.296684 
L 182.73025 128.377817 
L 182.731988 128.411378 
L 183.008873 132.771927 
L 181.616998 132.840301 
L 181.370426 132.605204 
L 181.328446 132.267913 
L 181.508855 130.259127 
L 181.30311 129.861636 
L 181.324865 129.424301 
L 181.29155 129.123825 
L 181.090701 128.586878 
L 181.037081 128.249305 
L 180.945943 128.161881 
L 181.052476 127.84919 
L 181.101339 127.564149 
L 181.175277 127.336481 
L 181.381232 126.672293 
L 181.438947 125.852397 
L 181.22825 125.085552 
L 181.039648 124.445459 
L 179.953937 124.460053 
L 179.865716 124.967447 
L 179.571512 126.105869 
L 179.628987 126.664923 
L 179.949758 127.412313 
L 180.010776 127.626576 
L 180.125285 127.916004 
L 180.183988 128.043117 
L 180.183933 128.04312 
L 180.090698 128.114612 
L 180.211206 128.120049 
L 180.210705 128.145254 
L 180.129236 128.248972 
L 180.076344 128.447992 
L 180.154198 129.343729 
L 179.895881 129.499643 
L 179.761755 130.01227 
L 179.843406 130.64382 
L 180.049612 131.118065 
L 180.77816 132.089597 
L 180.870618 132.793979 
L 181.168941 133.475702 
L 181.680627 134.550958 
L 181.588085 135.289039 
L 181.531116 136.290216 
L 181.623317 136.604418 
L 182.06736 137.615041 
L 181.965577 138.006717 
L 181.704134 138.541748 
L 181.704134 138.541748 
" clip-path="url(#p696fd57a73)" style="fill: none; stroke: #1f77b4; stroke-width: 1.5"/>
    <path d="M 171.769155 137.966433 
L 171.373756 137.974272 
L 171.375254 138.061743 
L 171.662118 147.677312 
L 171.854728 147.674812 
L 171.85077 147.769491 
L 171.868362 152.530752 
L 169.390125 152.576163 
L 168.298299 151.382302 
L 168.116344 145.310275 
L 168.182944 145.309052 
L 168.434803 145.304657 
L 168.381667 144.090153 
L 168.166456 144.093436 
L 168.126077 139.240708 
L 168.008047 139.243204 
L 167.243342 139.257957 
L 167.210432 137.549679 
L 166.405033 137.457258 
L 165.600729 137.360979 
L 165.192373 136.266703 
L 165.24786 136.26581 
L 165.590348 136.211285 
L 165.280514 135.723408 
L 165.207467 135.771133 
L 164.743931 135.931448 
L 164.41209 135.337457 
L 165.08615 134.992184 
L 165.605084 134.196248 
L 167.037173 131.849378 
L 167.894512 131.230721 
L 168.631228 130.388517 
L 168.908095 129.866148 
L 171.246159 129.942241 
L 171.326106 133.092458 
L 171.679102 133.089393 
L 171.769155 137.966433 
L 171.769155 137.966433 
" clip-path="url(#p696fd57a73)" style="fill: none; stroke: #1f77b4; stroke-width: 1.5"/>
    <path d="M 96.934716 36.860993 
L 95.531097 36.869815 
L 95.522305 37.694875 
L 98.020836 39.286201 
L 97.918829 46.520796 
L 97.816699 46.517979 
L 93.107661 46.5921 
L 92.915629 55.852853 
L 85.771126 56.003258 
L 85.684366 56.247375 
L 83.47445 56.264876 
L 83.474882 56.185242 
L 83.518757 52.091256 
L 83.407019 52.091213 
L 78.632066 52.257215 
L 78.497183 54.678772 
L 77.605556 54.708119 
L 77.605595 54.700958 
L 77.614958 52.969417 
L 77.38442 52.969186 
L 77.401512 52.301409 
L 77.401505 52.301409 
L 73.761675 52.42721 
L 73.734554 53.020915 
L 71.284411 53.078062 
L 71.285125 52.968295 
L 71.287656 52.483843 
L 71.194723 52.486111 
L 70.446382 52.502665 
L 70.446837 52.429077 
L 70.343112 51.538757 
L 68.854853 51.577533 
L 68.85487 51.566557 
L 68.877603 44.196339 
L 75.452268 45.45277 
L 75.452284 45.452611 
L 76.401301 37.23585 
L 81.599657 37.053091 
L 81.888255 37.053593 
L 81.898233 38.18852 
L 83.642063 38.206971 
L 83.732659 34.580393 
L 84.390837 34.536858 
L 84.397862 34.141711 
L 86.48932 34.113498 
L 86.485556 34.558089 
L 87.193326 34.560261 
L 87.376829 35.147384 
L 88.450491 35.043893 
L 88.452773 34.513317 
L 91.470695 34.583402 
L 91.71743 34.839259 
L 91.961251 34.805654 
L 92.299495 34.968586 
L 93.190317 35.373037 
L 93.78599 35.309825 
L 94.357651 35.280415 
L 94.979999 35.033698 
L 95.446299 35.062055 
L 95.540159 34.562115 
L 95.746394 33.945566 
L 96.130015 33.184799 
L 96.196483 33.171123 
L 96.576823 33.357564 
L 96.709404 33.704979 
L 96.841829 34.882266 
L 96.934716 36.860993 
L 96.934716 36.860993 
" clip-path="url(#p696fd57a73)" style="fill: none; stroke: #1f77b4; stroke-width: 1.5"/>
    <path d="M 70.549849 46.018102 
L 70.549273 46.079341 
L 70.364274 46.077201 
L 70.363825 46.122912 
L 70.358357 46.67937 
L 69.625231 46.783804 
L 69.616196 47.689921 
L 69.658029 47.689567 
L 69.984455 47.685303 
L 69.98378 47.78927 
L 69.921297 47.891605 
L 69.614267 47.898586 
L 69.612039 48.12513 
L 72.707981 48.055102 
L 72.78924 48.930385 
L 73.093762 48.92678 
L 73.093534 49.008718 
L 73.093429 49.038824 
L 73.047784 49.038612 
L 72.788954 49.040995 
L 72.702097 49.496301 
L 72.282612 49.504646 
L 72.285741 49.698882 
L 72.115255 49.747707 
L 72.116351 49.794136 
L 72.122424 50.233248 
L 72.133735 50.232992 
L 72.339133 50.275164 
L 72.327022 50.479689 
L 70.346973 50.525044 
L 70.345283 51.172294 
L 70.45465 51.169754 
L 74.90705 51.068216 
L 75.356682 46.395341 
L 74.474896 46.458025 
L 74.479639 47.148213 
L 73.066882 47.177446 
L 73.066862 47.081671 
L 73.046096 45.896705 
L 72.96275 45.935882 
L 72.217654 45.956411 
L 70.549849 46.018102 
L 70.549849 46.018102 
" clip-path="url(#p696fd57a73)" style="fill: none; stroke: #1f77b4; stroke-width: 1.5"/>
    <path d="M 174.102387 94.017111 
L 174.00088 94.236135 
L 173.873581 94.716189 
L 173.776785 94.977459 
L 173.814173 95.902808 
L 174.037391 97.058538 
L 174.707091 99.206923 
L 175.046839 99.617571 
L 175.393592 100.315315 
L 175.491319 100.402982 
L 176.732244 101.038923 
L 177.214912 102.003239 
L 179.449324 106.293008 
L 179.452984 106.291175 
L 180.054201 106.113143 
L 180.270883 106.161206 
L 181.264388 104.219067 
L 185.073999 104.215914 
L 185.085314 105.017221 
L 185.071925 106.202745 
L 181.366078 106.281913 
L 181.366507 106.302124 
L 181.379153 106.897828 
L 186.958305 106.862077 
L 186.970673 107.410695 
L 185.957458 107.434035 
L 185.881959 107.660606 
L 185.865061 107.659438 
L 185.393601 107.618643 
L 181.508399 107.701875 
L 181.510081 107.7625 
L 181.502412 108.832793 
L 180.666122 108.835594 
L 180.565273 107.956615 
L 176.380665 108.066688 
L 176.380657 108.259904 
L 179.992495 108.270306 
L 180.01324 108.621283 
L 179.208652 109.43487 
L 176.000918 109.31077 
L 173.790022 109.105064 
L 173.306889 109.414415 
L 172.538769 110.032904 
L 171.322843 110.093254 
L 168.392251 110.145183 
L 167.592132 110.883578 
L 167.008365 110.266118 
L 166.396148 108.467746 
L 165.804652 107.421164 
L 165.614904 107.012406 
L 164.34798 105.400512 
L 164.197398 103.554571 
L 163.972099 103.253658 
L 161.733513 102.845596 
L 160.429773 101.681431 
L 159.732584 101.529571 
L 158.765736 101.177089 
L 158.447253 100.772048 
L 158.223322 99.972631 
L 157.716232 99.319876 
L 157.323139 98.361952 
L 157.721705 95.66607 
L 156.856949 95.679466 
L 156.877801 95.592806 
L 156.995329 95.159768 
L 157.993916 94.713164 
L 158.120281 94.53784 
L 172.964362 94.100373 
L 173.059954 93.946231 
L 173.080681 94.00035 
L 173.180596 94.14051 
L 174.102387 94.017111 
L 174.102387 94.017111 
" clip-path="url(#p696fd57a73)" style="fill: none; stroke: #1f77b4; stroke-width: 1.5"/>
    <path d="M 181.533026 108.776358 
L 181.533161 108.782428 
L 182.450335 108.853451 
L 182.433125 108.891455 
L 182.511163 109.281544 
L 183.920699 109.290236 
L 183.691712 109.335225 
L 183.694033 109.476516 
L 185.020454 109.48883 
L 182.364151 109.584802 
L 181.33976 109.832213 
L 181.30096 110.986885 
L 181.284948 112.317571 
L 179.920542 112.343935 
L 179.821224 112.828997 
L 179.470676 113.17727 
L 179.002983 113.35287 
L 178.183226 113.564732 
L 178.050731 113.884607 
L 178.054643 114.092947 
L 178.426231 114.181716 
L 178.439361 114.656397 
L 178.065931 114.73682 
L 178.286377 122.470577 
L 178.604102 122.787394 
L 178.622744 122.821169 
L 177.017303 123.064455 
L 176.83237 123.354752 
L 176.344302 123.34216 
L 169.005444 123.447233 
L 168.641744 120.290665 
L 168.206921 118.178493 
L 167.720268 117.384073 
L 167.527792 116.596854 
L 167.331652 115.427943 
L 167.245967 114.355287 
L 167.434801 112.066648 
L 167.592132 110.883578 
L 167.840944 110.589429 
L 168.569046 110.0727 
L 170.850004 110.078614 
L 172.230644 110.075036 
L 172.713289 109.934419 
L 173.790022 109.105064 
L 175.167638 109.182755 
L 177.678791 109.489294 
L 179.306403 109.435691 
L 180.010089 108.507976 
L 179.935265 108.223918 
L 176.380657 108.259904 
L 176.380665 108.066688 
L 179.512283 107.98721 
L 180.565273 107.956615 
L 180.666122 108.835594 
L 181.533026 108.776358 
L 181.533026 108.776358 
" clip-path="url(#p696fd57a73)" style="fill: none; stroke: #1f77b4; stroke-width: 1.5"/>
    <path d="M 214.02953 198.157127 
L 214.02096 198.149449 
L 213.393248 198.682892 
L 212.747291 199.010181 
L 212.16337 198.57133 
L 211.21765 199.271313 
L 209.759959 200.312766 
L 193.270776 200.585054 
L 193.190953 200.395502 
L 188.406312 195.797798 
L 188.530675 195.797287 
L 189.006681 193.366635 
L 189.550381 193.361934 
L 189.562611 190.931143 
L 189.569707 190.931115 
L 190.067441 190.927039 
L 190.011732 188.338837 
L 189.839815 188.337477 
L 189.9193 187.630151 
L 190.303897 186.08886 
L 202.702871 185.90203 
L 202.916704 185.775882 
L 202.95255 185.83109 
L 203.225583 186.278736 
L 203.958619 186.793258 
L 204.334936 187.133929 
L 204.474225 188.033035 
L 204.973165 188.977037 
L 205.644089 189.316647 
L 205.942725 189.290161 
L 206.311888 188.818099 
L 206.339618 189.051856 
L 206.363581 189.421885 
L 206.2602 190.569851 
L 205.887132 190.741145 
L 205.786105 191.001157 
L 205.808301 191.284563 
L 205.954688 191.459967 
L 206.664497 192.382424 
L 206.675483 192.374009 
L 206.847475 192.254664 
L 207.25102 192.977607 
L 207.357997 193.11256 
L 207.708898 193.419357 
L 208.244549 193.871557 
L 208.467273 193.829917 
L 208.677231 193.777738 
L 208.692451 193.838172 
L 208.953976 194.27541 
L 209.190683 194.506267 
L 211.728964 195.784866 
L 212.431324 195.777076 
L 212.845996 195.617249 
L 213.554613 195.095179 
L 213.973475 194.826193 
L 213.977644 194.831548 
L 214.091594 194.855164 
L 213.973632 194.699391 
L 213.788003 194.516885 
L 212.781932 194.509745 
L 213.875517 194.514585 
L 214.723775 195.702119 
L 214.727146 195.803886 
L 215.320356 196.370136 
L 215.521855 196.4999 
L 215.639678 196.824339 
L 214.457064 197.748669 
L 214.02953 198.157127 
L 214.02953 198.157127 
" clip-path="url(#p696fd57a73)" style="fill: none; stroke: #1f77b4; stroke-width: 1.5"/>
    <path d="M 188.546682 210.387662 
L 186.043414 210.435678 
L 185.662925 212.818103 
L 185.237212 212.885613 
L 184.614991 216.53354 
L 184.694156 216.532152 
L 184.785099 216.530437 
L 184.772602 216.615859 
L 184.574911 217.750065 
L 184.663845 217.748 
L 184.71987 217.746699 
L 184.460031 219.279359 
L 184.368443 219.258023 
L 184.002856 219.155104 
L 184.002217 219.182712 
L 184.010462 219.86476 
L 182.756975 219.338959 
L 181.589645 218.575227 
L 181.472109 218.166432 
L 180.784131 217.834494 
L 180.492037 217.840849 
L 179.15652 216.84082 
L 179.144316 216.308888 
L 178.119935 215.761976 
L 176.844351 215.244279 
L 176.718969 215.208748 
L 176.721865 215.320902 
L 176.725635 215.489579 
L 173.448509 215.451406 
L 170.604378 211.577065 
L 170.006943 210.926991 
L 169.97984 210.405911 
L 169.555578 209.265043 
L 169.324531 206.210427 
L 169.260252 205.90729 
L 168.339793 205.596624 
L 168.143344 205.90323 
L 166.797546 205.959002 
L 166.84392 202.339164 
L 166.651083 202.348059 
L 166.780295 201.113006 
L 187.623685 200.675718 
L 187.536826 201.189107 
L 187.673924 201.314303 
L 187.313253 203.723256 
L 187.587611 203.720581 
L 187.57722 203.785364 
L 187.296821 207.018365 
L 187.485585 207.959138 
L 188.546682 210.387662 
L 188.546682 210.387662 
" clip-path="url(#p696fd57a73)" style="fill: none; stroke: #1f77b4; stroke-width: 1.5"/>
    <path d="M 193.354663 200.587461 
L 195.769395 202.883274 
L 203.25361 210.111127 
L 203.094801 210.114179 
L 188.524325 210.336057 
L 187.35529 207.463777 
L 187.291363 206.618174 
L 187.467187 205.046972 
L 187.587611 203.720581 
L 187.313253 203.723256 
L 187.687083 201.236763 
L 187.536826 201.189107 
L 187.710935 200.674936 
L 188.475637 200.664227 
L 188.382809 198.237565 
L 188.11575 198.240975 
L 188.406332 197.020481 
L 189.786223 197.107666 
L 193.354663 200.587461 
L 193.354663 200.587461 
" clip-path="url(#p696fd57a73)" style="fill: none; stroke: #1f77b4; stroke-width: 1.5"/>
    <path d="M 214.02953 198.157127 
L 213.894635 198.625085 
L 213.892623 199.110463 
L 214.328281 200.166857 
L 214.579529 200.305955 
L 216.128095 200.538972 
L 216.864979 200.902357 
L 218.58111 201.843867 
L 218.873322 201.979609 
L 219.930656 202.525209 
L 220.52979 203.06414 
L 220.926906 206.822381 
L 221.013244 207.248048 
L 221.173411 207.301012 
L 221.213584 207.314472 
L 223.710779 207.267648 
L 220.87003 207.403792 
L 220.622896 207.501875 
L 216.075688 207.640282 
L 216.087271 207.91455 
L 221.04472 207.926758 
L 221.463666 212.439921 
L 221.33523 212.89691 
L 215.793552 216.047362 
L 215.059418 216.810225 
L 214.865147 217.276311 
L 214.410976 219.654792 
L 213.18678 219.683341 
L 211.85534 218.395572 
L 209.591729 216.238282 
L 193.354663 200.587461 
L 199.111133 200.501403 
L 209.907589 200.310028 
L 212.16337 198.57133 
L 212.747291 199.010181 
L 213.54929 198.634546 
L 214.02953 198.157127 
L 214.02953 198.157127 
" clip-path="url(#p696fd57a73)" style="fill: none; stroke: #1f77b4; stroke-width: 1.5"/>
    <path d="M 192.501907 219.393202 
L 192.834536 220.015588 
L 192.720648 220.018221 
L 184.015463 220.200166 
L 184.002856 219.155104 
L 184.06839 219.175986 
L 184.460031 219.279359 
L 184.466955 219.239449 
L 184.71987 217.746699 
L 184.663845 217.748 
L 184.574911 217.750065 
L 184.785099 216.530437 
L 184.693711 216.532161 
L 184.614991 216.53354 
L 185.322522 212.883878 
L 185.68109 212.711827 
L 186.171121 210.433213 
L 188.578723 210.457803 
L 189.33144 211.917107 
L 190.054019 213.38804 
L 192.162162 218.462052 
L 192.501907 219.393202 
L 192.501907 219.393202 
" clip-path="url(#p696fd57a73)" style="fill: none; stroke: #1f77b4; stroke-width: 1.5"/>
    <path d="M 213.18678 219.683341 
L 212.009008 219.72781 
L 205.231918 219.806463 
L 203.308946 219.83735 
L 203.288322 218.972422 
L 201.387998 219.202965 
L 192.441159 219.254971 
L 192.089374 218.209729 
L 191.685914 217.077957 
L 189.151394 211.611332 
L 188.546682 210.387662 
L 188.604777 210.386559 
L 203.25361 210.111127 
L 213.18678 219.683341 
L 213.18678 219.683341 
" clip-path="url(#p696fd57a73)" style="fill: none; stroke: #1f77b4; stroke-width: 1.5"/>
    <path d="M 184.010462 219.86476 
L 184.015463 220.200166 
L 184.660044 220.197487 
L 180.621766 243.971024 
L 180.420357 244.571666 
L 165.328229 244.809379 
L 165.017917 231.484853 
L 164.989947 230.271789 
L 169.802564 230.188184 
L 169.504265 215.667174 
L 169.393325 212.97899 
L 169.332658 210.92903 
L 169.402091 210.936287 
L 169.466288 210.942996 
L 169.46487 210.87356 
L 169.390591 208.595417 
L 169.53964 209.072606 
L 169.670943 209.636668 
L 170.074218 210.703138 
L 170.036662 210.655553 
L 170.007029 210.927096 
L 171.917714 213.280908 
L 173.656443 215.554388 
L 176.725635 215.489579 
L 176.718969 215.208748 
L 176.719021 215.208762 
L 177.82286 215.617657 
L 179.145004 216.345859 
L 179.158349 216.944803 
L 180.677366 217.836905 
L 181.10185 217.9291 
L 181.585284 218.37963 
L 181.589645 218.575227 
L 183.315291 219.615103 
L 184.010462 219.86476 
L 184.010462 219.86476 
" clip-path="url(#p696fd57a73)" style="fill: none; stroke: #1f77b4; stroke-width: 1.5"/>
    <path d="M 149.844789 80.184745 
L 145.144011 80.260667 
L 145.143554 80.194299 
L 144.801477 79.452825 
L 143.592531 79.059058 
L 142.23383 77.437583 
L 141.45082 77.214669 
L 141.387146 77.147264 
L 140.622919 75.730762 
L 140.206068 75.404355 
L 139.078581 73.459237 
L 138.87317 72.703704 
L 138.205188 68.246312 
L 138.64189 67.184979 
L 139.318035 65.892576 
L 139.387309 65.085068 
L 139.379342 64.918068 
L 139.426124 63.893426 
L 139.475428 63.747957 
L 139.421352 63.728368 
L 139.314868 62.224673 
L 139.237974 60.922872 
L 149.542928 60.835064 
L 149.844789 80.184745 
L 149.844789 80.184745 
" clip-path="url(#p696fd57a73)" style="fill: none; stroke: #1f77b4; stroke-width: 1.5"/>
    <path d="M 185.459768 244.058873 
L 184.89713 244.140733 
L 183.824859 244.528997 
L 180.585695 244.569541 
L 180.621766 243.971024 
L 181.01117 241.699842 
L 184.660044 220.197487 
L 192.860054 220.058894 
L 193.698992 221.141906 
L 193.810037 228.02608 
L 193.552958 229.14068 
L 193.238576 229.702382 
L 192.539426 229.75784 
L 192.482735 230.277863 
L 192.01316 231.574392 
L 189.85133 234.290893 
L 188.806697 236.017526 
L 187.604267 238.666356 
L 185.459768 244.058873 
L 185.459768 244.058873 
" clip-path="url(#p696fd57a73)" style="fill: none; stroke: #1f77b4; stroke-width: 1.5"/>
    <path d="M 213.18678 219.683341 
L 214.154566 219.661653 
L 214.446812 219.695727 
L 214.619934 221.336159 
L 214.518571 221.87535 
L 214.486287 223.33679 
L 214.499847 223.460426 
L 214.802457 223.93243 
L 214.906144 225.141701 
L 214.709587 226.944385 
L 214.629404 227.737989 
L 214.196703 228.616217 
L 213.129095 229.903898 
L 213.097981 229.995115 
L 213.210768 231.834689 
L 213.147784 232.847282 
L 213.073754 233.034712 
L 214.120005 233.037743 
L 214.061178 233.138939 
L 213.430082 234.567668 
L 213.421067 235.783098 
L 213.387994 253.651253 
L 212.884008 255.415082 
L 212.802063 256.091978 
L 213.666295 262.02674 
L 213.587163 262.020418 
L 209.879431 259.007642 
L 208.86917 257.079689 
L 207.693966 254.882129 
L 207.449333 255.107165 
L 207.371764 255.126789 
L 206.892781 255.569879 
L 206.558644 255.627152 
L 206.448253 255.832605 
L 206.262116 262.058468 
L 199.463731 262.040568 
L 194.815667 261.940891 
L 193.764557 261.543423 
L 192.869092 261.281598 
L 191.640775 261.165317 
L 185.815444 252.165902 
L 185.521468 251.296728 
L 185.379106 250.259583 
L 185.364958 244.404762 
L 185.588643 243.685237 
L 188.140326 237.328809 
L 190.003136 234.078849 
L 191.688814 231.958132 
L 192.133668 231.425597 
L 192.53888 229.719535 
L 193.361713 229.594688 
L 193.665032 228.773433 
L 193.835272 227.752886 
L 193.837004 226.560648 
L 193.738947 223.304942 
L 193.597431 220.988728 
L 192.561869 219.525508 
L 192.501907 219.393202 
L 192.622973 219.393572 
L 202.532431 219.093513 
L 203.288322 218.972422 
L 203.308946 219.83735 
L 213.18678 219.683341 
L 213.18678 219.683341 
" clip-path="url(#p696fd57a73)" style="fill: none; stroke: #1f77b4; stroke-width: 1.5"/>
    <path d="M 223.632468 240.336142 
L 220.783025 240.319134 
L 220.758432 245.152858 
L 217.756088 245.184195 
L 215.939235 245.278768 
L 215.944875 246.344916 
L 213.483664 246.348518 
L 213.460804 234.385463 
L 213.738304 233.759478 
L 214.120005 233.037743 
L 213.073754 233.034712 
L 213.074692 233.032338 
L 213.195243 232.626596 
L 213.168046 231.452109 
L 213.087894 231.140741 
L 213.206234 229.752114 
L 213.727262 229.101164 
L 214.196703 228.616217 
L 214.646817 227.686635 
L 214.706451 227.287833 
L 214.812131 225.575858 
L 214.906144 225.141701 
L 214.852865 224.316605 
L 214.802457 223.93243 
L 214.476386 223.246516 
L 214.433304 222.878026 
L 214.535403 220.474497 
L 214.434394 219.355277 
L 214.885919 217.180873 
L 215.308988 216.510707 
L 216.29368 215.706575 
L 219.102999 214.144088 
L 221.33523 212.89691 
L 221.306145 213.000404 
L 221.22998 213.362698 
L 221.30463 213.371658 
L 221.559572 213.553164 
L 223.503894 214.004845 
L 223.598605 214.17528 
L 223.588285 220.373768 
L 223.442711 220.547397 
L 223.534207 220.776507 
L 223.397976 220.619007 
L 223.241588 220.948731 
L 223.403609 220.996615 
L 223.211333 221.05416 
L 223.156544 221.555481 
L 223.219684 222.39038 
L 223.514329 222.86588 
L 223.699845 223.021807 
L 223.70609 223.032117 
L 223.707732 223.290107 
L 223.040947 223.338426 
L 223.04471 223.34718 
L 222.712029 223.424891 
L 222.647777 223.401392 
L 222.6905 223.502306 
L 222.004272 223.922246 
L 221.624152 224.433196 
L 221.661488 224.928046 
L 222.069266 225.880865 
L 222.406641 226.337564 
L 222.706834 226.651272 
L 222.706931 226.651168 
L 223.331821 225.976789 
L 221.75342 227.684505 
L 221.753429 227.684513 
L 222.654738 228.32483 
L 222.827657 228.339108 
L 222.93817 228.041229 
L 223.055131 227.940523 
L 223.055149 227.940529 
L 223.188195 228.092317 
L 223.304661 228.188757 
L 223.513838 228.345509 
L 223.864857 228.678498 
L 223.709305 228.715949 
L 223.501462 228.591126 
L 223.181315 228.261136 
L 223.152778 228.260629 
L 222.838725 228.525838 
L 223.06232 228.780787 
L 223.062333 228.780776 
L 223.351872 228.610123 
L 223.352994 228.611969 
L 223.364436 228.671415 
L 223.332182 228.63978 
L 223.16674 228.904429 
L 223.258356 229.000213 
L 223.512371 228.782878 
L 223.444741 228.959071 
L 223.666662 229.703904 
L 223.632468 240.336142 
L 223.632468 240.336142 
" clip-path="url(#p696fd57a73)" style="fill: none; stroke: #1f77b4; stroke-width: 1.5"/>
    <path d="M 177.16984 262.10355 
L 176.473917 262.133101 
L 176.498912 262.062538 
L 176.622055 261.468581 
L 176.444231 260.826375 
L 176.189394 260.598257 
L 175.309643 259.971861 
L 175.307579 259.901539 
L 175.220839 259.905606 
L 174.110767 260.015336 
L 173.987596 260.105069 
L 172.759725 260.832224 
L 172.116904 261.573176 
L 171.54418 262.122178 
L 170.945904 262.740253 
L 170.823043 262.951854 
L 170.733864 262.961031 
L 170.573683 262.893904 
L 170.043877 263.017212 
L 169.95583 263.116584 
L 169.543618 263.186569 
L 167.65705 263.132997 
L 166.552637 263.001398 
L 165.872335 262.890465 
L 165.778124 262.777129 
L 165.6876 262.777838 
L 165.690334 262.875973 
L 165.693587 262.99287 
L 165.690625 262.992933 
L 162.924134 262.92842 
L 162.815756 259.405388 
L 162.834836 259.405524 
L 165.690914 259.348327 
L 165.534831 254.492336 
L 155.903862 254.627835 
L 155.681264 244.983669 
L 180.147319 244.575177 
L 179.051906 250.961721 
L 178.692252 253.031165 
L 178.174975 256.051931 
L 177.16984 262.10355 
L 177.16984 262.10355 
" clip-path="url(#p696fd57a73)" style="fill: none; stroke: #1f77b4; stroke-width: 1.5"/>
    <path d="M 185.459768 244.058873 
L 185.296031 244.822812 
L 185.290996 246.080184 
L 185.60434 251.598041 
L 186.046253 252.627336 
L 187.254744 254.521868 
L 190.670242 259.654245 
L 195.918328 267.88481 
L 196.565906 269.39145 
L 196.894942 270.865969 
L 196.965185 271.699121 
L 189.622924 271.744187 
L 184.882899 271.754903 
L 177.698436 271.772771 
L 177.698437 271.772765 
L 177.632996 267.977123 
L 176.598492 267.717957 
L 176.160273 267.576628 
L 176.175747 267.538228 
L 176.793984 265.707528 
L 177.186641 263.760747 
L 177.453446 262.104814 
L 177.16984 262.10355 
L 180.29603 244.573265 
L 184.203137 244.488146 
L 185.157381 244.081351 
L 185.459768 244.058873 
L 185.459768 244.058873 
" clip-path="url(#p696fd57a73)" style="fill: none; stroke: #1f77b4; stroke-width: 1.5"/>
    <path d="M 223.632468 240.336142 
L 223.361751 271.8 
L 199.499753 271.707507 
L 196.965185 271.699121 
L 196.738755 269.998952 
L 196.339534 268.736973 
L 195.757609 267.609407 
L 191.695609 261.248155 
L 191.869106 261.246737 
L 192.186726 261.267464 
L 192.869092 261.281598 
L 193.599284 261.47363 
L 195.11441 261.997941 
L 196.265627 262.045833 
L 206.435637 262.048639 
L 206.558644 255.627152 
L 206.754665 255.558579 
L 207.01448 255.513424 
L 207.371764 255.126789 
L 207.64956 254.94956 
L 207.769636 254.871853 
L 210.096363 259.261769 
L 210.838325 259.903715 
L 213.666295 262.02674 
L 212.85427 255.740957 
L 212.998881 254.936508 
L 213.562725 252.731286 
L 213.552459 246.347095 
L 213.552583 246.359501 
L 215.944875 246.344916 
L 215.938634 245.192443 
L 220.758432 245.152858 
L 220.775227 243.952573 
L 220.783025 240.319134 
L 220.855676 240.3195 
L 223.632468 240.336142 
L 223.632468 240.336142 
" clip-path="url(#p696fd57a73)" style="fill: none; stroke: #1f77b4; stroke-width: 1.5"/>
    <path d="M 117.504675 155.843309 
L 117.524582 156.306767 
L 117.778337 169.215359 
L 117.967671 177.763212 
L 117.907457 177.764104 
L 115.533337 177.795704 
L 89.309839 178.4234 
L 86.421037 178.492096 
L 86.217697 169.632552 
L 88.685904 168.690202 
L 110.470608 168.173147 
L 110.470598 168.172718 
L 110.301504 159.435798 
L 114.478461 157.598177 
L 114.480888 153.628033 
L 117.458705 153.571982 
L 117.459224 153.611078 
L 117.504675 155.843309 
L 117.504675 155.843309 
" clip-path="url(#p696fd57a73)" style="fill: none; stroke: #1f77b4; stroke-width: 1.5"/>
    <path d="M 129.503276 150.960097 
L 129.592856 165.075313 
L 129.168823 165.691416 
L 128.852569 165.899252 
L 125.852111 167.561633 
L 122.642196 169.606242 
L 122.658063 170.407752 
L 119.014764 170.458041 
L 118.94916 171.336824 
L 118.450784 171.42242 
L 117.825981 171.342014 
L 117.504675 155.843309 
L 129.500759 150.773304 
L 129.503276 150.960097 
L 129.503276 150.960097 
" clip-path="url(#p696fd57a73)" style="fill: none; stroke: #1f77b4; stroke-width: 1.5"/>
    <path d="M 144.449725 152.984624 
L 144.553371 158.77827 
L 144.631299 162.693526 
L 144.545661 162.692862 
L 144.35764 162.687933 
L 144.359809 162.787084 
L 144.38612 165.26529 
L 144.31062 165.266322 
L 139.557997 165.240613 
L 139.557306 165.205659 
L 139.557225 165.205661 
L 134.713976 165.42876 
L 134.60751 165.492155 
L 129.797464 165.682483 
L 129.586603 150.929024 
L 134.358692 148.85676 
L 134.345881 148.458299 
L 135.199077 148.169058 
L 137.541251 147.249065 
L 138.31087 146.862829 
L 138.438262 146.996001 
L 142.60452 145.244886 
L 142.882261 145.127463 
L 142.856501 145.199693 
L 142.903082 150.572689 
L 143.078651 150.563506 
L 143.150384 150.554683 
L 143.149402 150.62502 
L 143.384948 151.612494 
L 143.245348 151.728819 
L 143.51595 152.211575 
L 143.629738 153.011727 
L 144.449725 152.984624 
L 144.449725 152.984624 
" clip-path="url(#p696fd57a73)" style="fill: none; stroke: #1f77b4; stroke-width: 1.5"/>
    <path d="M 158.402933 152.775649 
L 146.372293 152.954417 
L 143.536667 153.014041 
L 143.543972 152.971521 
L 143.436171 151.982723 
L 143.245348 151.728819 
L 143.466911 151.39618 
L 142.965527 150.570188 
L 142.903082 150.572689 
L 142.885582 146.963213 
L 142.882286 145.127452 
L 146.824534 143.577208 
L 148.161193 143.51602 
L 151.234826 143.432292 
L 151.234997 143.483847 
L 151.23529 143.572708 
L 152.385465 143.448915 
L 153.246764 143.089939 
L 154.348641 142.288484 
L 154.425046 142.44442 
L 154.807262 143.240238 
L 154.947487 143.781377 
L 155.835971 145.086072 
L 156.340493 145.47406 
L 157.781068 147.736038 
L 157.700703 149.787238 
L 157.894374 152.294295 
L 158.402933 152.775649 
L 158.402933 152.775649 
" clip-path="url(#p696fd57a73)" style="fill: none; stroke: #1f77b4; stroke-width: 1.5"/>
    <path d="M 165.887671 65.230972 
L 166.200145 66.209843 
L 167.613142 70.137518 
L 168.70313 71.900829 
L 169.827771 73.577299 
L 169.598397 73.649312 
L 169.433032 73.497162 
L 169.217815 73.002293 
L 168.954506 72.967419 
L 168.418833 73.103186 
L 168.28905 72.927148 
L 167.674944 71.212074 
L 166.681342 70.875987 
L 166.385158 70.82767 
L 166.264458 70.746557 
L 166.309166 70.586647 
L 166.24479 70.612217 
L 165.573761 69.812262 
L 165.341102 69.795491 
L 165.39374 69.973106 
L 165.879178 70.571198 
L 166.375801 71.243566 
L 166.179881 71.897316 
L 166.798504 72.802571 
L 167.0809 73.241663 
L 167.172671 73.672302 
L 167.311393 74.420395 
L 167.865378 75.211039 
L 167.865524 75.210035 
L 167.908549 74.914298 
L 168.015866 74.93374 
L 168.044483 75.257498 
L 168.722586 75.195497 
L 168.882321 74.987691 
L 168.983671 74.628486 
L 168.791679 74.61351 
L 168.993324 74.592628 
L 169.147629 73.847445 
L 169.313517 73.956497 
L 169.445023 74.191531 
L 169.486606 75.001447 
L 169.930606 76.453403 
L 170.219503 76.927403 
L 170.170661 77.010803 
L 170.26216 77.491849 
L 170.50254 78.290281 
L 170.891365 78.944407 
L 171.122554 79.528944 
L 171.004949 80.065671 
L 170.965082 79.728411 
L 170.145054 80.020696 
L 170.085791 79.994175 
L 169.956406 79.791679 
L 163.723149 79.886742 
L 149.844789 80.184745 
L 149.606376 60.75286 
L 153.520973 60.682386 
L 153.993243 62.31703 
L 154.517691 63.695385 
L 155.358224 65.513735 
L 165.887671 65.230972 
L 165.887671 65.230972 
" clip-path="url(#p696fd57a73)" style="fill: none; stroke: #1f77b4; stroke-width: 1.5"/>
    <path d="M 169.390125 152.576163 
L 158.402933 152.775649 
L 157.894374 152.294295 
L 157.706363 148.772282 
L 157.749416 147.526748 
L 156.298779 145.414168 
L 155.645437 144.826642 
L 155.240844 144.235064 
L 154.900155 143.676221 
L 154.755223 143.101816 
L 154.223413 141.962136 
L 154.071652 140.838517 
L 154.01793 140.523743 
L 154.33649 139.800794 
L 154.685108 138.732504 
L 155.222067 138.397177 
L 156.09077 137.77848 
L 156.117032 137.860252 
L 157.166568 136.829098 
L 157.818152 136.869578 
L 161.558661 136.080771 
L 162.107881 135.930243 
L 163.493607 135.417977 
L 164.41209 135.337457 
L 164.792138 135.991779 
L 165.280514 135.723408 
L 165.588104 136.26022 
L 165.192373 136.266703 
L 165.254966 136.365998 
L 165.539309 136.817076 
L 165.477913 136.931574 
L 165.602048 137.471119 
L 167.210432 137.549679 
L 167.243342 139.257957 
L 168.126077 139.240708 
L 168.166456 144.093436 
L 168.251763 144.091877 
L 168.41381 144.089727 
L 168.434803 145.304657 
L 168.332709 145.305887 
L 168.116344 145.310275 
L 168.107596 146.336684 
L 168.179751 150.167571 
L 168.235112 150.166354 
L 168.279194 150.165853 
L 168.348463 151.51278 
L 169.390125 152.576163 
L 169.390125 152.576163 
" clip-path="url(#p696fd57a73)" style="fill: none; stroke: #1f77b4; stroke-width: 1.5"/>
    <path d="M 168.649204 171.975561 
L 151.186742 172.321564 
L 147.140777 172.380493 
L 147.139243 172.283018 
L 146.965431 171.152838 
L 146.843782 170.250819 
L 146.701563 165.066583 
L 144.383362 165.12127 
L 144.35764 162.687933 
L 144.545661 162.692862 
L 144.631299 162.693526 
L 144.629811 162.601834 
L 144.449725 152.984624 
L 149.844392 152.893787 
L 168.323773 152.72262 
L 168.521096 157.410229 
L 168.336132 157.413332 
L 168.29973 157.414215 
L 168.278198 158.474479 
L 168.233168 160.810316 
L 168.191778 161.035007 
L 168.257061 161.03331 
L 168.448768 161.028338 
L 168.649204 171.975561 
L 168.649204 171.975561 
" clip-path="url(#p696fd57a73)" style="fill: none; stroke: #1f77b4; stroke-width: 1.5"/>
    <path d="M 129.797464 165.682483 
L 130.015089 173.926245 
L 129.99441 177.437652 
L 129.888907 177.562193 
L 117.967671 177.763212 
L 117.861742 171.432478 
L 119.064587 171.317532 
L 119.025475 170.987553 
L 119.014764 170.458041 
L 119.078631 170.457325 
L 122.656409 170.306408 
L 122.638369 169.42274 
L 125.038542 168.038644 
L 125.036844 167.934461 
L 125.36722 167.854623 
L 128.852569 165.899252 
L 129.246561 165.602448 
L 129.628698 164.993123 
L 129.790941 164.287834 
L 129.800269 164.579631 
L 129.797464 165.682483 
L 129.797464 165.682483 
" clip-path="url(#p696fd57a73)" style="fill: none; stroke: #1f77b4; stroke-width: 1.5"/>
    <path d="M 147.140777 172.380493 
L 147.145062 172.625134 
L 147.073472 172.626089 
L 146.864307 172.629081 
L 146.730063 176.049854 
L 146.665169 177.248603 
L 129.99441 177.437652 
L 129.877834 167.83988 
L 129.935515 167.83837 
L 129.832223 167.756241 
L 129.830044 165.681124 
L 129.896685 165.680693 
L 134.713976 165.42876 
L 134.711516 165.313179 
L 134.711616 165.313177 
L 139.560128 165.330842 
L 139.5609 165.361965 
L 142.227527 165.299001 
L 144.38612 165.26529 
L 144.385136 165.213901 
L 144.383981 165.153598 
L 146.847347 165.066971 
L 146.793901 166.2977 
L 146.79396 167.581005 
L 146.923449 170.901429 
L 147.140777 172.380493 
L 147.140777 172.380493 
" clip-path="url(#p696fd57a73)" style="fill: none; stroke: #1f77b4; stroke-width: 1.5"/>
    <path d="M 117.967671 177.763212 
L 117.982924 178.291694 
L 118.189528 187.471209 
L 118.144471 187.472105 
L 115.769204 187.508343 
L 115.714457 185.088924 
L 111.491735 185.210495 
L 86.624629 185.808643 
L 86.421037 178.492096 
L 95.748758 178.286318 
L 117.967671 177.763212 
L 117.967671 177.763212 
" clip-path="url(#p696fd57a73)" style="fill: none; stroke: #1f77b4; stroke-width: 1.5"/>
    <path d="M 130.406916 196.702294 
L 129.725805 196.415066 
L 128.08478 195.445801 
L 127.001501 194.817933 
L 125.681185 193.990381 
L 125.575678 193.951033 
L 125.699925 199.340995 
L 117.088455 199.493775 
L 116.04623 199.293811 
L 115.975093 187.515306 
L 118.189528 187.471209 
L 118.186937 187.408015 
L 117.967671 177.763212 
L 118.101322 177.761233 
L 130.2338 177.554532 
L 130.237637 179.065637 
L 130.236159 183.921585 
L 130.406916 196.702294 
L 130.406916 196.702294 
" clip-path="url(#p696fd57a73)" style="fill: none; stroke: #1f77b4; stroke-width: 1.5"/>
    <path d="M 147.470013 196.487783 
L 130.406916 196.702294 
L 130.338006 189.048587 
L 130.264415 182.390376 
L 130.318689 182.391213 
L 130.264727 180.333919 
L 130.281829 177.553344 
L 146.987827 177.243306 
L 147.172524 181.391981 
L 147.279172 182.529046 
L 147.144081 184.515887 
L 147.26868 184.513814 
L 147.371321 186.927182 
L 147.190354 186.930245 
L 147.237511 189.346621 
L 147.368459 189.344585 
L 147.321235 190.446806 
L 147.371069 190.979341 
L 147.277119 192.369532 
L 147.470013 196.487783 
L 147.470013 196.487783 
" clip-path="url(#p696fd57a73)" style="fill: none; stroke: #1f77b4; stroke-width: 1.5"/>
    <path d="M 159.017107 172.178074 
L 159.476673 195.806739 
L 159.419888 196.334716 
L 147.470013 196.487783 
L 147.271715 191.762966 
L 147.371069 190.979341 
L 147.321408 189.913968 
L 147.368459 189.344585 
L 147.237511 189.346621 
L 147.190354 186.930245 
L 147.371321 186.927182 
L 147.268677 184.513742 
L 147.142947 184.455631 
L 147.180717 183.761152 
L 147.304365 182.114739 
L 147.054778 180.57892 
L 146.974091 177.243538 
L 146.715711 177.247852 
L 146.864307 172.629081 
L 147.145062 172.625134 
L 147.1443 172.605774 
L 147.182765 172.379825 
L 159.017107 172.178074 
L 159.017107 172.178074 
" clip-path="url(#p696fd57a73)" style="fill: none; stroke: #1f77b4; stroke-width: 1.5"/>
    <path d="M 172.218394 179.509516 
L 171.867487 179.518078 
L 172.001489 181.483578 
L 172.079445 181.610436 
L 172.032109 181.611712 
L 171.28493 181.739659 
L 171.378593 186.467933 
L 170.84119 186.477336 
L 170.735037 187.344225 
L 170.574834 188.901439 
L 169.597303 188.92759 
L 169.601741 190.140004 
L 169.019141 190.155031 
L 169.109072 194.995945 
L 168.50563 195.009199 
L 168.528059 196.222769 
L 168.462029 196.224053 
L 166.756182 196.275027 
L 166.674237 197.489545 
L 164.32039 197.533815 
L 164.294824 196.165384 
L 164.197791 196.190868 
L 159.483397 196.225939 
L 159.017107 172.178074 
L 161.082808 172.136097 
L 172.073137 171.893511 
L 172.218394 179.509516 
L 172.218394 179.509516 
" clip-path="url(#p696fd57a73)" style="fill: none; stroke: #1f77b4; stroke-width: 1.5"/>
    <path d="M 178.488869 181.45441 
L 178.574456 186.294311 
L 183.46703 191.022252 
L 183.406561 187.916276 
L 183.376948 186.1804 
L 190.158339 186.090783 
L 189.839815 188.337477 
L 190.011732 188.338837 
L 190.067441 190.927039 
L 189.944521 190.927999 
L 189.562611 190.931143 
L 189.540861 192.875138 
L 189.550381 193.361934 
L 188.926324 193.367358 
L 188.516869 195.905692 
L 189.680441 197.005592 
L 189.584407 197.006968 
L 188.323188 197.021271 
L 188.11575 198.240975 
L 188.423577 198.237049 
L 188.475637 200.664227 
L 166.511686 201.028863 
L 166.510183 200.932926 
L 166.541793 197.493188 
L 166.731337 197.416559 
L 166.756182 196.275027 
L 168.52494 196.092868 
L 168.50563 195.009199 
L 169.109072 194.995945 
L 169.019141 190.155031 
L 169.619062 190.0334 
L 169.597303 188.92759 
L 170.682398 188.899168 
L 170.84119 186.477336 
L 171.378593 186.467933 
L 171.369872 186.365488 
L 171.282252 181.622262 
L 172.079445 181.610436 
L 172.051393 181.521847 
L 171.903979 181.345813 
L 171.867487 179.518078 
L 173.636427 179.476443 
L 173.637199 179.523376 
L 173.650921 181.57482 
L 178.488869 181.45441 
L 178.488869 181.45441 
" clip-path="url(#p696fd57a73)" style="fill: none; stroke: #1f77b4; stroke-width: 1.5"/>
    <path d="M 170.454606 80.025581 
L 170.453056 80.117196 
L 170.520729 80.117642 
L 170.860066 80.230269 
L 171.01568 80.500208 
L 170.94785 80.898717 
L 170.855296 81.6889 
L 171.012244 82.675272 
L 171.160071 83.021625 
L 171.09829 83.170819 
L 171.101161 83.175742 
L 171.553979 84.156971 
L 171.498087 84.346437 
L 171.445225 84.319381 
L 171.376064 84.346 
L 171.2213 84.693299 
L 171.334373 85.80062 
L 171.502559 86.207087 
L 171.850999 86.571553 
L 172.158698 86.32648 
L 171.64081 86.880756 
L 172.082879 87.714551 
L 172.483582 87.472331 
L 171.893655 87.917024 
L 172.37042 88.732142 
L 172.670998 88.535798 
L 172.147104 88.973743 
L 172.159825 88.991424 
L 172.668884 89.732176 
L 172.92828 89.533703 
L 172.419837 90.04672 
L 172.990959 90.77602 
L 173.319109 90.536734 
L 172.954815 90.895761 
L 172.981118 90.924353 
L 174.320789 92.279793 
L 175.113152 92.681733 
L 175.774338 92.660466 
L 176.042802 92.557151 
L 176.063772 92.607039 
L 176.033289 92.816445 
L 176.172509 92.590845 
L 176.220678 92.202113 
L 176.107997 91.87999 
L 175.876969 91.877115 
L 175.826488 91.87432 
L 176.105922 91.844545 
L 176.245417 92.042983 
L 176.190873 92.629056 
L 175.930972 92.946029 
L 175.4751 93.115004 
L 174.861685 93.280355 
L 174.453041 93.65941 
L 173.982593 94.018564 
L 173.11355 94.081343 
L 173.059954 93.946231 
L 172.75981 94.228657 
L 158.031635 94.538088 
L 157.699381 93.296768 
L 157.313707 92.155841 
L 156.786814 91.592513 
L 155.815123 90.946392 
L 154.678309 91.321973 
L 154.591633 91.255682 
L 154.382933 90.535546 
L 154.155482 89.802182 
L 152.324191 86.957346 
L 151.438644 86.822979 
L 150.695102 86.704197 
L 150.276706 86.372924 
L 149.320965 85.320114 
L 149.063911 83.969652 
L 148.277522 83.348153 
L 147.401625 82.993681 
L 146.626802 82.655971 
L 146.153753 81.318122 
L 145.299237 80.537385 
L 145.144011 80.260667 
L 145.207691 80.259264 
L 168.261268 79.844311 
L 169.193334 79.775389 
L 169.40694 79.738537 
L 169.408868 79.809581 
L 169.956406 79.791679 
L 170.145054 80.020696 
L 170.454606 80.025581 
L 170.454606 80.025581 
" clip-path="url(#p696fd57a73)" style="fill: none; stroke: #1f77b4; stroke-width: 1.5"/>
    <path d="M 130.406916 196.702294 
L 131.172 196.814736 
L 136.960002 196.728394 
L 147.253395 196.491835 
L 147.290788 197.045973 
L 147.436133 202.938935 
L 147.470224 204.124766 
L 147.618817 206.638027 
L 147.945255 207.806064 
L 148.096304 208.171227 
L 150.132079 211.138672 
L 146.148954 211.206391 
L 116.259187 211.891568 
L 116.259188 211.891566 
L 116.309538 209.647518 
L 116.139907 199.393107 
L 116.698753 199.455215 
L 118.187018 199.490905 
L 123.481645 199.41369 
L 125.698866 199.283527 
L 125.629964 196.920999 
L 125.575678 193.951033 
L 125.681185 193.990381 
L 126.630149 194.558786 
L 128.08478 195.445801 
L 128.481547 195.676366 
L 129.868848 196.497638 
L 130.406916 196.702294 
L 130.406916 196.702294 
" clip-path="url(#p696fd57a73)" style="fill: none; stroke: #1f77b4; stroke-width: 1.5"/>
    <path d="M 166.445377 197.495621 
L 166.515549 201.118289 
L 166.708932 201.114371 
L 166.667514 201.263087 
L 166.651083 202.348059 
L 166.730304 202.346159 
L 166.84392 202.339164 
L 166.826868 205.260343 
L 166.797546 205.959002 
L 168.207342 205.803045 
L 168.407107 205.474241 
L 169.318742 205.916377 
L 169.504265 215.667174 
L 164.154779 215.736076 
L 164.106217 215.768446 
L 164.091008 215.699641 
L 164.073584 215.012877 
L 163.506491 215.079349 
L 163.06664 215.343268 
L 162.639128 215.79937 
L 162.451351 215.768632 
L 162.48011 215.664093 
L 163.165005 213.221137 
L 159.226056 213.316854 
L 153.801909 213.514759 
L 153.829823 214.745384 
L 152.406112 214.713705 
L 151.638601 213.633614 
L 149.984481 211.137112 
L 150.132079 211.138672 
L 150.131902 211.129491 
L 150.017746 210.946137 
L 148.884956 209.127379 
L 148.096304 208.171227 
L 147.687797 206.938171 
L 147.49855 205.626293 
L 147.412969 201.407155 
L 147.253395 196.491835 
L 147.27725 196.491389 
L 164.294824 196.165384 
L 164.296661 196.267264 
L 164.370078 197.541278 
L 166.445377 197.495621 
L 166.445377 197.495621 
" clip-path="url(#p696fd57a73)" style="fill: none; stroke: #1f77b4; stroke-width: 1.5"/>
    <path d="M 149.984481 211.137112 
L 152.878728 215.67097 
L 152.843259 215.944288 
L 153.814356 218.36321 
L 154.943828 221.493497 
L 155.945631 224.430962 
L 156.486295 225.555313 
L 158.27788 230.364499 
L 158.449105 230.359401 
L 157.098587 235.247599 
L 138.542296 235.582503 
L 138.464351 230.115724 
L 140.83849 230.081343 
L 140.835098 230.012433 
L 140.734601 225.845198 
L 145.639323 225.78123 
L 145.305786 211.223293 
L 149.984481 211.137112 
L 149.984481 211.137112 
" clip-path="url(#p696fd57a73)" style="fill: none; stroke: #1f77b4; stroke-width: 1.5"/>
    <path d="M 169.504265 215.667174 
L 169.802564 230.188184 
L 164.989947 230.271789 
L 165.102027 235.116201 
L 159.621861 235.198256 
L 157.098587 235.247599 
L 157.127101 235.142118 
L 158.449105 230.359401 
L 158.27788 230.364499 
L 154.943828 221.493497 
L 154.823479 220.760264 
L 154.765287 220.76123 
L 152.865237 215.725514 
L 152.871164 215.65442 
L 152.447935 214.769758 
L 152.559808 214.764488 
L 153.829823 214.745384 
L 153.801909 213.514759 
L 162.394609 213.246859 
L 162.944327 213.220824 
L 163.165005 213.221137 
L 163.141667 213.28144 
L 162.451351 215.768632 
L 162.679007 215.812251 
L 163.06664 215.343268 
L 163.506491 215.079349 
L 164.073584 215.012877 
L 164.106217 215.768446 
L 164.154779 215.736076 
L 166.509947 215.691328 
L 169.504265 215.667174 
L 169.504265 215.667174 
" clip-path="url(#p696fd57a73)" style="fill: none; stroke: #1f77b4; stroke-width: 1.5"/>
    <path d="M 138.387786 230.120105 
L 138.605484 235.59076 
L 138.7319 242.816354 
L 136.892759 242.911054 
L 136.930247 244.100117 
L 136.321914 244.107513 
L 136.323649 244.161518 
L 136.357302 245.354888 
L 133.944249 245.40515 
L 133.944249 245.405158 
L 134.009783 247.807623 
L 130.997759 247.899371 
L 130.995651 247.830407 
L 130.871851 245.468627 
L 117.061618 245.774853 
L 116.918114 240.962561 
L 120.73283 240.798105 
L 126.55283 240.679628 
L 126.55283 240.679624 
L 126.151935 226.108698 
L 130.392099 226.023769 
L 130.390675 226.098215 
L 130.418333 227.237977 
L 131.026899 227.226352 
L 131.113428 230.833297 
L 135.974263 230.763705 
L 135.972655 230.720118 
L 136.035452 230.160942 
L 138.387786 230.120105 
L 138.387786 230.120105 
" clip-path="url(#p696fd57a73)" style="fill: none; stroke: #1f77b4; stroke-width: 1.5"/>
    <path d="M 165.328229 244.809379 
L 155.681264 244.983669 
L 155.68583 245.082661 
L 155.7972 249.828036 
L 155.797195 249.828036 
L 153.099331 249.956925 
L 152.845214 250.880797 
L 152.787066 250.864651 
L 152.306923 250.724942 
L 152.530253 249.912672 
L 152.489161 249.91359 
L 143.474729 250.051748 
L 143.777645 248.840536 
L 143.786676 248.234017 
L 143.623299 245.21482 
L 138.801608 245.307992 
L 138.733703 240.393021 
L 140.555521 240.363392 
L 140.548053 240.069309 
L 141.091729 240.014787 
L 140.978096 235.555023 
L 165.102027 235.116201 
L 165.328229 244.809379 
L 165.328229 244.809379 
" clip-path="url(#p696fd57a73)" style="fill: none; stroke: #1f77b4; stroke-width: 1.5"/>
    <path d="M 68.877603 44.196339 
L 68.852865 51.936348 
L 68.821996 51.936218 
L 66.410083 51.995534 
L 66.412382 52.590818 
L 66.510851 52.585584 
L 68.20692 52.62594 
L 68.197775 54.21614 
L 68.843855 54.203142 
L 68.843855 54.20315 
L 68.798294 54.959265 
L 66.393179 55.017325 
L 66.39236 54.957566 
L 66.400102 53.79767 
L 66.298611 53.800102 
L 63.94037 53.854502 
L 63.922108 57.504945 
L 63.961774 57.503376 
L 68.827404 57.378365 
L 68.889874 69.494972 
L 68.950987 71.916925 
L 69.604107 71.996986 
L 69.668267 73.74243 
L 69.756001 76.700194 
L 69.755934 76.700195 
L 62.940332 76.876219 
L 62.331044 76.797367 
L 61.324806 75.639419 
L 61.076021 74.725475 
L 59.917353 70.134011 
L 59.736798 69.587646 
L 59.772292 68.772093 
L 60.200479 67.464213 
L 63.901233 67.337297 
L 63.897086 67.238757 
L 63.905057 64.642405 
L 58.124335 64.707962 
L 57.93288 64.160836 
L 57.876031 63.491102 
L 58.052517 63.131105 
L 58.800204 61.467729 
L 59.430789 59.580937 
L 59.590862 58.362747 
L 59.853566 57.168117 
L 59.750522 56.490772 
L 59.726245 55.97317 
L 60.10214 54.033563 
L 59.750656 53.554271 
L 59.444917 53.412353 
L 59.13838 53.41362 
L 58.389478 53.763856 
L 57.65394 54.140729 
L 57.17252 53.918184 
L 56.596409 53.376003 
L 56.129988 52.90844 
L 46.955271 53.212228 
L 46.947485 63.634632 
L 46.179098 63.640339 
L 41.923896 63.045845 
L 40.939858 63.128928 
L 40.950544 67.900162 
L 35.530648 68.013547 
L 31.31647 66.84976 
L 31.324543 67.474836 
L 30.109441 67.079293 
L 29.966225 64.37458 
L 29.763654 63.799635 
L 29.087285 63.458946 
L 26.562754 62.870951 
L 26.418899 62.846957 
L 26.418277 62.939593 
L 26.419917 65.850232 
L 24.344233 65.190174 
L 24.292833 62.414588 
L 21.502041 61.809307 
L 21.41675 58.575307 
L 20.168306 58.574971 
L 20.17183 57.226911 
L 20.171821 57.226919 
L 18.503733 58.921465 
L 17.714166 58.917825 
L 17.714167 58.917816 
L 17.821181 39.459323 
L 18.181779 39.353586 
L 18.500753 37.876379 
L 19.022537 36.492791 
L 19.819218 35.075999 
L 20.665378 34.030575 
L 22.33525 32.391665 
L 22.355172 33.669887 
L 22.401502 33.667591 
L 24.786534 33.717048 
L 24.794485 34.443064 
L 27.278111 34.287163 
L 27.242338 31.840988 
L 30.585863 31.668936 
L 30.595614 29.342857 
L 30.814512 29.332574 
L 30.814022 29.432553 
L 30.816695 30.97253 
L 30.882286 30.969259 
L 30.953437 30.96571 
L 30.954768 31.751357 
L 33.610548 31.644417 
L 33.607108 29.198867 
L 34.725701 29.21066 
L 36.234806 29.751842 
L 36.234359 29.868367 
L 38.625618 30.814676 
L 39.750044 31.364447 
L 40.24744 31.34248 
L 40.221863 33.336216 
L 40.271432 33.333775 
L 40.616621 33.269861 
L 40.693242 32.916234 
L 40.693244 32.916234 
L 40.77585 32.912602 
L 40.773199 32.852366 
L 40.758363 32.514689 
L 40.814531 32.512221 
L 41.561809 32.549981 
L 42.337639 33.068844 
L 42.18693 33.555415 
L 42.17302 33.608164 
L 37.796067 33.874491 
L 36.223393 32.732111 
L 36.224443 32.4578 
L 35.402988 32.494047 
L 35.438053 32.77561 
L 35.871884 32.861872 
L 37.808153 34.148519 
L 38.686643 34.109473 
L 38.737779 34.795666 
L 43.714898 35.817231 
L 44.877854 36.162197 
L 44.880962 36.273024 
L 45.089559 36.43746 
L 45.085018 38.402063 
L 45.145217 38.399527 
L 47.182474 38.388989 
L 48.924867 44.678463 
L 49.39381 44.658909 
L 49.393681 44.739943 
L 49.433607 46.657731 
L 50.44866 50.680581 
L 50.448431 50.680588 
L 49.381057 50.719068 
L 49.376181 52.528549 
L 52.99141 52.413838 
L 52.991006 52.468174 
L 52.990194 52.584371 
L 53.010792 52.58399 
L 53.37172 52.525172 
L 53.452424 52.458713 
L 53.543524 52.455886 
L 53.543367 52.511903 
L 53.54305 52.630698 
L 56.263609 52.540459 
L 56.258189 52.459885 
L 56.387957 51.672198 
L 56.642659 51.117221 
L 56.925254 50.759359 
L 57.567981 50.075569 
L 58.128961 49.230003 
L 59.22463 47.91783 
L 59.351667 47.325032 
L 59.258533 46.58926 
L 58.940223 45.246447 
L 59.240491 43.923529 
L 59.458631 43.002915 
L 59.326067 42.427999 
L 59.326076 42.428003 
L 60.17579 42.696781 
L 61.419971 42.788217 
L 63.023521 43.041467 
L 68.877603 44.196339 
L 68.877603 44.196339 
" clip-path="url(#p696fd57a73)" style="fill: none; stroke: #1f77b4; stroke-width: 1.5"/>
    <path d="M 17.568002 36.398542 
L 17.564287 36.399338 
L 17.549469 35.830918 
L 17.535896 35.310332 
L 17.533641 35.223829 
L 17.528767 35.036797 
L 17.517719 34.613429 
L 17.528058 34.613214 
L 17.531462 34.613143 
L 17.609062 34.611533 
L 18.084503 34.602101 
L 18.556315 34.589452 
L 18.747561 34.584327 
L 18.747571 34.584327 
L 18.747728 34.584322 
L 18.747913 34.584318 
L 19.032357 34.576696 
L 19.363029 34.567836 
L 19.564051 34.561094 
L 19.774336 34.554042 
L 19.856502 34.551287 
L 19.921561 34.549106 
L 19.927351 34.548912 
L 19.92736 34.548911 
L 19.947999 34.548219 
L 19.983305 34.546984 
L 19.967508 34.569861 
L 19.958045 34.583565 
L 19.95402 34.589395 
L 19.949985 34.595237 
L 19.925619 34.631735 
L 19.910145 34.654914 
L 19.904347 34.663598 
L 19.898434 34.672455 
L 19.894515 34.678325 
L 19.873866 34.709254 
L 19.851633 34.742557 
L 19.822485 34.786217 
L 19.800699 34.81885 
L 19.794048 34.827473 
L 19.764235 34.866122 
L 19.734734 34.904367 
L 19.706307 34.94122 
L 19.686347 34.967095 
L 19.67961 34.975828 
L 19.656675 35.005562 
L 19.656674 35.005563 
L 19.656673 35.005564 
L 19.63546 35.033065 
L 19.623696 35.047653 
L 19.623652 35.047709 
L 19.606435 35.06906 
L 19.565502 35.129797 
L 19.395966 35.403093 
L 19.392856 35.408461 
L 19.392831 35.408504 
L 19.392827 35.408511 
L 19.253834 35.648427 
L 19.253807 35.648472 
L 19.253291 35.649363 
L 19.248009 35.658922 
L 19.247855 35.6592 
L 19.175984 35.789267 
L 19.124052 35.883411 
L 19.095224 35.935671 
L 19.031944 36.062833 
L 19.025437 36.075851 
L 19.023084 36.080556 
L 19.013128 36.082753 
L 19.013127 36.082753 
L 18.85324 36.118032 
L 18.704236 36.150911 
L 18.626927 36.16797 
L 18.516938 36.19224 
L 18.426565 36.212181 
L 18.346753 36.229793 
L 18.225103 36.256637 
L 18.22502 36.256655 
L 18.157916 36.271463 
L 18.043368 36.296741 
L 17.982664 36.30974 
L 17.971902 36.312045 
L 17.868436 36.334202 
L 17.769904 36.355303 
L 17.686836 36.373093 
L 17.659157 36.37902 
L 17.62669 36.385973 
L 17.568009 36.398541 
L 17.568002 36.398542 
" clip-path="url(#p696fd57a73)" style="fill: none; stroke: #1f77b4; stroke-width: 1.5"/>
    <path d="M 20.806284 31.527876 
L 20.743601 31.884695 
L 20.7436 31.884701 
L 20.742872 31.888843 
L 20.561919 31.856411 
L 20.415767 31.830218 
L 20.415176 31.830112 
L 20.365584 31.821225 
L 20.366297 31.86214 
L 20.372009 32.189975 
L 20.373068 32.250786 
L 20.373343 32.266544 
L 20.374191 32.315252 
L 20.37876 32.577418 
L 20.38236 32.784051 
L 20.38594 32.989557 
L 20.389602 33.199602 
L 20.393341 33.414195 
L 20.394337 33.471387 
L 20.397008 33.624713 
L 20.400617 33.831848 
L 20.411728 33.83154 
L 20.411733 33.83154 
L 20.60573 33.826153 
L 20.416841 34.029221 
L 20.416835 34.029227 
L 20.404291 34.042714 
L 20.403339 33.988092 
L 20.338985 34.07361 
L 20.296983 34.129425 
L 20.271592 34.163165 
L 20.238702 34.206872 
L 20.207038 34.249038 
L 20.175844 34.290579 
L 20.168367 34.300537 
L 20.152249 34.322002 
L 20.134321 34.345876 
L 20.100667 34.390692 
L 20.067884 34.43435 
L 20.035386 34.477628 
L 20.007675 34.514531 
L 20.00686 34.47827 
L 20.004252 34.362142 
L 20.001844 34.254963 
L 19.999409 34.146599 
L 19.995077 33.953743 
L 19.989315 33.697283 
L 19.988187 33.647035 
L 19.985283 33.517794 
L 19.980126 33.288263 
L 19.977264 33.160829 
L 19.971853 32.919998 
L 19.971039 32.877349 
L 19.971039 32.877324 
L 19.970368 32.842167 
L 19.970367 32.842128 
L 19.96822 32.729645 
L 19.962992 32.455708 
L 19.961854 32.39611 
L 19.959508 32.273186 
L 19.958774 32.234723 
L 19.957758 32.181474 
L 19.956004 32.089551 
L 19.951858 31.872289 
L 19.951071 31.831102 
L 19.949377 31.742351 
L 19.949185 31.73228 
L 19.946074 31.569311 
L 19.945056 31.516003 
L 19.944218 31.472115 
L 19.941394 31.32415 
L 19.940118 31.257275 
L 19.940105 31.256559 
L 19.939807 31.239116 
L 19.938867 31.184064 
L 19.933778 30.88599 
L 19.932962 30.838188 
L 19.929857 30.656322 
L 19.928201 30.559308 
L 19.927023 30.490327 
L 19.925015 30.372702 
L 19.923928 30.309002 
L 19.921521 30.168022 
L 19.920316 30.097424 
L 19.918129 29.969377 
L 19.915361 29.807239 
L 19.912034 29.711776 
L 19.916599 29.71171 
L 20.004499 29.71043 
L 20.039437 29.709917 
L 20.117674 29.708783 
L 20.421881 29.703405 
L 20.752049 29.6972 
L 20.754336 29.697155 
L 20.758912 29.697067 
L 20.758912 29.697069 
L 20.758913 29.697077 
L 20.758916 29.697116 
L 20.767551 29.80026 
L 20.775815 30.259513 
L 20.777386 30.346703 
L 20.777447 30.350129 
L 20.794046 31.272607 
L 20.795824 31.371405 
L 20.795988 31.423866 
L 20.796019 31.433828 
L 20.798799 31.459293 
L 20.806284 31.527876 
" clip-path="url(#p696fd57a73)" style="fill: none; stroke: #1f77b4; stroke-width: 1.5"/>
    <path d="M 159.17503 36.359918 
L 159.238006 36.810702 
L 159.304392 37.834708 
L 159.143496 37.7686 
L 159.124697 37.891693 
L 159.271938 38.936993 
L 159.319527 39.081924 
L 159.217955 39.305812 
L 159.248485 39.641252 
L 159.37706 40.076236 
L 159.286309 41.194118 
L 159.340512 41.322169 
L 159.313598 42.787556 
L 159.298059 42.858012 
L 159.872529 43.573616 
L 160.516126 44.22217 
L 160.980982 44.65826 
L 161.487815 44.84516 
L 161.756632 44.198188 
L 161.127681 46.109227 
L 161.069856 46.918529 
L 161.178343 48.314904 
L 161.244484 48.710774 
L 161.199385 48.816055 
L 161.280562 48.85272 
L 161.441526 49.044657 
L 162.127681 49.892935 
L 162.779266 49.95445 
L 161.546038 50.593788 
L 160.511979 50.82194 
L 149.325183 50.983793 
L 149.217562 43.255663 
L 149.101389 36.473574 
L 158.534596 36.323175 
L 158.589156 36.353886 
L 159.17503 36.359918 
L 159.17503 36.359918 
" clip-path="url(#p696fd57a73)" style="fill: none; stroke: #1f77b4; stroke-width: 1.5"/>
    <path d="M 83.671622 34.581442 
L 83.642063 38.206971 
L 81.898233 38.18852 
L 81.888255 37.053593 
L 78.742941 37.151695 
L 76.401301 37.23585 
L 76.406201 37.188504 
L 76.4811 27.577623 
L 77.237336 27.558491 
L 77.235678 27.497207 
L 77.236584 27.193737 
L 77.233126 27.193836 
L 77.05416 27.198964 
L 77.054559 27.126139 
L 77.06873 24.772781 
L 77.002636 24.77465 
L 76.492421 24.791654 
L 76.492967 24.68196 
L 76.502775 22.726894 
L 76.506388 22.726917 
L 83.77645 22.512453 
L 83.671622 34.581442 
L 83.671622 34.581442 
" clip-path="url(#p696fd57a73)" style="fill: none; stroke: #1f77b4; stroke-width: 1.5"/>
   </g>
  </g>
 </g>
 <defs>
  <clipPath id="p696fd57a73">
   <rect x="7.2" y="7.2" width="226.989812" height="277.2"/>
  </clipPath>
 </defs>
</svg>
