<?xml version="1.0" encoding="utf-8" standalone="no"?>
<!DOCTYPE svg PUBLIC "-//W3C//DTD SVG 1.1//EN"
  "http://www.w3.org/Graphics/SVG/1.1/DTD/svg11.dtd">
<svg xmlns:xlink="http://www.w3.org/1999/xlink" width="746.085625pt" height="325.986375pt" viewBox="0 0 746.085625 325.986375" xmlns="http://www.w3.org/2000/svg" version="1.1">
 <metadata>
  <rdf:RDF xmlns:dc="http://purl.org/dc/elements/1.1/" xmlns:cc="http://creativecommons.org/ns#" xmlns:rdf="http://www.w3.org/1999/02/22-rdf-syntax-ns#">
   <cc:Work>
    <dc:type rdf:resource="http://purl.org/dc/dcmitype/StillImage"/>
    <dc:date>2023-07-11T16:58:47.534463</dc:date>
    <dc:format>image/svg+xml</dc:format>
    <dc:creator>
     <cc:Agent>
      <dc:title>Matplotlib v3.6.3, https://matplotlib.org/</dc:title>
     </cc:Agent>
    </dc:creator>
   </cc:Work>
  </rdf:RDF>
 </metadata>
 <defs>
  <style type="text/css">*{stroke-linejoin: round; stroke-linecap: butt}</style>
 </defs>
 <g id="figure_1">
  <g id="patch_1">
   <path d="M 0 325.986375 
L 746.085625 325.986375 
L 746.085625 0 
L 0 0 
L 0 325.986375 
z
" style="fill: none"/>
  </g>
  <g id="axes_1">
   <g id="patch_2">
    <path d="M 46.965625 288.430125 
L 738.885625 288.430125 
L 738.885625 22.318125 
L 46.965625 22.318125 
L 46.965625 288.430125 
z
" style="fill: none"/>
   </g>
   <g id="matplotlib.axis_1">
    <g id="xtick_1">
     <g id="line2d_1">
      <path d="M 78.416534 288.430125 
L 78.416534 22.318125 
" clip-path="url(#p89b7ce777e)" style="fill: none; stroke-dasharray: 1.85,0.8; stroke-dashoffset: 0; stroke: #666666; stroke-opacity: 0.4; stroke-width: 0.5"/>
     </g>
     <g id="line2d_2">
      <defs>
       <path id="m9f4f2efa3d" d="M 0 0 
L 0 3.5 
" style="stroke: #000000; stroke-opacity: 0; stroke-width: 0.8"/>
      </defs>
      <g>
       <use xlink:href="#m9f4f2efa3d" x="78.416534" y="288.430125" style="fill-opacity: 0; stroke: #000000; stroke-opacity: 0; stroke-width: 0.8"/>
      </g>
     </g>
     <g id="text_1">
      <!-- 0 -->
      <g style="fill: #666666" transform="translate(75.235284 303.028562) scale(0.1 -0.1)">
       <defs>
        <path id="DejaVuSans-30" d="M 2034 4250 
Q 1547 4250 1301 3770 
Q 1056 3291 1056 2328 
Q 1056 1369 1301 889 
Q 1547 409 2034 409 
Q 2525 409 2770 889 
Q 3016 1369 3016 2328 
Q 3016 3291 2770 3770 
Q 2525 4250 2034 4250 
z
M 2034 4750 
Q 2819 4750 3233 4129 
Q 3647 3509 3647 2328 
Q 3647 1150 3233 529 
Q 2819 -91 2034 -91 
Q 1250 -91 836 529 
Q 422 1150 422 2328 
Q 422 3509 836 4129 
Q 1250 4750 2034 4750 
z
" transform="scale(0.015625)"/>
       </defs>
       <use xlink:href="#DejaVuSans-30"/>
      </g>
     </g>
    </g>
    <g id="xtick_2">
     <g id="line2d_3">
      <path d="M 166.69981 288.430125 
L 166.69981 22.318125 
" clip-path="url(#p89b7ce777e)" style="fill: none; stroke-dasharray: 1.85,0.8; stroke-dashoffset: 0; stroke: #666666; stroke-opacity: 0.4; stroke-width: 0.5"/>
     </g>
     <g id="line2d_4">
      <g>
       <use xlink:href="#m9f4f2efa3d" x="166.69981" y="288.430125" style="fill-opacity: 0; stroke: #000000; stroke-opacity: 0; stroke-width: 0.8"/>
      </g>
     </g>
     <g id="text_2">
      <!-- 50 -->
      <g style="fill: #666666" transform="translate(160.33731 303.028562) scale(0.1 -0.1)">
       <defs>
        <path id="DejaVuSans-35" d="M 691 4666 
L 3169 4666 
L 3169 4134 
L 1269 4134 
L 1269 2991 
Q 1406 3038 1543 3061 
Q 1681 3084 1819 3084 
Q 2600 3084 3056 2656 
Q 3513 2228 3513 1497 
Q 3513 744 3044 326 
Q 2575 -91 1722 -91 
Q 1428 -91 1123 -41 
Q 819 9 494 109 
L 494 744 
Q 775 591 1075 516 
Q 1375 441 1709 441 
Q 2250 441 2565 725 
Q 2881 1009 2881 1497 
Q 2881 1984 2565 2268 
Q 2250 2553 1709 2553 
Q 1456 2553 1204 2497 
Q 953 2441 691 2322 
L 691 4666 
z
" transform="scale(0.015625)"/>
       </defs>
       <use xlink:href="#DejaVuSans-35"/>
       <use xlink:href="#DejaVuSans-30" x="63.623047"/>
      </g>
     </g>
    </g>
    <g id="xtick_3">
     <g id="line2d_5">
      <path d="M 254.983087 288.430125 
L 254.983087 22.318125 
" clip-path="url(#p89b7ce777e)" style="fill: none; stroke-dasharray: 1.85,0.8; stroke-dashoffset: 0; stroke: #666666; stroke-opacity: 0.4; stroke-width: 0.5"/>
     </g>
     <g id="line2d_6">
      <g>
       <use xlink:href="#m9f4f2efa3d" x="254.983087" y="288.430125" style="fill-opacity: 0; stroke: #000000; stroke-opacity: 0; stroke-width: 0.8"/>
      </g>
     </g>
     <g id="text_3">
      <!-- 100 -->
      <g style="fill: #666666" transform="translate(245.439337 303.028562) scale(0.1 -0.1)">
       <defs>
        <path id="DejaVuSans-31" d="M 794 531 
L 1825 531 
L 1825 4091 
L 703 3866 
L 703 4441 
L 1819 4666 
L 2450 4666 
L 2450 531 
L 3481 531 
L 3481 0 
L 794 0 
L 794 531 
z
" transform="scale(0.015625)"/>
       </defs>
       <use xlink:href="#DejaVuSans-31"/>
       <use xlink:href="#DejaVuSans-30" x="63.623047"/>
       <use xlink:href="#DejaVuSans-30" x="127.246094"/>
      </g>
     </g>
    </g>
    <g id="xtick_4">
     <g id="line2d_7">
      <path d="M 343.266363 288.430125 
L 343.266363 22.318125 
" clip-path="url(#p89b7ce777e)" style="fill: none; stroke-dasharray: 1.85,0.8; stroke-dashoffset: 0; stroke: #666666; stroke-opacity: 0.4; stroke-width: 0.5"/>
     </g>
     <g id="line2d_8">
      <g>
       <use xlink:href="#m9f4f2efa3d" x="343.266363" y="288.430125" style="fill-opacity: 0; stroke: #000000; stroke-opacity: 0; stroke-width: 0.8"/>
      </g>
     </g>
     <g id="text_4">
      <!-- 150 -->
      <g style="fill: #666666" transform="translate(333.722613 303.028562) scale(0.1 -0.1)">
       <use xlink:href="#DejaVuSans-31"/>
       <use xlink:href="#DejaVuSans-35" x="63.623047"/>
       <use xlink:href="#DejaVuSans-30" x="127.246094"/>
      </g>
     </g>
    </g>
    <g id="xtick_5">
     <g id="line2d_9">
      <path d="M 431.549639 288.430125 
L 431.549639 22.318125 
" clip-path="url(#p89b7ce777e)" style="fill: none; stroke-dasharray: 1.85,0.8; stroke-dashoffset: 0; stroke: #666666; stroke-opacity: 0.4; stroke-width: 0.5"/>
     </g>
     <g id="line2d_10">
      <g>
       <use xlink:href="#m9f4f2efa3d" x="431.549639" y="288.430125" style="fill-opacity: 0; stroke: #000000; stroke-opacity: 0; stroke-width: 0.8"/>
      </g>
     </g>
     <g id="text_5">
      <!-- 200 -->
      <g style="fill: #666666" transform="translate(422.005889 303.028562) scale(0.1 -0.1)">
       <defs>
        <path id="DejaVuSans-32" d="M 1228 531 
L 3431 531 
L 3431 0 
L 469 0 
L 469 531 
Q 828 903 1448 1529 
Q 2069 2156 2228 2338 
Q 2531 2678 2651 2914 
Q 2772 3150 2772 3378 
Q 2772 3750 2511 3984 
Q 2250 4219 1831 4219 
Q 1534 4219 1204 4116 
Q 875 4013 500 3803 
L 500 4441 
Q 881 4594 1212 4672 
Q 1544 4750 1819 4750 
Q 2544 4750 2975 4387 
Q 3406 4025 3406 3419 
Q 3406 3131 3298 2873 
Q 3191 2616 2906 2266 
Q 2828 2175 2409 1742 
Q 1991 1309 1228 531 
z
" transform="scale(0.015625)"/>
       </defs>
       <use xlink:href="#DejaVuSans-32"/>
       <use xlink:href="#DejaVuSans-30" x="63.623047"/>
       <use xlink:href="#DejaVuSans-30" x="127.246094"/>
      </g>
     </g>
    </g>
    <g id="xtick_6">
     <g id="line2d_11">
      <path d="M 519.832915 288.430125 
L 519.832915 22.318125 
" clip-path="url(#p89b7ce777e)" style="fill: none; stroke-dasharray: 1.85,0.8; stroke-dashoffset: 0; stroke: #666666; stroke-opacity: 0.4; stroke-width: 0.5"/>
     </g>
     <g id="line2d_12">
      <g>
       <use xlink:href="#m9f4f2efa3d" x="519.832915" y="288.430125" style="fill-opacity: 0; stroke: #000000; stroke-opacity: 0; stroke-width: 0.8"/>
      </g>
     </g>
     <g id="text_6">
      <!-- 250 -->
      <g style="fill: #666666" transform="translate(510.289165 303.028562) scale(0.1 -0.1)">
       <use xlink:href="#DejaVuSans-32"/>
       <use xlink:href="#DejaVuSans-35" x="63.623047"/>
       <use xlink:href="#DejaVuSans-30" x="127.246094"/>
      </g>
     </g>
    </g>
    <g id="xtick_7">
     <g id="line2d_13">
      <path d="M 608.116192 288.430125 
L 608.116192 22.318125 
" clip-path="url(#p89b7ce777e)" style="fill: none; stroke-dasharray: 1.85,0.8; stroke-dashoffset: 0; stroke: #666666; stroke-opacity: 0.4; stroke-width: 0.5"/>
     </g>
     <g id="line2d_14">
      <g>
       <use xlink:href="#m9f4f2efa3d" x="608.116192" y="288.430125" style="fill-opacity: 0; stroke: #000000; stroke-opacity: 0; stroke-width: 0.8"/>
      </g>
     </g>
     <g id="text_7">
      <!-- 300 -->
      <g style="fill: #666666" transform="translate(598.572442 303.028562) scale(0.1 -0.1)">
       <defs>
        <path id="DejaVuSans-33" d="M 2597 2516 
Q 3050 2419 3304 2112 
Q 3559 1806 3559 1356 
Q 3559 666 3084 287 
Q 2609 -91 1734 -91 
Q 1441 -91 1130 -33 
Q 819 25 488 141 
L 488 750 
Q 750 597 1062 519 
Q 1375 441 1716 441 
Q 2309 441 2620 675 
Q 2931 909 2931 1356 
Q 2931 1769 2642 2001 
Q 2353 2234 1838 2234 
L 1294 2234 
L 1294 2753 
L 1863 2753 
Q 2328 2753 2575 2939 
Q 2822 3125 2822 3475 
Q 2822 3834 2567 4026 
Q 2313 4219 1838 4219 
Q 1578 4219 1281 4162 
Q 984 4106 628 3988 
L 628 4550 
Q 988 4650 1302 4700 
Q 1616 4750 1894 4750 
Q 2613 4750 3031 4423 
Q 3450 4097 3450 3541 
Q 3450 3153 3228 2886 
Q 3006 2619 2597 2516 
z
" transform="scale(0.015625)"/>
       </defs>
       <use xlink:href="#DejaVuSans-33"/>
       <use xlink:href="#DejaVuSans-30" x="63.623047"/>
       <use xlink:href="#DejaVuSans-30" x="127.246094"/>
      </g>
     </g>
    </g>
    <g id="xtick_8">
     <g id="line2d_15">
      <path d="M 696.399468 288.430125 
L 696.399468 22.318125 
" clip-path="url(#p89b7ce777e)" style="fill: none; stroke-dasharray: 1.85,0.8; stroke-dashoffset: 0; stroke: #666666; stroke-opacity: 0.4; stroke-width: 0.5"/>
     </g>
     <g id="line2d_16">
      <g>
       <use xlink:href="#m9f4f2efa3d" x="696.399468" y="288.430125" style="fill-opacity: 0; stroke: #000000; stroke-opacity: 0; stroke-width: 0.8"/>
      </g>
     </g>
     <g id="text_8">
      <!-- 350 -->
      <g style="fill: #666666" transform="translate(686.855718 303.028562) scale(0.1 -0.1)">
       <use xlink:href="#DejaVuSans-33"/>
       <use xlink:href="#DejaVuSans-35" x="63.623047"/>
       <use xlink:href="#DejaVuSans-30" x="127.246094"/>
      </g>
     </g>
    </g>
    <g id="text_9">
     <!-- Longitude / degrees -->
     <g style="fill: #666666" transform="translate(343.067813 316.706687) scale(0.1 -0.1)">
      <defs>
       <path id="DejaVuSans-4c" d="M 628 4666 
L 1259 4666 
L 1259 531 
L 3531 531 
L 3531 0 
L 628 0 
L 628 4666 
z
" transform="scale(0.015625)"/>
       <path id="DejaVuSans-6f" d="M 1959 3097 
Q 1497 3097 1228 2736 
Q 959 2375 959 1747 
Q 959 1119 1226 758 
Q 1494 397 1959 397 
Q 2419 397 2687 759 
Q 2956 1122 2956 1747 
Q 2956 2369 2687 2733 
Q 2419 3097 1959 3097 
z
M 1959 3584 
Q 2709 3584 3137 3096 
Q 3566 2609 3566 1747 
Q 3566 888 3137 398 
Q 2709 -91 1959 -91 
Q 1206 -91 779 398 
Q 353 888 353 1747 
Q 353 2609 779 3096 
Q 1206 3584 1959 3584 
z
" transform="scale(0.015625)"/>
       <path id="DejaVuSans-6e" d="M 3513 2113 
L 3513 0 
L 2938 0 
L 2938 2094 
Q 2938 2591 2744 2837 
Q 2550 3084 2163 3084 
Q 1697 3084 1428 2787 
Q 1159 2491 1159 1978 
L 1159 0 
L 581 0 
L 581 3500 
L 1159 3500 
L 1159 2956 
Q 1366 3272 1645 3428 
Q 1925 3584 2291 3584 
Q 2894 3584 3203 3211 
Q 3513 2838 3513 2113 
z
" transform="scale(0.015625)"/>
       <path id="DejaVuSans-67" d="M 2906 1791 
Q 2906 2416 2648 2759 
Q 2391 3103 1925 3103 
Q 1463 3103 1205 2759 
Q 947 2416 947 1791 
Q 947 1169 1205 825 
Q 1463 481 1925 481 
Q 2391 481 2648 825 
Q 2906 1169 2906 1791 
z
M 3481 434 
Q 3481 -459 3084 -895 
Q 2688 -1331 1869 -1331 
Q 1566 -1331 1297 -1286 
Q 1028 -1241 775 -1147 
L 775 -588 
Q 1028 -725 1275 -790 
Q 1522 -856 1778 -856 
Q 2344 -856 2625 -561 
Q 2906 -266 2906 331 
L 2906 616 
Q 2728 306 2450 153 
Q 2172 0 1784 0 
Q 1141 0 747 490 
Q 353 981 353 1791 
Q 353 2603 747 3093 
Q 1141 3584 1784 3584 
Q 2172 3584 2450 3431 
Q 2728 3278 2906 2969 
L 2906 3500 
L 3481 3500 
L 3481 434 
z
" transform="scale(0.015625)"/>
       <path id="DejaVuSans-69" d="M 603 3500 
L 1178 3500 
L 1178 0 
L 603 0 
L 603 3500 
z
M 603 4863 
L 1178 4863 
L 1178 4134 
L 603 4134 
L 603 4863 
z
" transform="scale(0.015625)"/>
       <path id="DejaVuSans-74" d="M 1172 4494 
L 1172 3500 
L 2356 3500 
L 2356 3053 
L 1172 3053 
L 1172 1153 
Q 1172 725 1289 603 
Q 1406 481 1766 481 
L 2356 481 
L 2356 0 
L 1766 0 
Q 1100 0 847 248 
Q 594 497 594 1153 
L 594 3053 
L 172 3053 
L 172 3500 
L 594 3500 
L 594 4494 
L 1172 4494 
z
" transform="scale(0.015625)"/>
       <path id="DejaVuSans-75" d="M 544 1381 
L 544 3500 
L 1119 3500 
L 1119 1403 
Q 1119 906 1312 657 
Q 1506 409 1894 409 
Q 2359 409 2629 706 
Q 2900 1003 2900 1516 
L 2900 3500 
L 3475 3500 
L 3475 0 
L 2900 0 
L 2900 538 
Q 2691 219 2414 64 
Q 2138 -91 1772 -91 
Q 1169 -91 856 284 
Q 544 659 544 1381 
z
M 1991 3584 
L 1991 3584 
z
" transform="scale(0.015625)"/>
       <path id="DejaVuSans-64" d="M 2906 2969 
L 2906 4863 
L 3481 4863 
L 3481 0 
L 2906 0 
L 2906 525 
Q 2725 213 2448 61 
Q 2172 -91 1784 -91 
Q 1150 -91 751 415 
Q 353 922 353 1747 
Q 353 2572 751 3078 
Q 1150 3584 1784 3584 
Q 2172 3584 2448 3432 
Q 2725 3281 2906 2969 
z
M 947 1747 
Q 947 1113 1208 752 
Q 1469 391 1925 391 
Q 2381 391 2643 752 
Q 2906 1113 2906 1747 
Q 2906 2381 2643 2742 
Q 2381 3103 1925 3103 
Q 1469 3103 1208 2742 
Q 947 2381 947 1747 
z
" transform="scale(0.015625)"/>
       <path id="DejaVuSans-65" d="M 3597 1894 
L 3597 1613 
L 953 1613 
Q 991 1019 1311 708 
Q 1631 397 2203 397 
Q 2534 397 2845 478 
Q 3156 559 3463 722 
L 3463 178 
Q 3153 47 2828 -22 
Q 2503 -91 2169 -91 
Q 1331 -91 842 396 
Q 353 884 353 1716 
Q 353 2575 817 3079 
Q 1281 3584 2069 3584 
Q 2775 3584 3186 3129 
Q 3597 2675 3597 1894 
z
M 3022 2063 
Q 3016 2534 2758 2815 
Q 2500 3097 2075 3097 
Q 1594 3097 1305 2825 
Q 1016 2553 972 2059 
L 3022 2063 
z
" transform="scale(0.015625)"/>
       <path id="DejaVuSans-20" transform="scale(0.015625)"/>
       <path id="DejaVuSans-2f" d="M 1625 4666 
L 2156 4666 
L 531 -594 
L 0 -594 
L 1625 4666 
z
" transform="scale(0.015625)"/>
       <path id="DejaVuSans-72" d="M 2631 2963 
Q 2534 3019 2420 3045 
Q 2306 3072 2169 3072 
Q 1681 3072 1420 2755 
Q 1159 2438 1159 1844 
L 1159 0 
L 581 0 
L 581 3500 
L 1159 3500 
L 1159 2956 
Q 1341 3275 1631 3429 
Q 1922 3584 2338 3584 
Q 2397 3584 2469 3576 
Q 2541 3569 2628 3553 
L 2631 2963 
z
" transform="scale(0.015625)"/>
       <path id="DejaVuSans-73" d="M 2834 3397 
L 2834 2853 
Q 2591 2978 2328 3040 
Q 2066 3103 1784 3103 
Q 1356 3103 1142 2972 
Q 928 2841 928 2578 
Q 928 2378 1081 2264 
Q 1234 2150 1697 2047 
L 1894 2003 
Q 2506 1872 2764 1633 
Q 3022 1394 3022 966 
Q 3022 478 2636 193 
Q 2250 -91 1575 -91 
Q 1294 -91 989 -36 
Q 684 19 347 128 
L 347 722 
Q 666 556 975 473 
Q 1284 391 1588 391 
Q 1994 391 2212 530 
Q 2431 669 2431 922 
Q 2431 1156 2273 1281 
Q 2116 1406 1581 1522 
L 1381 1569 
Q 847 1681 609 1914 
Q 372 2147 372 2553 
Q 372 3047 722 3315 
Q 1072 3584 1716 3584 
Q 2034 3584 2315 3537 
Q 2597 3491 2834 3397 
z
" transform="scale(0.015625)"/>
      </defs>
      <use xlink:href="#DejaVuSans-4c"/>
      <use xlink:href="#DejaVuSans-6f" x="53.962891"/>
      <use xlink:href="#DejaVuSans-6e" x="115.144531"/>
      <use xlink:href="#DejaVuSans-67" x="178.523438"/>
      <use xlink:href="#DejaVuSans-69" x="242"/>
      <use xlink:href="#DejaVuSans-74" x="269.783203"/>
      <use xlink:href="#DejaVuSans-75" x="308.992188"/>
      <use xlink:href="#DejaVuSans-64" x="372.371094"/>
      <use xlink:href="#DejaVuSans-65" x="435.847656"/>
      <use xlink:href="#DejaVuSans-20" x="497.371094"/>
      <use xlink:href="#DejaVuSans-2f" x="529.158203"/>
      <use xlink:href="#DejaVuSans-20" x="562.849609"/>
      <use xlink:href="#DejaVuSans-64" x="594.636719"/>
      <use xlink:href="#DejaVuSans-65" x="658.113281"/>
      <use xlink:href="#DejaVuSans-67" x="719.636719"/>
      <use xlink:href="#DejaVuSans-72" x="783.113281"/>
      <use xlink:href="#DejaVuSans-65" x="821.976562"/>
      <use xlink:href="#DejaVuSans-65" x="883.5"/>
      <use xlink:href="#DejaVuSans-73" x="945.023438"/>
     </g>
    </g>
   </g>
   <g id="matplotlib.axis_2">
    <g id="ytick_1">
     <g id="line2d_17">
      <path d="M 46.965625 271.178193 
L 738.885625 271.178193 
" clip-path="url(#p89b7ce777e)" style="fill: none; stroke-dasharray: 1.85,0.8; stroke-dashoffset: 0; stroke: #666666; stroke-opacity: 0.4; stroke-width: 0.5"/>
     </g>
     <g id="line2d_18">
      <defs>
       <path id="m7e234f4799" d="M 0 0 
L -3.5 0 
" style="stroke: #000000; stroke-opacity: 0; stroke-width: 0.8"/>
      </defs>
      <g>
       <use xlink:href="#m7e234f4799" x="46.965625" y="271.178193" style="fill-opacity: 0; stroke: #000000; stroke-opacity: 0; stroke-width: 0.8"/>
      </g>
     </g>
     <g id="text_10">
      <!-- 255 -->
      <g style="fill: #666666" transform="translate(20.878125 274.977412) scale(0.1 -0.1)">
       <use xlink:href="#DejaVuSans-32"/>
       <use xlink:href="#DejaVuSans-35" x="63.623047"/>
       <use xlink:href="#DejaVuSans-35" x="127.246094"/>
      </g>
     </g>
    </g>
    <g id="ytick_2">
     <g id="line2d_19">
      <path d="M 46.965625 215.503781 
L 738.885625 215.503781 
" clip-path="url(#p89b7ce777e)" style="fill: none; stroke-dasharray: 1.85,0.8; stroke-dashoffset: 0; stroke: #666666; stroke-opacity: 0.4; stroke-width: 0.5"/>
     </g>
     <g id="line2d_20">
      <g>
       <use xlink:href="#m7e234f4799" x="46.965625" y="215.503781" style="fill-opacity: 0; stroke: #000000; stroke-opacity: 0; stroke-width: 0.8"/>
      </g>
     </g>
     <g id="text_11">
      <!-- 260 -->
      <g style="fill: #666666" transform="translate(20.878125 219.303) scale(0.1 -0.1)">
       <defs>
        <path id="DejaVuSans-36" d="M 2113 2584 
Q 1688 2584 1439 2293 
Q 1191 2003 1191 1497 
Q 1191 994 1439 701 
Q 1688 409 2113 409 
Q 2538 409 2786 701 
Q 3034 994 3034 1497 
Q 3034 2003 2786 2293 
Q 2538 2584 2113 2584 
z
M 3366 4563 
L 3366 3988 
Q 3128 4100 2886 4159 
Q 2644 4219 2406 4219 
Q 1781 4219 1451 3797 
Q 1122 3375 1075 2522 
Q 1259 2794 1537 2939 
Q 1816 3084 2150 3084 
Q 2853 3084 3261 2657 
Q 3669 2231 3669 1497 
Q 3669 778 3244 343 
Q 2819 -91 2113 -91 
Q 1303 -91 875 529 
Q 447 1150 447 2328 
Q 447 3434 972 4092 
Q 1497 4750 2381 4750 
Q 2619 4750 2861 4703 
Q 3103 4656 3366 4563 
z
" transform="scale(0.015625)"/>
       </defs>
       <use xlink:href="#DejaVuSans-32"/>
       <use xlink:href="#DejaVuSans-36" x="63.623047"/>
       <use xlink:href="#DejaVuSans-30" x="127.246094"/>
      </g>
     </g>
    </g>
    <g id="ytick_3">
     <g id="line2d_21">
      <path d="M 46.965625 159.829369 
L 738.885625 159.829369 
" clip-path="url(#p89b7ce777e)" style="fill: none; stroke-dasharray: 1.85,0.8; stroke-dashoffset: 0; stroke: #666666; stroke-opacity: 0.4; stroke-width: 0.5"/>
     </g>
     <g id="line2d_22">
      <g>
       <use xlink:href="#m7e234f4799" x="46.965625" y="159.829369" style="fill-opacity: 0; stroke: #000000; stroke-opacity: 0; stroke-width: 0.8"/>
      </g>
     </g>
     <g id="text_12">
      <!-- 265 -->
      <g style="fill: #666666" transform="translate(20.878125 163.628588) scale(0.1 -0.1)">
       <use xlink:href="#DejaVuSans-32"/>
       <use xlink:href="#DejaVuSans-36" x="63.623047"/>
       <use xlink:href="#DejaVuSans-35" x="127.246094"/>
      </g>
     </g>
    </g>
    <g id="ytick_4">
     <g id="line2d_23">
      <path d="M 46.965625 104.154957 
L 738.885625 104.154957 
" clip-path="url(#p89b7ce777e)" style="fill: none; stroke-dasharray: 1.85,0.8; stroke-dashoffset: 0; stroke: #666666; stroke-opacity: 0.4; stroke-width: 0.5"/>
     </g>
     <g id="line2d_24">
      <g>
       <use xlink:href="#m7e234f4799" x="46.965625" y="104.154957" style="fill-opacity: 0; stroke: #000000; stroke-opacity: 0; stroke-width: 0.8"/>
      </g>
     </g>
     <g id="text_13">
      <!-- 270 -->
      <g style="fill: #666666" transform="translate(20.878125 107.954176) scale(0.1 -0.1)">
       <defs>
        <path id="DejaVuSans-37" d="M 525 4666 
L 3525 4666 
L 3525 4397 
L 1831 0 
L 1172 0 
L 2766 4134 
L 525 4134 
L 525 4666 
z
" transform="scale(0.015625)"/>
       </defs>
       <use xlink:href="#DejaVuSans-32"/>
       <use xlink:href="#DejaVuSans-37" x="63.623047"/>
       <use xlink:href="#DejaVuSans-30" x="127.246094"/>
      </g>
     </g>
    </g>
    <g id="ytick_5">
     <g id="line2d_25">
      <path d="M 46.965625 48.480545 
L 738.885625 48.480545 
" clip-path="url(#p89b7ce777e)" style="fill: none; stroke-dasharray: 1.85,0.8; stroke-dashoffset: 0; stroke: #666666; stroke-opacity: 0.4; stroke-width: 0.5"/>
     </g>
     <g id="line2d_26">
      <g>
       <use xlink:href="#m7e234f4799" x="46.965625" y="48.480545" style="fill-opacity: 0; stroke: #000000; stroke-opacity: 0; stroke-width: 0.8"/>
      </g>
     </g>
     <g id="text_14">
      <!-- 275 -->
      <g style="fill: #666666" transform="translate(20.878125 52.279764) scale(0.1 -0.1)">
       <use xlink:href="#DejaVuSans-32"/>
       <use xlink:href="#DejaVuSans-37" x="63.623047"/>
       <use xlink:href="#DejaVuSans-35" x="127.246094"/>
      </g>
     </g>
    </g>
    <g id="text_15">
     <!-- Air temperature / K -->
     <g style="fill: #666666" transform="translate(14.798438 203.395219) rotate(-90) scale(0.1 -0.1)">
      <defs>
       <path id="DejaVuSans-41" d="M 2188 4044 
L 1331 1722 
L 3047 1722 
L 2188 4044 
z
M 1831 4666 
L 2547 4666 
L 4325 0 
L 3669 0 
L 3244 1197 
L 1141 1197 
L 716 0 
L 50 0 
L 1831 4666 
z
" transform="scale(0.015625)"/>
       <path id="DejaVuSans-6d" d="M 3328 2828 
Q 3544 3216 3844 3400 
Q 4144 3584 4550 3584 
Q 5097 3584 5394 3201 
Q 5691 2819 5691 2113 
L 5691 0 
L 5113 0 
L 5113 2094 
Q 5113 2597 4934 2840 
Q 4756 3084 4391 3084 
Q 3944 3084 3684 2787 
Q 3425 2491 3425 1978 
L 3425 0 
L 2847 0 
L 2847 2094 
Q 2847 2600 2669 2842 
Q 2491 3084 2119 3084 
Q 1678 3084 1418 2786 
Q 1159 2488 1159 1978 
L 1159 0 
L 581 0 
L 581 3500 
L 1159 3500 
L 1159 2956 
Q 1356 3278 1631 3431 
Q 1906 3584 2284 3584 
Q 2666 3584 2933 3390 
Q 3200 3197 3328 2828 
z
" transform="scale(0.015625)"/>
       <path id="DejaVuSans-70" d="M 1159 525 
L 1159 -1331 
L 581 -1331 
L 581 3500 
L 1159 3500 
L 1159 2969 
Q 1341 3281 1617 3432 
Q 1894 3584 2278 3584 
Q 2916 3584 3314 3078 
Q 3713 2572 3713 1747 
Q 3713 922 3314 415 
Q 2916 -91 2278 -91 
Q 1894 -91 1617 61 
Q 1341 213 1159 525 
z
M 3116 1747 
Q 3116 2381 2855 2742 
Q 2594 3103 2138 3103 
Q 1681 3103 1420 2742 
Q 1159 2381 1159 1747 
Q 1159 1113 1420 752 
Q 1681 391 2138 391 
Q 2594 391 2855 752 
Q 3116 1113 3116 1747 
z
" transform="scale(0.015625)"/>
       <path id="DejaVuSans-61" d="M 2194 1759 
Q 1497 1759 1228 1600 
Q 959 1441 959 1056 
Q 959 750 1161 570 
Q 1363 391 1709 391 
Q 2188 391 2477 730 
Q 2766 1069 2766 1631 
L 2766 1759 
L 2194 1759 
z
M 3341 1997 
L 3341 0 
L 2766 0 
L 2766 531 
Q 2569 213 2275 61 
Q 1981 -91 1556 -91 
Q 1019 -91 701 211 
Q 384 513 384 1019 
Q 384 1609 779 1909 
Q 1175 2209 1959 2209 
L 2766 2209 
L 2766 2266 
Q 2766 2663 2505 2880 
Q 2244 3097 1772 3097 
Q 1472 3097 1187 3025 
Q 903 2953 641 2809 
L 641 3341 
Q 956 3463 1253 3523 
Q 1550 3584 1831 3584 
Q 2591 3584 2966 3190 
Q 3341 2797 3341 1997 
z
" transform="scale(0.015625)"/>
       <path id="DejaVuSans-4b" d="M 628 4666 
L 1259 4666 
L 1259 2694 
L 3353 4666 
L 4166 4666 
L 1850 2491 
L 4331 0 
L 3500 0 
L 1259 2247 
L 1259 0 
L 628 0 
L 628 4666 
z
" transform="scale(0.015625)"/>
      </defs>
      <use xlink:href="#DejaVuSans-41"/>
      <use xlink:href="#DejaVuSans-69" x="68.408203"/>
      <use xlink:href="#DejaVuSans-72" x="96.191406"/>
      <use xlink:href="#DejaVuSans-20" x="137.304688"/>
      <use xlink:href="#DejaVuSans-74" x="169.091797"/>
      <use xlink:href="#DejaVuSans-65" x="208.300781"/>
      <use xlink:href="#DejaVuSans-6d" x="269.824219"/>
      <use xlink:href="#DejaVuSans-70" x="367.236328"/>
      <use xlink:href="#DejaVuSans-65" x="430.712891"/>
      <use xlink:href="#DejaVuSans-72" x="492.236328"/>
      <use xlink:href="#DejaVuSans-61" x="533.349609"/>
      <use xlink:href="#DejaVuSans-74" x="594.628906"/>
      <use xlink:href="#DejaVuSans-75" x="633.837891"/>
      <use xlink:href="#DejaVuSans-72" x="697.216797"/>
      <use xlink:href="#DejaVuSans-65" x="736.080078"/>
      <use xlink:href="#DejaVuSans-20" x="797.603516"/>
      <use xlink:href="#DejaVuSans-2f" x="829.390625"/>
      <use xlink:href="#DejaVuSans-20" x="863.082031"/>
      <use xlink:href="#DejaVuSans-4b" x="894.869141"/>
     </g>
    </g>
   </g>
   <g id="line2d_27">
    <path d="M 78.416534 133.809465 
L 85.037778 127.531142 
L 91.659022 116.80675 
L 98.280266 122.434337 
L 104.90151 133.332372 
L 111.522756 152.232925 
L 118.143998 161.124044 
L 124.765241 156.799287 
L 131.386486 152.668221 
L 138.007732 159.567716 
L 144.628978 163.051444 
L 151.250217 168.283833 
L 157.871463 174.906723 
L 164.492708 178.438365 
L 171.113947 184.592997 
L 177.735193 196.929446 
L 184.356439 204.582299 
L 190.977684 207.769034 
L 197.59893 213.570264 
L 204.220176 222.838912 
L 210.841422 227.312166 
L 217.462654 233.543596 
L 224.0839 236.041876 
L 230.705145 236.430618 
L 237.326391 238.678799 
L 243.947637 239.086571 
L 250.568882 240.05095 
L 257.190128 260.913224 
L 263.81136 261.646873 
L 270.432606 250.305726 
L 277.053852 250.138879 
L 283.675098 249.930576 
L 290.296343 251.245639 
L 296.917589 253.109155 
L 303.538835 253.923339 
L 310.16008 253.166583 
L 316.781326 253.38712 
L 323.402572 254.318198 
L 330.023818 255.615931 
L 336.645063 256.534436 
L 343.266309 257.02716 
L 349.887528 258.007171 
L 356.508774 258.749316 
L 363.130019 259.129223 
L 369.751265 259.785056 
L 376.372511 260.203021 
L 382.993756 259.952922 
L 389.615002 259.648112 
L 396.236248 259.517965 
L 402.857494 260.177536 
L 409.478739 261.253033 
L 416.099985 263.046718 
L 422.721231 264.184571 
L 429.342476 264.746276 
L 435.963722 264.241829 
L 442.584968 263.871436 
L 449.206187 264.055783 
L 455.827432 264.645183 
L 462.448678 266.151049 
L 469.069924 268.230854 
L 475.69117 269.562738 
L 482.312415 269.47031 
L 488.933661 268.331438 
L 495.554907 267.987211 
L 502.176152 266.807562 
L 508.797398 267.201571 
L 515.418644 270.162502 
L 522.03989 273.872544 
L 528.661135 276.334125 
L 535.282381 273.275159 
L 541.903627 265.698423 
L 548.524872 259.167282 
L 555.146118 253.397314 
L 561.767364 229.325878 
L 568.38861 230.216859 
L 575.009855 253.499936 
L 581.631101 216.126313 
L 588.252347 214.661053 
L 594.873593 171.428432 
L 601.494838 136.044733 
L 608.116084 152.465015 
L 614.737276 127.151235 
L 621.358522 109.057051 
L 627.979767 103.365919 
L 634.601013 103.460726 
L 641.222259 106.541101 
L 647.843504 113.515693 
L 654.46475 127.412209 
L 661.085996 134.200926 
L 667.707242 164.262866 
L 674.328487 182.148067 
L 680.949733 214.557072 
L 687.570979 222.352305 
L 694.192224 217.045837 
L 700.81347 187.53337 
L 707.434716 146.941069 
" clip-path="url(#p89b7ce777e)" style="fill: none; stroke: #1f77b4; stroke-width: 1.5; stroke-linecap: square"/>
   </g>
   <g id="line2d_28">
    <path d="M 78.416534 111.874413 
L 85.037778 102.90004 
L 91.659022 90.667912 
L 98.280266 97.867799 
L 104.90151 106.371196 
L 111.522756 114.857942 
L 118.143998 115.294257 
L 124.765241 109.712204 
L 131.386486 109.995266 
L 138.007732 117.019471 
L 144.628978 121.122672 
L 151.250217 123.902655 
L 157.871463 127.074438 
L 164.492708 131.78386 
L 171.113947 143.184134 
L 177.735193 175.872462 
L 184.356439 196.811532 
L 190.977684 199.483795 
L 197.59893 203.222721 
L 204.220176 214.124834 
L 210.841422 219.085035 
L 217.462654 222.457646 
L 224.0839 224.801653 
L 230.705145 224.808789 
L 237.326391 246.270146 
L 243.947637 239.792355 
L 250.568882 236.80169 
L 257.190128 240.376488 
L 263.81136 241.723493 
L 270.432606 246.508693 
L 277.053852 254.591065 
L 283.675098 242.384763 
L 290.296343 244.146336 
L 296.917589 246.914425 
L 303.538835 248.499637 
L 310.16008 247.510112 
L 316.781326 246.449906 
L 323.402572 246.971513 
L 330.023818 247.693269 
L 336.645063 247.350741 
L 343.266309 247.581812 
L 349.887528 249.26251 
L 356.508774 251.431175 
L 363.130019 252.232107 
L 369.751265 253.271584 
L 376.372511 253.509451 
L 382.993756 253.985524 
L 389.615002 254.934613 
L 396.236248 256.275502 
L 402.857494 256.853858 
L 409.478739 257.137938 
L 416.099985 258.307223 
L 422.721231 259.381701 
L 429.342476 260.130982 
L 435.963722 259.908067 
L 442.584968 259.680054 
L 449.206187 260.917471 
L 455.827432 260.789873 
L 462.448678 260.539773 
L 469.069924 260.828951 
L 475.69117 260.95604 
L 482.312415 260.175837 
L 488.933661 259.582189 
L 495.554907 261.50925 
L 502.176152 259.592044 
L 508.797398 257.378184 
L 515.418644 259.317138 
L 522.03989 264.04389 
L 528.661135 266.433431 
L 535.282381 262.666981 
L 541.903627 256.677836 
L 548.524872 251.918462 
L 555.146118 260.316858 
L 561.767364 245.837229 
L 568.38861 262.79373 
L 575.009855 248.951924 
L 581.631101 232.122512 
L 588.252347 231.097986 
L 594.873593 231.826198 
L 601.494838 211.781506 
L 608.116084 180.98252 
L 614.737276 167.208675 
L 621.358522 111.577079 
L 627.979767 98.737712 
L 634.601013 101.354926 
L 641.222259 106.723239 
L 647.843504 110.396581 
L 654.46475 108.160973 
L 661.085996 106.650179 
L 667.707242 106.581198 
L 674.328487 147.165683 
L 680.949733 212.075782 
L 687.570979 196.076184 
L 694.192224 164.117087 
L 700.81347 133.903253 
L 707.434716 116.869954 
" clip-path="url(#p89b7ce777e)" style="fill: none; stroke: #ff7f0e; stroke-width: 1.5; stroke-linecap: square"/>
   </g>
   <g id="line2d_29">
    <path d="M 78.416534 84.42493 
L 85.037778 74.890891 
L 91.659022 63.708435 
L 98.280266 55.180232 
L 104.90151 54.830228 
L 111.522756 69.326508 
L 118.143998 77.23116 
L 124.765241 64.999032 
L 131.386486 68.940484 
L 138.007732 82.256604 
L 144.628978 93.107746 
L 151.250217 97.841974 
L 157.871463 102.016195 
L 164.492708 112.295437 
L 171.113947 127.293615 
L 177.735193 175.200319 
L 184.356439 187.606089 
L 190.977684 182.55312 
L 197.59893 190.10403 
L 204.220176 209.342353 
L 210.841422 212.424766 
L 217.462654 212.762197 
L 224.0839 225.047335 
L 230.705145 221.674724 
L 237.326391 221.585694 
L 243.947637 224.111499 
L 250.568882 225.954967 
L 257.190128 225.246124 
L 263.81136 233.359759 
L 270.432606 241.079214 
L 277.053852 244.911248 
L 283.675098 241.465918 
L 290.296343 242.392918 
L 296.917589 248.438812 
L 303.538835 248.114633 
L 310.16008 242.792535 
L 316.781326 242.061944 
L 323.402572 243.713419 
L 330.023818 243.201326 
L 336.645063 241.739804 
L 343.266309 242.401074 
L 349.887528 244.648575 
L 356.508774 245.350621 
L 363.130019 245.540915 
L 369.751265 244.65741 
L 376.372511 244.071238 
L 382.993756 243.785458 
L 389.615002 244.897315 
L 396.236248 244.656051 
L 402.857494 242.293354 
L 409.478739 237.567621 
L 416.099985 235.098565 
L 422.721231 235.602502 
L 429.342476 236.396637 
L 435.963722 236.149596 
L 442.584968 233.676461 
L 449.206187 236.760913 
L 455.827432 240.751298 
L 462.448678 240.901494 
L 469.069924 240.054348 
L 475.69117 238.554768 
L 482.312415 237.464659 
L 488.933661 236.74868 
L 495.554907 247.789096 
L 502.176152 239.351962 
L 508.797398 237.970296 
L 515.418644 244.250997 
L 522.03989 249.08343 
L 528.661135 257.264348 
L 535.282381 255.702582 
L 541.903627 249.76203 
L 548.524872 261.25864 
L 555.146118 241.685435 
L 561.767364 231.288959 
L 568.38861 246.193689 
L 575.009855 240.570179 
L 581.631101 234.988466 
L 588.252347 234.0003 
L 594.873593 229.175343 
L 601.494838 223.004739 
L 608.116084 198.517377 
L 614.737276 159.030817 
L 621.358522 161.622885 
L 627.979767 81.069989 
L 634.601013 89.893826 
L 641.222259 96.338656 
L 647.843504 97.001624 
L 654.46475 86.652382 
L 661.085996 89.042943 
L 667.707242 97.182063 
L 674.328487 178.84036 
L 680.949733 177.962631 
L 687.570979 147.499037 
L 694.192224 123.528864 
L 700.81347 107.020232 
L 707.434716 91.660496 
" clip-path="url(#p89b7ce777e)" style="fill: none; stroke: #2ca02c; stroke-width: 1.5; stroke-linecap: square"/>
   </g>
   <g id="line2d_30">
    <path d="M 78.416534 54.631779 
L 85.037778 39.886759 
L 91.659022 35.8505 
L 98.280266 34.414125 
L 104.90151 38.102759 
L 111.522756 38.596162 
L 118.143998 91.763459 
L 124.765241 88.055456 
L 131.386486 88.26274 
L 138.007732 63.664939 
L 144.628978 76.4095 
L 151.250217 86.461409 
L 157.871463 96.814049 
L 164.492708 106.140805 
L 171.113947 118.844928 
L 177.735193 154.538193 
L 184.356439 167.945723 
L 190.977684 171.125661 
L 197.59893 180.935626 
L 204.220176 197.097652 
L 210.841422 201.710228 
L 217.462654 204.895944 
L 224.0839 207.083978 
L 230.705145 196.980078 
L 237.326391 168.870345 
L 243.947637 159.563978 
L 250.568882 159.217032 
L 257.190128 167.6297 
L 263.81136 174.847936 
L 270.432606 185.828205 
L 277.053852 201.570566 
L 283.675098 225.686517 
L 290.296343 229.632387 
L 296.917589 214.324642 
L 303.538835 205.43794 
L 310.16008 202.012659 
L 316.781326 207.093493 
L 323.402572 221.694773 
L 330.023818 242.151993 
L 336.645063 251.971473 
L 343.266309 252.765948 
L 349.887528 254.860534 
L 356.508774 245.604119 
L 363.130019 237.0348 
L 369.751265 237.58733 
L 376.372511 238.361417 
L 382.993756 237.703545 
L 389.615002 234.495063 
L 396.236248 227.82324 
L 402.857494 221.362779 
L 409.478739 218.566825 
L 416.099985 215.600627 
L 422.721231 217.770991 
L 429.342476 222.429102 
L 435.963722 230.570941 
L 442.584968 210.590134 
L 449.206187 207.736412 
L 455.827432 220.368156 
L 462.448678 225.157773 
L 469.069924 223.225616 
L 475.69117 215.64888 
L 482.312415 209.200992 
L 488.933661 210.176585 
L 495.554907 216.337674 
L 502.176152 216.387286 
L 508.797398 213.06089 
L 515.418644 213.534245 
L 522.03989 225.961763 
L 528.661135 238.776664 
L 535.282381 234.98167 
L 541.903627 238.174861 
L 548.524872 246.779861 
L 555.146118 239.432497 
L 561.767364 246.828114 
L 568.38861 264.230785 
L 575.009855 237.80141 
L 581.631101 190.003786 
L 588.252347 199.270055 
L 594.873593 222.367256 
L 601.494838 226.365797 
L 608.116084 207.389127 
L 614.737276 159.52422 
L 621.358522 153.682892 
L 627.979767 95.864282 
L 634.601013 92.157298 
L 641.222259 82.253206 
L 647.843504 68.437905 
L 654.46475 49.895513 
L 661.085996 65.638214 
L 667.707242 153.15143 
L 674.328487 159.306742 
L 680.949733 129.300191 
L 687.570979 107.732813 
L 694.192224 96.535745 
L 700.81347 82.579424 
L 707.434716 63.795426 
" clip-path="url(#p89b7ce777e)" style="fill: none; stroke: #d62728; stroke-width: 1.5; stroke-linecap: square"/>
   </g>
   <g id="patch_3">
    <path d="M 46.965625 288.430125 
L 46.965625 22.318125 
" style="fill: none"/>
   </g>
   <g id="patch_4">
    <path d="M 738.885625 288.430125 
L 738.885625 22.318125 
" style="fill: none"/>
   </g>
   <g id="patch_5">
    <path d="M 46.965625 288.430125 
L 738.885625 288.430125 
" style="fill: none"/>
   </g>
   <g id="patch_6">
    <path d="M 46.965625 22.318125 
L 738.885625 22.318125 
" style="fill: none"/>
   </g>
   <g id="text_16">
    <!-- Air temperature -->
    <g style="fill: #666666" transform="translate(345.07 16.318125) scale(0.12 -0.12)">
     <use xlink:href="#DejaVuSans-41"/>
     <use xlink:href="#DejaVuSans-69" x="68.408203"/>
     <use xlink:href="#DejaVuSans-72" x="96.191406"/>
     <use xlink:href="#DejaVuSans-20" x="137.304688"/>
     <use xlink:href="#DejaVuSans-74" x="169.091797"/>
     <use xlink:href="#DejaVuSans-65" x="208.300781"/>
     <use xlink:href="#DejaVuSans-6d" x="269.824219"/>
     <use xlink:href="#DejaVuSans-70" x="367.236328"/>
     <use xlink:href="#DejaVuSans-65" x="430.712891"/>
     <use xlink:href="#DejaVuSans-72" x="492.236328"/>
     <use xlink:href="#DejaVuSans-61" x="533.349609"/>
     <use xlink:href="#DejaVuSans-74" x="594.628906"/>
     <use xlink:href="#DejaVuSans-75" x="633.837891"/>
     <use xlink:href="#DejaVuSans-72" x="697.216797"/>
     <use xlink:href="#DejaVuSans-65" x="736.080078"/>
    </g>
   </g>
   <g id="legend_1">
    <g id="patch_7">
     <path d="M 260.299063 59.674375 
L 525.552188 59.674375 
Q 527.552188 59.674375 527.552188 57.674375 
L 527.552188 29.318125 
Q 527.552188 27.318125 525.552188 27.318125 
L 260.299063 27.318125 
Q 258.299063 27.318125 258.299063 29.318125 
L 258.299063 57.674375 
Q 258.299063 59.674375 260.299063 59.674375 
L 260.299063 59.674375 
z
" style="fill: none; opacity: 0.8"/>
    </g>
    <g id="line2d_31">
     <path d="M 262.299063 35.416562 
L 272.299063 35.416562 
L 282.299063 35.416562 
" style="fill: none; stroke: #1f77b4; stroke-width: 1.5; stroke-linecap: square"/>
    </g>
    <g id="text_17">
     <!-- latitude: 77.49999 -->
     <g style="fill: #666666" transform="translate(290.299063 38.916562) scale(0.1 -0.1)">
      <defs>
       <path id="DejaVuSans-6c" d="M 603 4863 
L 1178 4863 
L 1178 0 
L 603 0 
L 603 4863 
z
" transform="scale(0.015625)"/>
       <path id="DejaVuSans-3a" d="M 750 794 
L 1409 794 
L 1409 0 
L 750 0 
L 750 794 
z
M 750 3309 
L 1409 3309 
L 1409 2516 
L 750 2516 
L 750 3309 
z
" transform="scale(0.015625)"/>
       <path id="DejaVuSans-2e" d="M 684 794 
L 1344 794 
L 1344 0 
L 684 0 
L 684 794 
z
" transform="scale(0.015625)"/>
       <path id="DejaVuSans-34" d="M 2419 4116 
L 825 1625 
L 2419 1625 
L 2419 4116 
z
M 2253 4666 
L 3047 4666 
L 3047 1625 
L 3713 1625 
L 3713 1100 
L 3047 1100 
L 3047 0 
L 2419 0 
L 2419 1100 
L 313 1100 
L 313 1709 
L 2253 4666 
z
" transform="scale(0.015625)"/>
       <path id="DejaVuSans-39" d="M 703 97 
L 703 672 
Q 941 559 1184 500 
Q 1428 441 1663 441 
Q 2288 441 2617 861 
Q 2947 1281 2994 2138 
Q 2813 1869 2534 1725 
Q 2256 1581 1919 1581 
Q 1219 1581 811 2004 
Q 403 2428 403 3163 
Q 403 3881 828 4315 
Q 1253 4750 1959 4750 
Q 2769 4750 3195 4129 
Q 3622 3509 3622 2328 
Q 3622 1225 3098 567 
Q 2575 -91 1691 -91 
Q 1453 -91 1209 -44 
Q 966 3 703 97 
z
M 1959 2075 
Q 2384 2075 2632 2365 
Q 2881 2656 2881 3163 
Q 2881 3666 2632 3958 
Q 2384 4250 1959 4250 
Q 1534 4250 1286 3958 
Q 1038 3666 1038 3163 
Q 1038 2656 1286 2365 
Q 1534 2075 1959 2075 
z
" transform="scale(0.015625)"/>
      </defs>
      <use xlink:href="#DejaVuSans-6c"/>
      <use xlink:href="#DejaVuSans-61" x="27.783203"/>
      <use xlink:href="#DejaVuSans-74" x="89.0625"/>
      <use xlink:href="#DejaVuSans-69" x="128.271484"/>
      <use xlink:href="#DejaVuSans-74" x="156.054688"/>
      <use xlink:href="#DejaVuSans-75" x="195.263672"/>
      <use xlink:href="#DejaVuSans-64" x="258.642578"/>
      <use xlink:href="#DejaVuSans-65" x="322.119141"/>
      <use xlink:href="#DejaVuSans-3a" x="383.642578"/>
      <use xlink:href="#DejaVuSans-20" x="417.333984"/>
      <use xlink:href="#DejaVuSans-37" x="449.121094"/>
      <use xlink:href="#DejaVuSans-37" x="512.744141"/>
      <use xlink:href="#DejaVuSans-2e" x="576.367188"/>
      <use xlink:href="#DejaVuSans-34" x="608.154297"/>
      <use xlink:href="#DejaVuSans-39" x="671.777344"/>
      <use xlink:href="#DejaVuSans-39" x="735.400391"/>
      <use xlink:href="#DejaVuSans-39" x="799.023438"/>
      <use xlink:href="#DejaVuSans-39" x="862.646484"/>
     </g>
    </g>
    <g id="line2d_32">
     <path d="M 262.299063 50.094687 
L 272.299063 50.094687 
L 282.299063 50.094687 
" style="fill: none; stroke: #ff7f0e; stroke-width: 1.5; stroke-linecap: square"/>
    </g>
    <g id="text_18">
     <!-- latitude: 74.99999 -->
     <g style="fill: #666666" transform="translate(290.299063 53.594687) scale(0.1 -0.1)">
      <use xlink:href="#DejaVuSans-6c"/>
      <use xlink:href="#DejaVuSans-61" x="27.783203"/>
      <use xlink:href="#DejaVuSans-74" x="89.0625"/>
      <use xlink:href="#DejaVuSans-69" x="128.271484"/>
      <use xlink:href="#DejaVuSans-74" x="156.054688"/>
      <use xlink:href="#DejaVuSans-75" x="195.263672"/>
      <use xlink:href="#DejaVuSans-64" x="258.642578"/>
      <use xlink:href="#DejaVuSans-65" x="322.119141"/>
      <use xlink:href="#DejaVuSans-3a" x="383.642578"/>
      <use xlink:href="#DejaVuSans-20" x="417.333984"/>
      <use xlink:href="#DejaVuSans-37" x="449.121094"/>
      <use xlink:href="#DejaVuSans-34" x="512.744141"/>
      <use xlink:href="#DejaVuSans-2e" x="576.367188"/>
      <use xlink:href="#DejaVuSans-39" x="608.154297"/>
      <use xlink:href="#DejaVuSans-39" x="671.777344"/>
      <use xlink:href="#DejaVuSans-39" x="735.400391"/>
      <use xlink:href="#DejaVuSans-39" x="799.023438"/>
      <use xlink:href="#DejaVuSans-39" x="862.646484"/>
     </g>
    </g>
    <g id="line2d_33">
     <path d="M 402.925625 35.416562 
L 412.925625 35.416562 
L 422.925625 35.416562 
" style="fill: none; stroke: #2ca02c; stroke-width: 1.5; stroke-linecap: square"/>
    </g>
    <g id="text_19">
     <!-- latitude: 72.49999 -->
     <g style="fill: #666666" transform="translate(430.925625 38.916562) scale(0.1 -0.1)">
      <use xlink:href="#DejaVuSans-6c"/>
      <use xlink:href="#DejaVuSans-61" x="27.783203"/>
      <use xlink:href="#DejaVuSans-74" x="89.0625"/>
      <use xlink:href="#DejaVuSans-69" x="128.271484"/>
      <use xlink:href="#DejaVuSans-74" x="156.054688"/>
      <use xlink:href="#DejaVuSans-75" x="195.263672"/>
      <use xlink:href="#DejaVuSans-64" x="258.642578"/>
      <use xlink:href="#DejaVuSans-65" x="322.119141"/>
      <use xlink:href="#DejaVuSans-3a" x="383.642578"/>
      <use xlink:href="#DejaVuSans-20" x="417.333984"/>
      <use xlink:href="#DejaVuSans-37" x="449.121094"/>
      <use xlink:href="#DejaVuSans-32" x="512.744141"/>
      <use xlink:href="#DejaVuSans-2e" x="576.367188"/>
      <use xlink:href="#DejaVuSans-34" x="608.154297"/>
      <use xlink:href="#DejaVuSans-39" x="671.777344"/>
      <use xlink:href="#DejaVuSans-39" x="735.400391"/>
      <use xlink:href="#DejaVuSans-39" x="799.023438"/>
      <use xlink:href="#DejaVuSans-39" x="862.646484"/>
     </g>
    </g>
    <g id="line2d_34">
     <path d="M 402.925625 50.094687 
L 412.925625 50.094687 
L 422.925625 50.094687 
" style="fill: none; stroke: #d62728; stroke-width: 1.5; stroke-linecap: square"/>
    </g>
    <g id="text_20">
     <!-- latitude: 69.99999 -->
     <g style="fill: #666666" transform="translate(430.925625 53.594687) scale(0.1 -0.1)">
      <use xlink:href="#DejaVuSans-6c"/>
      <use xlink:href="#DejaVuSans-61" x="27.783203"/>
      <use xlink:href="#DejaVuSans-74" x="89.0625"/>
      <use xlink:href="#DejaVuSans-69" x="128.271484"/>
      <use xlink:href="#DejaVuSans-74" x="156.054688"/>
      <use xlink:href="#DejaVuSans-75" x="195.263672"/>
      <use xlink:href="#DejaVuSans-64" x="258.642578"/>
      <use xlink:href="#DejaVuSans-65" x="322.119141"/>
      <use xlink:href="#DejaVuSans-3a" x="383.642578"/>
      <use xlink:href="#DejaVuSans-20" x="417.333984"/>
      <use xlink:href="#DejaVuSans-36" x="449.121094"/>
      <use xlink:href="#DejaVuSans-39" x="512.744141"/>
      <use xlink:href="#DejaVuSans-2e" x="576.367188"/>
      <use xlink:href="#DejaVuSans-39" x="608.154297"/>
      <use xlink:href="#DejaVuSans-39" x="671.777344"/>
      <use xlink:href="#DejaVuSans-39" x="735.400391"/>
      <use xlink:href="#DejaVuSans-39" x="799.023438"/>
      <use xlink:href="#DejaVuSans-39" x="862.646484"/>
     </g>
    </g>
   </g>
  </g>
 </g>
 <defs>
  <clipPath id="p89b7ce777e">
   <rect x="46.965625" y="22.318125" width="691.92" height="266.112"/>
  </clipPath>
 </defs>
</svg>
