<?xml version="1.0" encoding="utf-8" standalone="no"?>
<!DOCTYPE svg PUBLIC "-//W3C//DTD SVG 1.1//EN"
  "http://www.w3.org/Graphics/SVG/1.1/DTD/svg11.dtd">
<svg xmlns:xlink="http://www.w3.org/1999/xlink" width="188.43991pt" height="331.554688pt" viewBox="0 0 188.43991 331.554688" xmlns="http://www.w3.org/2000/svg" version="1.1">
 <metadata>
  <rdf:RDF xmlns:dc="http://purl.org/dc/elements/1.1/" xmlns:cc="http://creativecommons.org/ns#" xmlns:rdf="http://www.w3.org/1999/02/22-rdf-syntax-ns#">
   <cc:Work>
    <dc:type rdf:resource="http://purl.org/dc/dcmitype/StillImage"/>
    <dc:date>2023-07-11T16:50:40.179190</dc:date>
    <dc:format>image/svg+xml</dc:format>
    <dc:creator>
     <cc:Agent>
      <dc:title>Matplotlib v3.6.3, https://matplotlib.org/</dc:title>
     </cc:Agent>
    </dc:creator>
   </cc:Work>
  </rdf:RDF>
 </metadata>
 <defs>
  <style type="text/css">*{stroke-linejoin: round; stroke-linecap: butt}</style>
 </defs>
 <g id="figure_1">
  <g id="patch_1">
   <path d="M 0 331.554688 
L 188.43991 331.554688 
L 188.43991 0 
L 0 0 
L 0 331.554688 
z
" style="fill: none"/>
  </g>
  <g id="axes_1">
   <g id="patch_2">
    <path d="M 36.465625 294.998438 
L 181.23991 294.998438 
L 181.23991 17.798437 
L 36.465625 17.798437 
L 36.465625 294.998438 
z
" style="fill: none"/>
   </g>
   <g id="PathCollection_1">
    <defs>
     <path id="mfeff6e3169" d="M 0 0.559017 
C 0.148253 0.559017 0.290454 0.500115 0.395285 0.395285 
C 0.500115 0.290454 0.559017 0.148253 0.559017 0 
C 0.559017 -0.148253 0.500115 -0.290454 0.395285 -0.395285 
C 0.290454 -0.500115 0.148253 -0.559017 0 -0.559017 
C -0.148253 -0.559017 -0.290454 -0.500115 -0.395285 -0.395285 
C -0.500115 -0.290454 -0.559017 -0.148253 -0.559017 0 
C -0.559017 0.148253 -0.500115 0.290454 -0.395285 0.395285 
C -0.290454 0.500115 -0.148253 0.559017 0 0.559017 
z
" style="stroke: #ff0000"/>
    </defs>
    <g clip-path="url(#p692fa2c6c2)">
     <use xlink:href="#mfeff6e3169" x="132.662706" y="64.139138" style="fill: #ff0000; stroke: #ff0000"/>
     <use xlink:href="#mfeff6e3169" x="120.533757" y="268.768324" style="fill: #ff0000; stroke: #ff0000"/>
     <use xlink:href="#mfeff6e3169" x="142.92601" y="141.654994" style="fill: #ff0000; stroke: #ff0000"/>
     <use xlink:href="#mfeff6e3169" x="134.142325" y="134.791649" style="fill: #ff0000; stroke: #ff0000"/>
     <use xlink:href="#mfeff6e3169" x="150.397152" y="239.570067" style="fill: #ff0000; stroke: #ff0000"/>
     <use xlink:href="#mfeff6e3169" x="147.689101" y="141.021353" style="fill: #ff0000; stroke: #ff0000"/>
     <use xlink:href="#mfeff6e3169" x="131.103359" y="281.014109" style="fill: #ff0000; stroke: #ff0000"/>
     <use xlink:href="#mfeff6e3169" x="131.129005" y="282.398437" style="fill: #ff0000; stroke: #ff0000"/>
     <use xlink:href="#mfeff6e3169" x="140.076876" y="115.578064" style="fill: #ff0000; stroke: #ff0000"/>
     <use xlink:href="#mfeff6e3169" x="146.94152" y="115.191901" style="fill: #ff0000; stroke: #ff0000"/>
     <use xlink:href="#mfeff6e3169" x="127.825833" y="143.335465" style="fill: #ff0000; stroke: #ff0000"/>
     <use xlink:href="#mfeff6e3169" x="150.32779" y="142.783867" style="fill: #ff0000; stroke: #ff0000"/>
     <use xlink:href="#mfeff6e3169" x="167.217665" y="192.584481" style="fill: #ff0000; stroke: #ff0000"/>
     <use xlink:href="#mfeff6e3169" x="142.91488" y="144.215609" style="fill: #ff0000; stroke: #ff0000"/>
     <use xlink:href="#mfeff6e3169" x="125.686535" y="113.877989" style="fill: #ff0000; stroke: #ff0000"/>
     <use xlink:href="#mfeff6e3169" x="132.94528" y="240.025652" style="fill: #ff0000; stroke: #ff0000"/>
     <use xlink:href="#mfeff6e3169" x="131.207297" y="186.077177" style="fill: #ff0000; stroke: #ff0000"/>
     <use xlink:href="#mfeff6e3169" x="126.437314" y="45.717868" style="fill: #ff0000; stroke: #ff0000"/>
     <use xlink:href="#mfeff6e3169" x="171.549495" y="190.355457" style="fill: #ff0000; stroke: #ff0000"/>
     <use xlink:href="#mfeff6e3169" x="146.900759" y="110.916911" style="fill: #ff0000; stroke: #ff0000"/>
     <use xlink:href="#mfeff6e3169" x="171.697973" y="195.66085" style="fill: #ff0000; stroke: #ff0000"/>
     <use xlink:href="#mfeff6e3169" x="134.944367" y="111.138142" style="fill: #ff0000; stroke: #ff0000"/>
     <use xlink:href="#mfeff6e3169" x="145.166954" y="109.281703" style="fill: #ff0000; stroke: #ff0000"/>
     <use xlink:href="#mfeff6e3169" x="174.65926" y="249.679033" style="fill: #ff0000; stroke: #ff0000"/>
     <use xlink:href="#mfeff6e3169" x="127.549695" y="186.180935" style="fill: #ff0000; stroke: #ff0000"/>
     <use xlink:href="#mfeff6e3169" x="126.629048" y="153.821302" style="fill: #ff0000; stroke: #ff0000"/>
     <use xlink:href="#mfeff6e3169" x="151.696593" y="119.414344" style="fill: #ff0000; stroke: #ff0000"/>
     <use xlink:href="#mfeff6e3169" x="130.62198" y="149.886474" style="fill: #ff0000; stroke: #ff0000"/>
     <use xlink:href="#mfeff6e3169" x="123.848367" y="167.259911" style="fill: #ff0000; stroke: #ff0000"/>
     <use xlink:href="#mfeff6e3169" x="134.880854" y="153.528956" style="fill: #ff0000; stroke: #ff0000"/>
     <use xlink:href="#mfeff6e3169" x="130.010918" y="103.61965" style="fill: #ff0000; stroke: #ff0000"/>
     <use xlink:href="#mfeff6e3169" x="120.095872" y="153.288032" style="fill: #ff0000; stroke: #ff0000"/>
     <use xlink:href="#mfeff6e3169" x="117.258469" y="154.068988" style="fill: #ff0000; stroke: #ff0000"/>
     <use xlink:href="#mfeff6e3169" x="144.889752" y="120.807488" style="fill: #ff0000; stroke: #ff0000"/>
     <use xlink:href="#mfeff6e3169" x="121.597746" y="272.761198" style="fill: #ff0000; stroke: #ff0000"/>
     <use xlink:href="#mfeff6e3169" x="50.143196" y="100.58143" style="fill: #ff0000; stroke: #ff0000"/>
     <use xlink:href="#mfeff6e3169" x="141.618629" y="156.560869" style="fill: #ff0000; stroke: #ff0000"/>
     <use xlink:href="#mfeff6e3169" x="122.83707" y="157.982689" style="fill: #ff0000; stroke: #ff0000"/>
     <use xlink:href="#mfeff6e3169" x="103.829313" y="30.398437" style="fill: #ff0000; stroke: #ff0000"/>
     <use xlink:href="#mfeff6e3169" x="72.351518" y="99.032968" style="fill: #ff0000; stroke: #ff0000"/>
     <use xlink:href="#mfeff6e3169" x="61.578228" y="99.723877" style="fill: #ff0000; stroke: #ff0000"/>
     <use xlink:href="#mfeff6e3169" x="121.458641" y="157.449434" style="fill: #ff0000; stroke: #ff0000"/>
     <use xlink:href="#mfeff6e3169" x="115.53937" y="154.041302" style="fill: #ff0000; stroke: #ff0000"/>
     <use xlink:href="#mfeff6e3169" x="123.889158" y="97.896067" style="fill: #ff0000; stroke: #ff0000"/>
     <use xlink:href="#mfeff6e3169" x="115.093253" y="152.72274" style="fill: #ff0000; stroke: #ff0000"/>
     <use xlink:href="#mfeff6e3169" x="110.915224" y="46.201685" style="fill: #ff0000; stroke: #ff0000"/>
     <use xlink:href="#mfeff6e3169" x="118.116852" y="96.858783" style="fill: #ff0000; stroke: #ff0000"/>
     <use xlink:href="#mfeff6e3169" x="111.336868" y="67.732495" style="fill: #ff0000; stroke: #ff0000"/>
     <use xlink:href="#mfeff6e3169" x="95.855679" y="160.546454" style="fill: #ff0000; stroke: #ff0000"/>
     <use xlink:href="#mfeff6e3169" x="117.048016" y="95.970278" style="fill: #ff0000; stroke: #ff0000"/>
     <use xlink:href="#mfeff6e3169" x="111.731373" y="110.970428" style="fill: #ff0000; stroke: #ff0000"/>
     <use xlink:href="#mfeff6e3169" x="139.622811" y="93.157689" style="fill: #ff0000; stroke: #ff0000"/>
     <use xlink:href="#mfeff6e3169" x="109.194409" y="105.631536" style="fill: #ff0000; stroke: #ff0000"/>
     <use xlink:href="#mfeff6e3169" x="107.787681" y="84.049046" style="fill: #ff0000; stroke: #ff0000"/>
     <use xlink:href="#mfeff6e3169" x="126.315649" y="92.392872" style="fill: #ff0000; stroke: #ff0000"/>
     <use xlink:href="#mfeff6e3169" x="147.803059" y="122.036941" style="fill: #ff0000; stroke: #ff0000"/>
     <use xlink:href="#mfeff6e3169" x="110.052576" y="262.135272" style="fill: #ff0000; stroke: #ff0000"/>
     <use xlink:href="#mfeff6e3169" x="103.043536" y="46.458941" style="fill: #ff0000; stroke: #ff0000"/>
     <use xlink:href="#mfeff6e3169" x="107.965918" y="240.661908" style="fill: #ff0000; stroke: #ff0000"/>
     <use xlink:href="#mfeff6e3169" x="126.126669" y="87.400883" style="fill: #ff0000; stroke: #ff0000"/>
     <use xlink:href="#mfeff6e3169" x="106.503783" y="208.987372" style="fill: #ff0000; stroke: #ff0000"/>
     <use xlink:href="#mfeff6e3169" x="104.809409" y="159.740784" style="fill: #ff0000; stroke: #ff0000"/>
     <use xlink:href="#mfeff6e3169" x="102.529771" y="105.755142" style="fill: #ff0000; stroke: #ff0000"/>
     <use xlink:href="#mfeff6e3169" x="115.383618" y="86.375419" style="fill: #ff0000; stroke: #ff0000"/>
     <use xlink:href="#mfeff6e3169" x="101.775278" y="94.932133" style="fill: #ff0000; stroke: #ff0000"/>
     <use xlink:href="#mfeff6e3169" x="102.934794" y="143.542744" style="fill: #ff0000; stroke: #ff0000"/>
     <use xlink:href="#mfeff6e3169" x="122.623038" y="169.396511" style="fill: #ff0000; stroke: #ff0000"/>
     <use xlink:href="#mfeff6e3169" x="138.849262" y="85.122479" style="fill: #ff0000; stroke: #ff0000"/>
     <use xlink:href="#mfeff6e3169" x="99.87705" y="67.950429" style="fill: #ff0000; stroke: #ff0000"/>
     <use xlink:href="#mfeff6e3169" x="138.269397" y="83.801441" style="fill: #ff0000; stroke: #ff0000"/>
     <use xlink:href="#mfeff6e3169" x="104.368483" y="84.492012" style="fill: #ff0000; stroke: #ff0000"/>
     <use xlink:href="#mfeff6e3169" x="99.417158" y="100.434633" style="fill: #ff0000; stroke: #ff0000"/>
     <use xlink:href="#mfeff6e3169" x="128.715675" y="83.122269" style="fill: #ff0000; stroke: #ff0000"/>
     <use xlink:href="#mfeff6e3169" x="136.731148" y="82.464293" style="fill: #ff0000; stroke: #ff0000"/>
     <use xlink:href="#mfeff6e3169" x="119.341374" y="172.067979" style="fill: #ff0000; stroke: #ff0000"/>
     <use xlink:href="#mfeff6e3169" x="139.953104" y="126.91318" style="fill: #ff0000; stroke: #ff0000"/>
     <use xlink:href="#mfeff6e3169" x="95.9819" y="100.445565" style="fill: #ff0000; stroke: #ff0000"/>
     <use xlink:href="#mfeff6e3169" x="96.152128" y="111.299616" style="fill: #ff0000; stroke: #ff0000"/>
     <use xlink:href="#mfeff6e3169" x="96.463258" y="160.137637" style="fill: #ff0000; stroke: #ff0000"/>
     <use xlink:href="#mfeff6e3169" x="113.042405" y="177.368559" style="fill: #ff0000; stroke: #ff0000"/>
     <use xlink:href="#mfeff6e3169" x="92.169668" y="62.689493" style="fill: #ff0000; stroke: #ff0000"/>
     <use xlink:href="#mfeff6e3169" x="82.566113" y="77.38332" style="fill: #ff0000; stroke: #ff0000"/>
     <use xlink:href="#mfeff6e3169" x="96.383021" y="77.222677" style="fill: #ff0000; stroke: #ff0000"/>
     <use xlink:href="#mfeff6e3169" x="95.09707" y="76.180537" style="fill: #ff0000; stroke: #ff0000"/>
     <use xlink:href="#mfeff6e3169" x="104.21798" y="75.482439" style="fill: #ff0000; stroke: #ff0000"/>
     <use xlink:href="#mfeff6e3169" x="118.551921" y="74.677145" style="fill: #ff0000; stroke: #ff0000"/>
     <use xlink:href="#mfeff6e3169" x="96.375007" y="182.067836" style="fill: #ff0000; stroke: #ff0000"/>
     <use xlink:href="#mfeff6e3169" x="133.820106" y="72.896031" style="fill: #ff0000; stroke: #ff0000"/>
     <use xlink:href="#mfeff6e3169" x="156.56591" y="167.782486" style="fill: #ff0000; stroke: #ff0000"/>
     <use xlink:href="#mfeff6e3169" x="96.369066" y="183.324697" style="fill: #ff0000; stroke: #ff0000"/>
     <use xlink:href="#mfeff6e3169" x="133.074499" y="71.72076" style="fill: #ff0000; stroke: #ff0000"/>
     <use xlink:href="#mfeff6e3169" x="85.254951" y="89.908493" style="fill: #ff0000; stroke: #ff0000"/>
     <use xlink:href="#mfeff6e3169" x="123.423045" y="185.936138" style="fill: #ff0000; stroke: #ff0000"/>
     <use xlink:href="#mfeff6e3169" x="139.715709" y="185.499209" style="fill: #ff0000; stroke: #ff0000"/>
     <use xlink:href="#mfeff6e3169" x="85.435534" y="111.519986" style="fill: #ff0000; stroke: #ff0000"/>
     <use xlink:href="#mfeff6e3169" x="84.199789" y="79.10052" style="fill: #ff0000; stroke: #ff0000"/>
     <use xlink:href="#mfeff6e3169" x="107.369718" y="186.891891" style="fill: #ff0000; stroke: #ff0000"/>
     <use xlink:href="#mfeff6e3169" x="71.45401" y="69.265412" style="fill: #ff0000; stroke: #ff0000"/>
     <use xlink:href="#mfeff6e3169" x="83.148194" y="111.665009" style="fill: #ff0000; stroke: #ff0000"/>
     <use xlink:href="#mfeff6e3169" x="82.250139" y="95.405019" style="fill: #ff0000; stroke: #ff0000"/>
     <use xlink:href="#mfeff6e3169" x="92.940743" y="65.419147" style="fill: #ff0000; stroke: #ff0000"/>
     <use xlink:href="#mfeff6e3169" x="96.707153" y="194.206379" style="fill: #ff0000; stroke: #ff0000"/>
     <use xlink:href="#mfeff6e3169" x="88.401932" y="193.26198" style="fill: #ff0000; stroke: #ff0000"/>
     <use xlink:href="#mfeff6e3169" x="96.722778" y="195.294016" style="fill: #ff0000; stroke: #ff0000"/>
     <use xlink:href="#mfeff6e3169" x="130.83754" y="59.923428" style="fill: #ff0000; stroke: #ff0000"/>
     <use xlink:href="#mfeff6e3169" x="73.979078" y="73.963944" style="fill: #ff0000; stroke: #ff0000"/>
     <use xlink:href="#mfeff6e3169" x="148.921729" y="124.25069" style="fill: #ff0000; stroke: #ff0000"/>
     <use xlink:href="#mfeff6e3169" x="126.00162" y="57.563269" style="fill: #ff0000; stroke: #ff0000"/>
     <use xlink:href="#mfeff6e3169" x="71.28257" y="90.269628" style="fill: #ff0000; stroke: #ff0000"/>
     <use xlink:href="#mfeff6e3169" x="140.960333" y="132.575415" style="fill: #ff0000; stroke: #ff0000"/>
     <use xlink:href="#mfeff6e3169" x="107.771873" y="200.912804" style="fill: #ff0000; stroke: #ff0000"/>
     <use xlink:href="#mfeff6e3169" x="96.924114" y="202.102876" style="fill: #ff0000; stroke: #ff0000"/>
     <use xlink:href="#mfeff6e3169" x="70.092201" y="133.56204" style="fill: #ff0000; stroke: #ff0000"/>
     <use xlink:href="#mfeff6e3169" x="76.565536" y="195.788615" style="fill: #ff0000; stroke: #ff0000"/>
     <use xlink:href="#mfeff6e3169" x="96.94466" y="202.658221" style="fill: #ff0000; stroke: #ff0000"/>
     <use xlink:href="#mfeff6e3169" x="81.840151" y="51.712253" style="fill: #ff0000; stroke: #ff0000"/>
     <use xlink:href="#mfeff6e3169" x="70.449337" y="197.085816" style="fill: #ff0000; stroke: #ff0000"/>
     <use xlink:href="#mfeff6e3169" x="64.737608" y="90.428655" style="fill: #ff0000; stroke: #ff0000"/>
     <use xlink:href="#mfeff6e3169" x="157.204117" y="207.305034" style="fill: #ff0000; stroke: #ff0000"/>
     <use xlink:href="#mfeff6e3169" x="73.432801" y="46.218878" style="fill: #ff0000; stroke: #ff0000"/>
     <use xlink:href="#mfeff6e3169" x="63.680081" y="209.499055" style="fill: #ff0000; stroke: #ff0000"/>
     <use xlink:href="#mfeff6e3169" x="60.515842" y="79.66642" style="fill: #ff0000; stroke: #ff0000"/>
     <use xlink:href="#mfeff6e3169" x="59.70015" y="97.325681" style="fill: #ff0000; stroke: #ff0000"/>
     <use xlink:href="#mfeff6e3169" x="58.081747" y="79.801384" style="fill: #ff0000; stroke: #ff0000"/>
     <use xlink:href="#mfeff6e3169" x="43.046274" y="41.753129" style="fill: #ff0000; stroke: #ff0000"/>
     <use xlink:href="#mfeff6e3169" x="155.778104" y="122.145456" style="fill: #ff0000; stroke: #ff0000"/>
     <use xlink:href="#mfeff6e3169" x="129.830025" y="217.654545" style="fill: #ff0000; stroke: #ff0000"/>
     <use xlink:href="#mfeff6e3169" x="50.762227" y="85.39679" style="fill: #ff0000; stroke: #ff0000"/>
     <use xlink:href="#mfeff6e3169" x="113.854259" y="33.921882" style="fill: #ff0000; stroke: #ff0000"/>
     <use xlink:href="#mfeff6e3169" x="47.546864" y="63.784595" style="fill: #ff0000; stroke: #ff0000"/>
     <use xlink:href="#mfeff6e3169" x="147.324507" y="115.977191" style="fill: #ff0000; stroke: #ff0000"/>
     <use xlink:href="#mfeff6e3169" x="172.997096" y="223.376282" style="fill: #ff0000; stroke: #ff0000"/>
     <use xlink:href="#mfeff6e3169" x="105.476825" y="121.880052" style="fill: #ff0000; stroke: #ff0000"/>
     <use xlink:href="#mfeff6e3169" x="146.567421" y="236.486143" style="fill: #ff0000; stroke: #ff0000"/>
     <use xlink:href="#mfeff6e3169" x="162.687049" y="237.28483" style="fill: #ff0000; stroke: #ff0000"/>
     <use xlink:href="#mfeff6e3169" x="151.083054" y="119.841163" style="fill: #ff0000; stroke: #ff0000"/>
     <use xlink:href="#mfeff6e3169" x="148.788317" y="116.571893" style="fill: #ff0000; stroke: #ff0000"/>
     <use xlink:href="#mfeff6e3169" x="130.712645" y="249.678979" style="fill: #ff0000; stroke: #ff0000"/>
     <use xlink:href="#mfeff6e3169" x="76.530442" y="60.143753" style="fill: #ff0000; stroke: #ff0000"/>
     <use xlink:href="#mfeff6e3169" x="133.533554" y="61.355841" style="fill: #ff0000; stroke: #ff0000"/>
     <use xlink:href="#mfeff6e3169" x="122.974082" y="66.761474" style="fill: #ff0000; stroke: #ff0000"/>
     <use xlink:href="#mfeff6e3169" x="121.305908" y="121.500884" style="fill: #ff0000; stroke: #ff0000"/>
     <use xlink:href="#mfeff6e3169" x="154.656461" y="128.949881" style="fill: #ff0000; stroke: #ff0000"/>
     <use xlink:href="#mfeff6e3169" x="138.347752" y="132.681461" style="fill: #ff0000; stroke: #ff0000"/>
     <use xlink:href="#mfeff6e3169" x="126.460299" y="103.567778" style="fill: #ff0000; stroke: #ff0000"/>
     <use xlink:href="#mfeff6e3169" x="128.430096" y="165.734007" style="fill: #ff0000; stroke: #ff0000"/>
     <use xlink:href="#mfeff6e3169" x="147.930779" y="148.182898" style="fill: #ff0000; stroke: #ff0000"/>
     <use xlink:href="#mfeff6e3169" x="166.705308" y="270.573354" style="fill: #ff0000; stroke: #ff0000"/>
    </g>
   </g>
   <g id="matplotlib.axis_1">
    <g id="xtick_1">
     <g id="line2d_1">
      <path d="M 75.19268 294.998438 
L 75.19268 17.798437 
" clip-path="url(#p692fa2c6c2)" style="fill: none; stroke-dasharray: 1.85,0.8; stroke-dashoffset: 0; stroke: #838383; stroke-opacity: 0.4; stroke-width: 0.5"/>
     </g>
     <g id="line2d_2">
      <defs>
       <path id="m246bc91318" d="M 0 0 
L 0 3.5 
" style="stroke: #000000; stroke-opacity: 0; stroke-width: 0.8"/>
      </defs>
      <g>
       <use xlink:href="#m246bc91318" x="75.19268" y="294.998438" style="fill-opacity: 0; stroke: #000000; stroke-opacity: 0; stroke-width: 0.8"/>
      </g>
     </g>
     <g id="text_1">
      <!-- 1.14 -->
      <g style="fill: #838383" transform="translate(64.059867 309.596875) scale(0.1 -0.1)">
       <defs>
        <path id="DejaVuSans-31" d="M 794 531 
L 1825 531 
L 1825 4091 
L 703 3866 
L 703 4441 
L 1819 4666 
L 2450 4666 
L 2450 531 
L 3481 531 
L 3481 0 
L 794 0 
L 794 531 
z
" transform="scale(0.015625)"/>
        <path id="DejaVuSans-2e" d="M 684 794 
L 1344 794 
L 1344 0 
L 684 0 
L 684 794 
z
" transform="scale(0.015625)"/>
        <path id="DejaVuSans-34" d="M 2419 4116 
L 825 1625 
L 2419 1625 
L 2419 4116 
z
M 2253 4666 
L 3047 4666 
L 3047 1625 
L 3713 1625 
L 3713 1100 
L 3047 1100 
L 3047 0 
L 2419 0 
L 2419 1100 
L 313 1100 
L 313 1709 
L 2253 4666 
z
" transform="scale(0.015625)"/>
       </defs>
       <use xlink:href="#DejaVuSans-31"/>
       <use xlink:href="#DejaVuSans-2e" x="63.623047"/>
       <use xlink:href="#DejaVuSans-31" x="95.410156"/>
       <use xlink:href="#DejaVuSans-34" x="159.033203"/>
      </g>
     </g>
    </g>
    <g id="xtick_2">
     <g id="line2d_3">
      <path d="M 115.85255 294.998438 
L 115.85255 17.798437 
" clip-path="url(#p692fa2c6c2)" style="fill: none; stroke-dasharray: 1.85,0.8; stroke-dashoffset: 0; stroke: #838383; stroke-opacity: 0.4; stroke-width: 0.5"/>
     </g>
     <g id="line2d_4">
      <g>
       <use xlink:href="#m246bc91318" x="115.85255" y="294.998438" style="fill-opacity: 0; stroke: #000000; stroke-opacity: 0; stroke-width: 0.8"/>
      </g>
     </g>
     <g id="text_2">
      <!-- 1.16 -->
      <g style="fill: #838383" transform="translate(104.719737 309.596875) scale(0.1 -0.1)">
       <defs>
        <path id="DejaVuSans-36" d="M 2113 2584 
Q 1688 2584 1439 2293 
Q 1191 2003 1191 1497 
Q 1191 994 1439 701 
Q 1688 409 2113 409 
Q 2538 409 2786 701 
Q 3034 994 3034 1497 
Q 3034 2003 2786 2293 
Q 2538 2584 2113 2584 
z
M 3366 4563 
L 3366 3988 
Q 3128 4100 2886 4159 
Q 2644 4219 2406 4219 
Q 1781 4219 1451 3797 
Q 1122 3375 1075 2522 
Q 1259 2794 1537 2939 
Q 1816 3084 2150 3084 
Q 2853 3084 3261 2657 
Q 3669 2231 3669 1497 
Q 3669 778 3244 343 
Q 2819 -91 2113 -91 
Q 1303 -91 875 529 
Q 447 1150 447 2328 
Q 447 3434 972 4092 
Q 1497 4750 2381 4750 
Q 2619 4750 2861 4703 
Q 3103 4656 3366 4563 
z
" transform="scale(0.015625)"/>
       </defs>
       <use xlink:href="#DejaVuSans-31"/>
       <use xlink:href="#DejaVuSans-2e" x="63.623047"/>
       <use xlink:href="#DejaVuSans-31" x="95.410156"/>
       <use xlink:href="#DejaVuSans-36" x="159.033203"/>
      </g>
     </g>
    </g>
    <g id="xtick_3">
     <g id="line2d_5">
      <path d="M 156.51242 294.998438 
L 156.51242 17.798437 
" clip-path="url(#p692fa2c6c2)" style="fill: none; stroke-dasharray: 1.85,0.8; stroke-dashoffset: 0; stroke: #838383; stroke-opacity: 0.4; stroke-width: 0.5"/>
     </g>
     <g id="line2d_6">
      <g>
       <use xlink:href="#m246bc91318" x="156.51242" y="294.998438" style="fill-opacity: 0; stroke: #000000; stroke-opacity: 0; stroke-width: 0.8"/>
      </g>
     </g>
     <g id="text_3">
      <!-- 1.18 -->
      <g style="fill: #838383" transform="translate(145.379607 309.596875) scale(0.1 -0.1)">
       <defs>
        <path id="DejaVuSans-38" d="M 2034 2216 
Q 1584 2216 1326 1975 
Q 1069 1734 1069 1313 
Q 1069 891 1326 650 
Q 1584 409 2034 409 
Q 2484 409 2743 651 
Q 3003 894 3003 1313 
Q 3003 1734 2745 1975 
Q 2488 2216 2034 2216 
z
M 1403 2484 
Q 997 2584 770 2862 
Q 544 3141 544 3541 
Q 544 4100 942 4425 
Q 1341 4750 2034 4750 
Q 2731 4750 3128 4425 
Q 3525 4100 3525 3541 
Q 3525 3141 3298 2862 
Q 3072 2584 2669 2484 
Q 3125 2378 3379 2068 
Q 3634 1759 3634 1313 
Q 3634 634 3220 271 
Q 2806 -91 2034 -91 
Q 1263 -91 848 271 
Q 434 634 434 1313 
Q 434 1759 690 2068 
Q 947 2378 1403 2484 
z
M 1172 3481 
Q 1172 3119 1398 2916 
Q 1625 2713 2034 2713 
Q 2441 2713 2670 2916 
Q 2900 3119 2900 3481 
Q 2900 3844 2670 4047 
Q 2441 4250 2034 4250 
Q 1625 4250 1398 4047 
Q 1172 3844 1172 3481 
z
" transform="scale(0.015625)"/>
       </defs>
       <use xlink:href="#DejaVuSans-31"/>
       <use xlink:href="#DejaVuSans-2e" x="63.623047"/>
       <use xlink:href="#DejaVuSans-31" x="95.410156"/>
       <use xlink:href="#DejaVuSans-38" x="159.033203"/>
      </g>
     </g>
    </g>
    <g id="text_4">
     <!-- 1e6 -->
     <g style="opacity: 0" transform="translate(162.361785 322.275) scale(0.1 -0.1)">
      <defs>
       <path id="DejaVuSans-65" d="M 3597 1894 
L 3597 1613 
L 953 1613 
Q 991 1019 1311 708 
Q 1631 397 2203 397 
Q 2534 397 2845 478 
Q 3156 559 3463 722 
L 3463 178 
Q 3153 47 2828 -22 
Q 2503 -91 2169 -91 
Q 1331 -91 842 396 
Q 353 884 353 1716 
Q 353 2575 817 3079 
Q 1281 3584 2069 3584 
Q 2775 3584 3186 3129 
Q 3597 2675 3597 1894 
z
M 3022 2063 
Q 3016 2534 2758 2815 
Q 2500 3097 2075 3097 
Q 1594 3097 1305 2825 
Q 1016 2553 972 2059 
L 3022 2063 
z
" transform="scale(0.015625)"/>
      </defs>
      <use xlink:href="#DejaVuSans-31"/>
      <use xlink:href="#DejaVuSans-65" x="63.623047"/>
      <use xlink:href="#DejaVuSans-36" x="125.146484"/>
     </g>
    </g>
   </g>
   <g id="matplotlib.axis_2">
    <g id="ytick_1">
     <g id="line2d_7">
      <path d="M 36.465625 294.994396 
L 181.23991 294.994396 
" clip-path="url(#p692fa2c6c2)" style="fill: none; stroke-dasharray: 1.85,0.8; stroke-dashoffset: 0; stroke: #838383; stroke-opacity: 0.4; stroke-width: 0.5"/>
     </g>
     <g id="line2d_8">
      <defs>
       <path id="mce0528462e" d="M 0 0 
L -3.5 0 
" style="stroke: #000000; stroke-opacity: 0; stroke-width: 0.8"/>
      </defs>
      <g>
       <use xlink:href="#mce0528462e" x="36.465625" y="294.994396" style="fill-opacity: 0; stroke: #000000; stroke-opacity: 0; stroke-width: 0.8"/>
      </g>
     </g>
     <g id="text_5">
      <!-- 1.82 -->
      <g style="fill: #838383" transform="translate(7.2 298.793614) scale(0.1 -0.1)">
       <defs>
        <path id="DejaVuSans-32" d="M 1228 531 
L 3431 531 
L 3431 0 
L 469 0 
L 469 531 
Q 828 903 1448 1529 
Q 2069 2156 2228 2338 
Q 2531 2678 2651 2914 
Q 2772 3150 2772 3378 
Q 2772 3750 2511 3984 
Q 2250 4219 1831 4219 
Q 1534 4219 1204 4116 
Q 875 4013 500 3803 
L 500 4441 
Q 881 4594 1212 4672 
Q 1544 4750 1819 4750 
Q 2544 4750 2975 4387 
Q 3406 4025 3406 3419 
Q 3406 3131 3298 2873 
Q 3191 2616 2906 2266 
Q 2828 2175 2409 1742 
Q 1991 1309 1228 531 
z
" transform="scale(0.015625)"/>
       </defs>
       <use xlink:href="#DejaVuSans-31"/>
       <use xlink:href="#DejaVuSans-2e" x="63.623047"/>
       <use xlink:href="#DejaVuSans-38" x="95.410156"/>
       <use xlink:href="#DejaVuSans-32" x="159.033203"/>
      </g>
     </g>
    </g>
    <g id="ytick_2">
     <g id="line2d_9">
      <path d="M 36.465625 254.334525 
L 181.23991 254.334525 
" clip-path="url(#p692fa2c6c2)" style="fill: none; stroke-dasharray: 1.85,0.8; stroke-dashoffset: 0; stroke: #838383; stroke-opacity: 0.4; stroke-width: 0.5"/>
     </g>
     <g id="line2d_10">
      <g>
       <use xlink:href="#mce0528462e" x="36.465625" y="254.334525" style="fill-opacity: 0; stroke: #000000; stroke-opacity: 0; stroke-width: 0.8"/>
      </g>
     </g>
     <g id="text_6">
      <!-- 1.84 -->
      <g style="fill: #838383" transform="translate(7.2 258.133744) scale(0.1 -0.1)">
       <use xlink:href="#DejaVuSans-31"/>
       <use xlink:href="#DejaVuSans-2e" x="63.623047"/>
       <use xlink:href="#DejaVuSans-38" x="95.410156"/>
       <use xlink:href="#DejaVuSans-34" x="159.033203"/>
      </g>
     </g>
    </g>
    <g id="ytick_3">
     <g id="line2d_11">
      <path d="M 36.465625 213.674655 
L 181.23991 213.674655 
" clip-path="url(#p692fa2c6c2)" style="fill: none; stroke-dasharray: 1.85,0.8; stroke-dashoffset: 0; stroke: #838383; stroke-opacity: 0.4; stroke-width: 0.5"/>
     </g>
     <g id="line2d_12">
      <g>
       <use xlink:href="#mce0528462e" x="36.465625" y="213.674655" style="fill-opacity: 0; stroke: #000000; stroke-opacity: 0; stroke-width: 0.8"/>
      </g>
     </g>
     <g id="text_7">
      <!-- 1.86 -->
      <g style="fill: #838383" transform="translate(7.2 217.473874) scale(0.1 -0.1)">
       <use xlink:href="#DejaVuSans-31"/>
       <use xlink:href="#DejaVuSans-2e" x="63.623047"/>
       <use xlink:href="#DejaVuSans-38" x="95.410156"/>
       <use xlink:href="#DejaVuSans-36" x="159.033203"/>
      </g>
     </g>
    </g>
    <g id="ytick_4">
     <g id="line2d_13">
      <path d="M 36.465625 173.014785 
L 181.23991 173.014785 
" clip-path="url(#p692fa2c6c2)" style="fill: none; stroke-dasharray: 1.85,0.8; stroke-dashoffset: 0; stroke: #838383; stroke-opacity: 0.4; stroke-width: 0.5"/>
     </g>
     <g id="line2d_14">
      <g>
       <use xlink:href="#mce0528462e" x="36.465625" y="173.014785" style="fill-opacity: 0; stroke: #000000; stroke-opacity: 0; stroke-width: 0.8"/>
      </g>
     </g>
     <g id="text_8">
      <!-- 1.88 -->
      <g style="fill: #838383" transform="translate(7.2 176.814004) scale(0.1 -0.1)">
       <use xlink:href="#DejaVuSans-31"/>
       <use xlink:href="#DejaVuSans-2e" x="63.623047"/>
       <use xlink:href="#DejaVuSans-38" x="95.410156"/>
       <use xlink:href="#DejaVuSans-38" x="159.033203"/>
      </g>
     </g>
    </g>
    <g id="ytick_5">
     <g id="line2d_15">
      <path d="M 36.465625 132.354915 
L 181.23991 132.354915 
" clip-path="url(#p692fa2c6c2)" style="fill: none; stroke-dasharray: 1.85,0.8; stroke-dashoffset: 0; stroke: #838383; stroke-opacity: 0.4; stroke-width: 0.5"/>
     </g>
     <g id="line2d_16">
      <g>
       <use xlink:href="#mce0528462e" x="36.465625" y="132.354915" style="fill-opacity: 0; stroke: #000000; stroke-opacity: 0; stroke-width: 0.8"/>
      </g>
     </g>
     <g id="text_9">
      <!-- 1.90 -->
      <g style="fill: #838383" transform="translate(7.2 136.154134) scale(0.1 -0.1)">
       <defs>
        <path id="DejaVuSans-39" d="M 703 97 
L 703 672 
Q 941 559 1184 500 
Q 1428 441 1663 441 
Q 2288 441 2617 861 
Q 2947 1281 2994 2138 
Q 2813 1869 2534 1725 
Q 2256 1581 1919 1581 
Q 1219 1581 811 2004 
Q 403 2428 403 3163 
Q 403 3881 828 4315 
Q 1253 4750 1959 4750 
Q 2769 4750 3195 4129 
Q 3622 3509 3622 2328 
Q 3622 1225 3098 567 
Q 2575 -91 1691 -91 
Q 1453 -91 1209 -44 
Q 966 3 703 97 
z
M 1959 2075 
Q 2384 2075 2632 2365 
Q 2881 2656 2881 3163 
Q 2881 3666 2632 3958 
Q 2384 4250 1959 4250 
Q 1534 4250 1286 3958 
Q 1038 3666 1038 3163 
Q 1038 2656 1286 2365 
Q 1534 2075 1959 2075 
z
" transform="scale(0.015625)"/>
        <path id="DejaVuSans-30" d="M 2034 4250 
Q 1547 4250 1301 3770 
Q 1056 3291 1056 2328 
Q 1056 1369 1301 889 
Q 1547 409 2034 409 
Q 2525 409 2770 889 
Q 3016 1369 3016 2328 
Q 3016 3291 2770 3770 
Q 2525 4250 2034 4250 
z
M 2034 4750 
Q 2819 4750 3233 4129 
Q 3647 3509 3647 2328 
Q 3647 1150 3233 529 
Q 2819 -91 2034 -91 
Q 1250 -91 836 529 
Q 422 1150 422 2328 
Q 422 3509 836 4129 
Q 1250 4750 2034 4750 
z
" transform="scale(0.015625)"/>
       </defs>
       <use xlink:href="#DejaVuSans-31"/>
       <use xlink:href="#DejaVuSans-2e" x="63.623047"/>
       <use xlink:href="#DejaVuSans-39" x="95.410156"/>
       <use xlink:href="#DejaVuSans-30" x="159.033203"/>
      </g>
     </g>
    </g>
    <g id="ytick_6">
     <g id="line2d_17">
      <path d="M 36.465625 91.695045 
L 181.23991 91.695045 
" clip-path="url(#p692fa2c6c2)" style="fill: none; stroke-dasharray: 1.85,0.8; stroke-dashoffset: 0; stroke: #838383; stroke-opacity: 0.4; stroke-width: 0.5"/>
     </g>
     <g id="line2d_18">
      <g>
       <use xlink:href="#mce0528462e" x="36.465625" y="91.695045" style="fill-opacity: 0; stroke: #000000; stroke-opacity: 0; stroke-width: 0.8"/>
      </g>
     </g>
     <g id="text_10">
      <!-- 1.92 -->
      <g style="fill: #838383" transform="translate(7.2 95.494263) scale(0.1 -0.1)">
       <use xlink:href="#DejaVuSans-31"/>
       <use xlink:href="#DejaVuSans-2e" x="63.623047"/>
       <use xlink:href="#DejaVuSans-39" x="95.410156"/>
       <use xlink:href="#DejaVuSans-32" x="159.033203"/>
      </g>
     </g>
    </g>
    <g id="ytick_7">
     <g id="line2d_19">
      <path d="M 36.465625 51.035175 
L 181.23991 51.035175 
" clip-path="url(#p692fa2c6c2)" style="fill: none; stroke-dasharray: 1.85,0.8; stroke-dashoffset: 0; stroke: #838383; stroke-opacity: 0.4; stroke-width: 0.5"/>
     </g>
     <g id="line2d_20">
      <g>
       <use xlink:href="#mce0528462e" x="36.465625" y="51.035175" style="fill-opacity: 0; stroke: #000000; stroke-opacity: 0; stroke-width: 0.8"/>
      </g>
     </g>
     <g id="text_11">
      <!-- 1.94 -->
      <g style="fill: #838383" transform="translate(7.2 54.834393) scale(0.1 -0.1)">
       <use xlink:href="#DejaVuSans-31"/>
       <use xlink:href="#DejaVuSans-2e" x="63.623047"/>
       <use xlink:href="#DejaVuSans-39" x="95.410156"/>
       <use xlink:href="#DejaVuSans-34" x="159.033203"/>
      </g>
     </g>
    </g>
    <g id="text_12">
     <!-- 1e6 -->
     <g style="opacity: 0" transform="translate(36.465625 14.798437) scale(0.1 -0.1)">
      <use xlink:href="#DejaVuSans-31"/>
      <use xlink:href="#DejaVuSans-65" x="63.623047"/>
      <use xlink:href="#DejaVuSans-36" x="125.146484"/>
     </g>
    </g>
   </g>
   <g id="patch_3">
    <path d="M 36.465625 294.998437 
L 36.465625 17.798437 
" style="fill: none"/>
   </g>
   <g id="patch_4">
    <path d="M 181.23991 294.998437 
L 181.23991 17.798437 
" style="fill: none"/>
   </g>
   <g id="patch_5">
    <path d="M 36.465625 294.998438 
L 181.23991 294.998438 
" style="fill: none"/>
   </g>
   <g id="patch_6">
    <path d="M 36.465625 17.798437 
L 181.23991 17.798437 
" style="fill: none"/>
   </g>
  </g>
 </g>
 <defs>
  <clipPath id="p692fa2c6c2">
   <rect x="36.465625" y="17.798437" width="144.774285" height="277.2"/>
  </clipPath>
 </defs>
</svg>
